<?xml version="1.0" standalone="no"?>
<!DOCTYPE svg PUBLIC "-//W3C//DTD SVG 20010904//EN"
 "http://www.w3.org/TR/2001/REC-SVG-20010904/DTD/svg10.dtd">
<svg version="1.0" xmlns="http://www.w3.org/2000/svg"
 width="512.000000pt" height="512.000000pt" viewBox="0 0 512.000000 512.000000"
 preserveAspectRatio="xMidYMid meet">

<g transform="translate(0.000000,512.000000) scale(0.100000,-0.100000)"
fill="#000000" stroke="none">
<path d="M3960 4802 c-52 -35 -196 -147 -235 -183 -144 -133 -211 -190 -234
-195 -14 -3 -41 -12 -60 -20 -76 -34 -472 -90 -537 -76 -30 7 -49 6 -61 -2
-25 -17 -444 -21 -548 -5 -113 16 -132 25 -206 99 -36 37 -81 72 -100 80 -19
7 -52 24 -74 36 -22 13 -71 35 -110 49 -38 15 -86 42 -107 60 -46 42 -78 51
-128 36 -46 -14 -73 -48 -101 -128 -17 -51 -20 -89 -22 -322 l-3 -264 -24 -21
c-90 -79 -176 -228 -201 -349 -32 -154 -23 -520 15 -582 7 -11 21 -49 31 -85
10 -36 22 -69 26 -75 4 -5 17 -48 30 -94 16 -62 36 -105 76 -164 29 -44 53
-83 53 -86 0 -4 33 -39 74 -78 106 -102 256 -173 366 -173 20 0 40 -3 44 -8 4
-4 27 -8 49 -9 23 -1 76 -7 117 -12 41 -6 108 -14 148 -17 40 -4 71 -11 70
-15 -2 -5 -37 -46 -78 -91 -85 -94 -94 -108 -118 -198 l-18 -65 -102 1 c-125
2 -223 25 -258 63 -14 14 -50 67 -81 116 -90 145 -141 212 -190 250 -45 34
-47 35 -142 35 -53 0 -137 -5 -187 -9 -91 -9 -92 -10 -228 -91 -75 -45 -143
-92 -151 -103 -24 -34 -19 -72 10 -85 45 -21 79 -13 190 44 l110 56 129 -7
c104 -5 132 -10 143 -23 7 -9 36 -64 65 -122 28 -58 76 -134 105 -169 29 -36
53 -69 53 -73 0 -4 6 -8 14 -8 8 0 21 -8 28 -18 7 -10 36 -27 63 -39 103 -43
159 -55 298 -60 134 -6 138 -6 156 -32 41 -58 56 -214 26 -284 -8 -19 -19 -55
-24 -79 -6 -24 -24 -74 -42 -112 -36 -76 -100 -133 -188 -167 -79 -30 -128
-25 -187 16 -27 19 -61 35 -75 35 -21 0 -29 8 -42 40 -21 54 -60 65 -94 26
-38 -45 -32 -124 17 -238 22 -51 48 -99 57 -106 39 -29 121 -44 268 -49 l150
-5 60 32 c67 35 75 44 201 220 79 110 144 235 144 277 0 19 57 73 78 73 16 0
20 -9 25 -68 4 -37 7 -168 7 -292 0 -225 0 -225 -29 -300 l-29 -74 -50 -12
c-28 -6 -62 -18 -76 -27 -22 -15 -23 -19 -13 -52 6 -20 29 -55 50 -77 l39 -41
65 6 c45 3 84 15 131 38 74 37 78 43 124 174 28 80 28 81 28 343 0 221 3 280
19 360 11 54 25 151 31 217 6 66 15 124 19 128 5 5 12 -44 16 -110 11 -208 37
-292 172 -554 44 -85 87 -173 96 -196 29 -75 177 -180 280 -199 62 -11 121 11
145 54 30 54 35 101 14 142 -14 28 -35 44 -106 80 -80 40 -91 49 -105 86 -9
22 -41 85 -72 140 -31 54 -71 144 -89 199 -18 55 -40 114 -48 130 -9 17 -19
48 -23 70 -4 22 -14 76 -23 120 -19 97 -19 95 -2 95 8 0 16 6 19 13 8 20 34
-21 70 -114 51 -127 142 -257 266 -377 182 -177 313 -242 486 -242 61 0 98 5
115 15 14 8 38 20 53 26 30 12 97 103 129 176 23 52 28 146 9 181 -9 17 -21
22 -50 22 -41 0 -89 -27 -151 -84 -80 -75 -106 -80 -201 -41 -111 45 -233 147
-319 268 -39 54 -128 217 -220 402 -63 125 -144 236 -198 270 -17 11 -30 25
-28 30 1 6 28 13 59 17 31 4 123 34 204 66 82 32 186 68 233 80 217 54 303
101 560 305 116 92 129 107 182 195 97 160 100 172 96 417 l-3 210 -44 155
c-25 90 -52 163 -63 173 -10 10 -18 22 -18 27 0 17 -124 136 -160 155 -19 9
-47 28 -61 42 -23 21 -26 30 -22 76 11 148 35 286 80 476 28 114 27 183 -1
225 -13 21 -24 26 -59 25 -23 0 -53 -8 -67 -17z m-78 -333 c-9 -32 -21 -59
-27 -59 -6 0 -24 14 -41 31 l-29 31 25 17 c13 9 36 26 50 38 34 29 41 13 22
-58z m-2134 -69 c40 -18 71 -36 69 -39 -2 -3 -13 -27 -25 -53 -13 -27 -27 -48
-32 -48 -6 0 -10 -5 -10 -10 0 -6 -13 -28 -29 -50 -15 -21 -34 -53 -41 -70 -7
-16 -16 -30 -21 -30 -5 0 -9 77 -9 171 0 133 3 170 13 166 6 -2 45 -19 85 -37z
m1992 4 c0 -9 20 -35 45 -60 30 -29 45 -52 45 -69 0 -34 -13 -32 -60 12 -58
51 -83 89 -75 113 8 24 45 27 45 4z m-1750 -143 c18 -15 20 -21 9 -21 -19 0
-81 45 -73 53 7 7 27 -3 64 -32z m1664 -7 c9 -3 16 -12 16 -18 0 -7 16 -26 35
-43 19 -17 35 -35 35 -40 0 -4 -11 -21 -24 -38 l-24 -30 -50 54 -50 54 21 34
c12 18 23 33 24 33 1 0 8 -3 17 -6z m-220 -46 l25 -23 -44 -70 c-25 -38 -54
-86 -64 -106 -24 -44 -46 -63 -66 -55 -22 8 -18 55 9 90 13 17 26 41 30 52 11
36 67 134 76 134 5 0 20 -10 34 -22z m-164 6 c0 -17 -86 -153 -97 -154 -17 0
-33 33 -33 70 0 45 47 90 94 90 20 0 36 -3 36 -6z m-1388 -39 c6 -14 15 -25
20 -25 18 0 5 -26 -51 -100 -32 -43 -61 -84 -64 -92 -3 -10 -11 -7 -28 9 -21
20 -22 27 -12 52 16 43 103 181 114 181 5 0 15 -11 21 -25z m361 6 c16 -6 46
-11 68 -11 21 0 39 -3 39 -6 0 -3 -23 -32 -52 -64 l-51 -59 -31 16 c-17 8 -48
31 -68 51 -29 27 -36 41 -32 59 6 21 4 22 -25 17 -20 -4 -31 -3 -31 5 0 14
142 8 183 -8z m586 -7 c-5 -15 -26 -48 -47 -74 -20 -26 -42 -56 -48 -66 -10
-17 -12 -17 -42 1 -18 11 -32 23 -32 27 0 4 11 28 25 54 14 26 25 53 25 60 0
24 -38 15 -73 -16 -42 -37 -57 -37 -85 -5 -12 14 -26 25 -32 25 -5 0 -10 5
-10 10 0 6 62 10 165 10 l165 0 -11 -26z m125 -66 c21 -24 25 -13 -48 -124
-51 -77 -68 -89 -80 -58 -6 15 91 203 104 204 3 0 14 -10 24 -22z m-489 -49
c38 -34 37 -44 -11 -101 -12 -15 -24 -33 -26 -40 -3 -9 -17 -5 -46 15 -23 15
-42 30 -42 33 0 11 75 123 82 123 4 1 23 -13 43 -30z m1089 15 c9 -3 16 -12
16 -20 0 -7 11 -21 25 -30 40 -26 38 -45 -13 -135 -55 -95 -64 -98 -132 -53
l-40 27 19 31 c10 17 37 66 60 109 23 42 44 77 46 77 2 0 10 -3 19 -6z m232
-40 c-4 -9 -9 -15 -11 -12 -3 3 -3 13 1 22 4 9 9 15 11 12 3 -3 3 -13 -1 -22z
m-1672 -67 l38 -32 -45 -67 c-25 -36 -53 -81 -62 -99 -10 -19 -19 -35 -20 -37
-3 -4 -79 34 -112 55 -19 13 -21 19 -12 37 11 21 158 173 170 175 3 1 23 -14
43 -32z m978 1 c16 -29 13 -43 -23 -99 -16 -25 -29 -53 -29 -62 0 -21 -6 -21
-47 1 l-33 17 26 45 c13 25 33 62 42 82 19 43 45 49 64 16z m-473 -52 l22 -24
-25 -51 c-15 -28 -32 -51 -38 -51 -19 0 -48 32 -48 52 0 19 48 98 60 98 3 0
17 -11 29 -24z m1133 -7 c16 -9 19 -17 13 -46 -5 -27 -55 -116 -80 -141 -2 -2
-12 5 -23 16 -19 19 -19 20 17 101 20 44 40 81 44 81 5 0 17 -5 29 -11z
m-2142 -28 c0 -6 -4 -12 -9 -15 -5 -4 -26 -35 -45 -71 -36 -63 -52 -82 -62
-72 -16 15 78 167 103 167 7 0 13 -4 13 -9z m1600 -31 c0 -5 7 -10 15 -10 20
0 19 -14 -5 -83 -11 -31 -20 -68 -20 -82 0 -19 -5 -25 -21 -25 -17 0 -20 4
-16 22 3 11 -1 35 -11 52 -19 37 -18 47 15 97 25 38 43 50 43 29z m-910 -21
c28 -22 29 -23 13 -53 -9 -17 -26 -43 -39 -58 -12 -15 -28 -44 -34 -63 -10
-30 -15 -35 -33 -29 -34 10 -59 36 -54 56 9 34 92 167 105 168 7 0 26 -10 42
-21z m1656 -2 c24 -21 25 -25 13 -45 -24 -39 -53 -22 -65 36 -8 40 12 43 52 9z
m-1193 -31 c12 -9 14 -16 8 -21 -14 -8 -14 -70 -1 -95 13 -25 -14 -34 -75 -24
l-45 6 19 32 c10 17 29 50 41 74 24 46 27 48 53 28z m-1040 -18 c8 -11 -2 -32
-38 -84 -62 -88 -61 -87 -74 -80 -14 9 0 43 47 123 37 63 48 70 65 41z m1668
-57 c14 -10 35 -21 49 -23 13 -1 25 -9 28 -15 3 -10 -17 -13 -78 -13 l-82 0
14 23 c8 12 18 28 22 35 10 17 19 15 47 -7z m-888 -29 c32 -28 20 -39 -43 -38
-33 0 -60 2 -60 4 0 1 10 16 22 32 23 32 46 33 81 2z m1586 -37 c38 -80 19
-163 -26 -112 -27 31 -53 74 -53 89 0 21 39 80 49 74 5 -3 18 -26 30 -51z
m-1169 36 c0 -5 8 -12 18 -14 9 -3 -2 -5 -25 -6 -34 -1 -41 2 -37 14 7 16 44
21 44 6z m934 -37 c6 -21 -2 -43 -31 -93 -2 -2 -12 4 -23 14 -26 23 -25 49 1
92 23 37 42 33 53 -13z m-1939 -6 c32 -22 44 -37 39 -48 -3 -8 -8 -32 -11 -52
-5 -32 -12 -42 -51 -63 -24 -14 -47 -25 -51 -25 -4 0 -30 15 -57 33 -59 37
-59 39 3 139 42 68 52 69 128 16z m1723 -6 c-2 -9 -10 -18 -19 -20 -19 -3 -31
21 -23 43 8 21 46 0 42 -23z m-2068 -130 c0 -5 -9 -35 -21 -68 -14 -41 -19
-78 -17 -120 2 -53 0 -64 -24 -92 -15 -18 -30 -42 -34 -54 -6 -21 -7 -21 -20
-3 -23 32 -16 79 31 206 25 67 48 126 51 131 7 11 34 10 34 0z m1971 -8 c9 -2
21 -16 27 -29 6 -14 17 -25 24 -25 29 -1 42 -25 94 -176 52 -151 54 -163 54
-261 0 -89 -4 -113 -30 -185 -17 -46 -52 -123 -78 -173 -42 -79 -53 -93 -92
-112 -64 -32 -158 -73 -165 -73 -4 0 -21 -6 -38 -14 -65 -29 -131 -36 -319
-36 -488 0 -1012 43 -1075 88 -40 28 -103 113 -144 192 -26 50 -34 80 -37 134
-6 97 16 283 39 328 10 20 61 79 114 131 90 90 99 97 167 117 40 12 87 25 104
31 17 5 82 9 146 9 64 0 180 7 259 16 79 8 219 17 311 19 92 2 173 7 180 12
26 16 406 23 459 7z m439 -55 c23 -54 -13 -109 -40 -60 -5 11 -17 26 -25 35
-14 13 -13 19 2 50 15 33 18 35 34 20 9 -8 23 -29 29 -45z m-2250 -51 c0 -5
-10 -18 -22 -30 -35 -34 -48 -66 -42 -98 5 -20 0 -38 -15 -59 -76 -106 -100
-378 -46 -509 8 -19 10 -30 4 -26 -23 14 -70 101 -95 176 l-26 79 20 62 c51
157 82 232 110 261 20 20 32 47 37 76 4 25 14 57 21 72 13 25 17 26 34 16 11
-7 20 -16 20 -20z m2150 -84 l22 -35 -23 -25 c-13 -14 -27 -20 -31 -16 -8 8
-1 112 7 112 2 0 13 -16 25 -36z m220 -43 c0 -22 -35 -55 -49 -46 -16 9 -14
19 10 49 22 28 39 27 39 -3z m-109 -156 c-17 -20 -43 -55 -57 -77 -19 -29 -28
-37 -34 -28 -11 18 -3 36 49 107 39 54 48 61 60 48 12 -12 10 -19 -18 -50z
m144 -51 c-24 -73 -84 -163 -112 -170 -13 -4 -26 -4 -29 -1 -3 2 16 33 41 68
25 35 59 86 76 112 17 26 33 46 36 43 2 -2 -3 -26 -12 -52z"/>
<path d="M3273 3227 c-77 -81 -87 -106 -80 -203 5 -86 16 -112 75 -176 21 -23
34 -28 72 -28 38 0 51 5 72 28 53 56 60 84 56 216 -4 140 -19 179 -73 202 -54
22 -69 17 -122 -39z"/>
<path d="M2154 3176 c-85 -37 -127 -199 -87 -339 14 -51 21 -61 49 -73 41 -17
101 -18 133 -1 14 6 34 28 45 47 31 52 29 200 -3 293 -30 87 -63 105 -137 73z"/>
<path d="M2724 2906 c-28 -20 -34 -47 -19 -84 18 -40 46 -55 87 -44 27 7 35
15 43 46 13 54 -8 90 -55 94 -20 1 -44 -4 -56 -12z"/>
<path d="M2532 2687 c-20 -21 -21 -28 -12 -53 33 -86 163 -144 290 -128 61 7
142 52 178 99 25 32 27 44 10 80 -10 23 -16 26 -42 21 -17 -4 -54 -22 -82 -41
-39 -27 -64 -36 -110 -40 -62 -6 -73 -2 -135 46 -51 40 -72 43 -97 16z"/>
</g>
</svg>
