<?xml version="1.0" standalone="no"?>
<!DOCTYPE svg PUBLIC "-//W3C//DTD SVG 20010904//EN"
 "http://www.w3.org/TR/2001/REC-SVG-20010904/DTD/svg10.dtd">
<svg version="1.0" xmlns="http://www.w3.org/2000/svg"
 width="820.000000pt" height="453.000000pt" viewBox="0 0 820.000000 453.000000"
 preserveAspectRatio="xMidYMid meet">

<g transform="translate(0.000000,453.000000) scale(0.100000,-0.100000)"
fill="#000000" stroke="none">
<path d="M2587 4110 c-84 -15 -190 -51 -239 -81 -91 -58 -190 -185 -225 -290
-57 -170 28 -478 172 -625 124 -126 225 -159 490 -159 167 0 171 0 229 29 68
33 170 130 210 199 75 127 103 310 72 455 -49 232 -234 419 -461 467 -75 16
-171 18 -248 5z m196 -116 c77 -17 152 -50 204 -90 63 -48 158 -210 168 -286
l6 -43 -33 54 c-133 214 -152 232 -183 171 l-16 -31 89 -127 c113 -161 113
-160 98 -196 l-12 -29 -44 74 c-71 120 -120 189 -135 189 -14 0 -35 -29 -35
-49 0 -5 28 -52 63 -103 111 -164 110 -162 89 -189 l-19 -23 -38 70 c-21 38
-56 95 -77 127 -34 50 -41 56 -58 47 -34 -18 -23 -54 51 -164 61 -89 70 -108
59 -121 -7 -8 -18 -15 -24 -15 -6 0 -35 36 -65 80 -30 44 -65 89 -78 101 -22
22 -23 22 -43 4 -27 -24 -26 -31 13 -79 72 -88 100 -138 86 -147 -8 -5 -19 -9
-25 -9 -6 0 -25 -3 -42 -6 -29 -6 -33 -3 -76 65 -25 39 -51 71 -58 71 -17 0
-48 -31 -48 -48 0 -9 8 -25 19 -36 10 -12 27 -34 37 -50 l18 -29 -64 6 c-89 9
-173 32 -247 67 -108 53 -158 159 -158 335 0 116 16 172 75 263 44 69 108 117
189 143 72 23 218 24 314 3z"/>
<path d="M2404 3781 c-46 -28 -77 -99 -82 -192 -8 -133 29 -229 87 -229 57 0
67 44 21 96 -39 45 -44 70 -30 138 8 39 24 72 51 107 46 57 49 92 9 97 -14 1
-39 -6 -56 -17z"/>
<path d="M2212 2793 c-12 -2 -26 -12 -31 -21 -5 -9 -12 -271 -15 -582 -4 -311
-14 -783 -22 -1049 l-14 -484 22 -25 c22 -23 251 -192 286 -211 9 -5 202 -10
427 -12 l410 -4 41 24 c23 13 47 35 54 49 11 26 21 196 40 747 5 160 19 423
30 585 28 400 29 577 6 655 -36 120 -119 240 -195 279 -42 22 -132 35 -316 46
-165 9 -677 12 -723 3z m735 -82 c150 -4 236 -10 243 -17 16 -16 29 -80 30
-144 l0 -55 -41 68 c-23 38 -47 71 -55 74 -19 7 -41 -12 -48 -43 -6 -21 7 -47
62 -132 92 -142 94 -145 90 -199 l-3 -47 -69 93 c-70 95 -98 111 -104 61 -2
-17 24 -67 83 -160 84 -134 85 -135 84 -200 l0 -65 -19 25 c-10 14 -46 62 -80
108 -33 46 -66 82 -73 79 -18 -6 -33 -55 -22 -72 6 -8 48 -68 93 -135 89 -129
109 -174 94 -218 -8 -25 -11 -21 -60 69 -28 52 -65 114 -83 139 l-32 44 -18
-23 c-11 -13 -19 -33 -19 -45 0 -11 43 -84 96 -161 l95 -141 -3 -59 -3 -60
-79 133 c-44 72 -85 132 -92 132 -17 0 -34 -32 -34 -63 0 -13 38 -79 89 -153
115 -168 118 -174 113 -256 -2 -38 -7 -68 -10 -68 -4 0 -45 66 -92 146 -95
162 -103 172 -125 154 -32 -27 -17 -69 95 -264 l110 -192 -1 -85 c-1 -124 -8
-135 -46 -68 -127 224 -175 307 -193 329 -20 24 -21 25 -35 6 -31 -40 -19 -73
98 -260 154 -244 152 -242 132 -272 -8 -13 -22 -24 -29 -24 -8 0 -39 44 -69
98 -133 232 -189 295 -217 242 -13 -24 -17 -16 75 -145 99 -137 130 -194 117
-207 -6 -6 -28 -11 -48 -12 -38 -1 -38 0 -106 109 -122 196 -149 235 -163 235
-7 0 -23 -12 -34 -26 l-20 -26 54 -76 c31 -43 73 -106 95 -142 39 -64 40 -65
17 -72 -65 -19 -69 -16 -156 118 -45 69 -89 128 -97 131 -9 3 -23 -1 -31 -10
-15 -14 -11 -23 39 -99 31 -46 61 -93 67 -105 11 -22 10 -23 -33 -23 l-44 0
-53 91 c-30 50 -60 94 -67 97 -8 2 -23 -5 -35 -16 l-21 -21 47 -68 c26 -38 47
-72 47 -77 0 -16 -163 3 -183 22 -51 46 -50 39 -43 582 9 678 26 1401 33 1424
5 18 14 19 232 11 124 -4 330 -10 458 -14z"/>
<path d="M2337 2573 c-26 -42 -38 -405 -14 -435 16 -20 48 -30 65 -19 15 9 31
153 32 279 0 39 1 73 3 73 1 1 61 4 132 8 l130 6 3 26 c2 16 -5 32 -19 45 -18
17 -39 19 -174 22 -85 2 -155 0 -158 -5z"/>
<path d="M4953 2766 c-150 -29 -268 -82 -444 -201 -61 -41 -113 -75 -115 -75
-2 0 -4 51 -4 113 0 77 -4 119 -13 131 -22 30 -146 39 -458 32 -158 -3 -294
-8 -302 -12 -14 -5 -16 -113 -13 -1059 l3 -1054 27 -42 c39 -59 102 -125 143
-150 35 -22 39 -22 352 -15 357 8 377 12 397 76 7 22 14 202 18 490 7 514 20
793 41 894 24 116 81 195 177 247 58 31 70 34 148 33 191 0 256 -92 306 -434
19 -132 15 -419 -11 -735 -24 -297 -17 -473 21 -532 l14 -23 349 0 c195 0 372
4 402 10 95 18 92 11 102 317 4 148 6 502 4 788 -3 504 -4 522 -26 600 -88
311 -341 528 -696 595 -96 18 -339 22 -422 6z m512 -131 c177 -52 268 -122
380 -290 99 -150 129 -216 132 -293 l3 -67 -64 130 c-35 72 -71 137 -81 145
-22 19 -47 3 -59 -38 -8 -27 0 -44 77 -169 46 -77 94 -158 106 -181 20 -39 29
-122 14 -122 -5 0 -34 44 -66 98 -32 53 -66 108 -76 121 -22 28 -46 23 -62
-13 -11 -23 -3 -39 87 -178 100 -155 109 -179 113 -286 1 -36 -12 -20 -79 95
-70 121 -106 173 -121 173 -14 0 -31 -51 -25 -75 3 -11 48 -90 100 -175 l96
-155 0 -102 c0 -56 -4 -104 -9 -107 -16 -10 -46 36 -121 187 -82 165 -103 186
-108 105 -3 -54 -4 -53 120 -269 l89 -156 -3 -84 -3 -84 -105 200 c-58 110
-109 199 -115 199 -5 -1 -18 -13 -28 -27 l-19 -24 72 -124 c116 -198 161 -297
158 -344 -6 -76 -30 -53 -147 140 -60 99 -115 180 -122 180 -8 0 -18 -12 -23
-27 -8 -24 0 -41 82 -166 51 -77 92 -142 92 -146 0 -3 -20 -6 -44 -6 -50 0
-39 -11 -151 147 -32 46 -62 83 -66 83 -5 0 -16 -12 -26 -26 -19 -29 -23 -19
54 -134 24 -34 40 -66 37 -71 -3 -5 -20 -9 -38 -9 -29 0 -36 7 -84 80 -57 88
-77 104 -99 74 -14 -17 -14 -13 -9 41 14 144 18 537 7 685 -13 176 -43 388
-67 486 -33 130 -103 196 -246 229 -166 38 -309 -2 -442 -125 -61 -57 -146
-165 -146 -186 0 -28 -19 -21 -44 16 -37 56 -60 66 -86 38 -31 -34 -24 -58 32
-115 l52 -52 4 -91 c3 -49 1 -90 -4 -90 -5 0 -28 33 -52 73 -58 99 -70 113
-83 100 -6 -6 -13 -28 -16 -49 -4 -34 1 -49 46 -116 27 -42 57 -91 66 -107 15
-31 22 -151 8 -151 -5 0 -37 47 -71 105 -77 126 -85 134 -106 103 -9 -12 -16
-29 -16 -36 0 -7 48 -88 106 -178 l107 -165 -7 -82 c-4 -45 -9 -84 -12 -86 -7
-7 -10 -1 -102 169 -41 74 -78 140 -83 145 -12 12 -48 -31 -49 -58 0 -10 28
-61 61 -115 174 -274 171 -268 177 -363 3 -55 1 -89 -6 -93 -6 -4 -56 82 -123
214 -62 121 -116 220 -120 220 -10 0 -49 -50 -49 -62 0 -6 53 -102 117 -216
64 -113 117 -215 117 -226 1 -11 -6 -22 -15 -24 -10 -2 -42 40 -99 132 -46 74
-93 147 -106 163 -22 28 -22 28 -43 9 -12 -11 -21 -27 -21 -37 0 -10 40 -71
90 -136 49 -65 90 -124 90 -130 0 -9 -16 -13 -48 -13 l-49 0 -66 107 c-37 60
-74 117 -83 128 -15 20 -16 20 -40 -8 -13 -15 -24 -34 -24 -41 0 -7 27 -51 60
-97 33 -46 60 -87 60 -91 0 -5 -15 -8 -34 -8 -31 0 -39 7 -89 78 -70 99 -91
119 -112 102 -25 -21 -17 -55 27 -119 23 -33 38 -64 34 -68 -10 -10 -118 -5
-129 6 -5 5 -4 150 3 337 9 230 10 532 5 1002 l-7 672 299 -2 298 -3 6 -140
c4 -77 7 -157 8 -177 1 -52 24 -50 92 10 111 99 306 212 441 256 212 69 435
76 623 21z m-87 -1908 c20 -39 20 -42 4 -49 -23 -9 -70 -10 -75 0 -3 4 -3 38
0 76 l6 70 22 -28 c12 -15 32 -46 43 -69z"/>
<path d="M3838 2578 c-21 -17 -29 -57 -17 -80 9 -16 23 -18 129 -18 135 0 127
6 132 -90 l3 -45 45 0 45 0 3 73 c2 54 -2 83 -16 116 -18 40 -23 43 -67 49
-83 12 -240 8 -257 -5z"/>
<path d="M4960 2430 c-20 -37 3 -57 110 -91 54 -17 125 -46 157 -64 77 -42
108 -97 127 -226 14 -92 28 -119 63 -119 23 0 53 39 53 68 0 49 -29 152 -63
225 -54 116 -143 180 -294 212 -98 21 -140 19 -153 -5z"/>
</g>
</svg>
