<svg id="Layer_1" data-name="Layer 1" xmlns="http://www.w3.org/2000/svg" viewBox="0 0 512 512"><title>profile-document-handdrawn</title><path d="M318.84,1H27V510.94h457.9V162Zm5.53,30.33L453.54,156.54H324.36ZM45,493V18.93H306.44V174.47H467V493Zm60.47-283.19A34.89,34.89,0,0,1,139.81,175a67.48,67.48,0,0,0,61,0H205a34.9,34.9,0,0,1,34.86,34.86v20.25H257.8V209.83a52.87,52.87,0,0,0-36.88-50.33,67.73,67.73,0,1,0-100,1.25A52.86,52.86,0,0,0,87.5,209.83v20.25h17.93Zm64.9-145.08a49.8,49.8,0,1,1-49.8,49.8A49.85,49.85,0,0,1,170.33,64.75ZM87.66,261.45H424.29v17.93H87.66Zm0,54.11H424.29v17.93H87.66Zm0,54.11H424.29v17.93H87.66Zm0,54.11h176v17.93h-176Z" fill="none" stroke="#231f20"/><path d="M87,424.45l.63-.36s-.28,3-.28,3c.13.23,5.63-4,5.94-3.43.18.31-5.64,4.58-5.46,4.9.09.16,7.9-4.72,8-4.6.25.43-8.77,7.06-8.65,7.25.23.4,12.61-7.29,12.61-7.28.75,1.29-11.83,9.48-11.83,9.48,1,1.82,15.88-9.17,15.88-9.17.52.9-16.27,11.48-16.15,11.69,1.42,2.47,21-12.12,21-12.12.84,1.46-22,12.64-20.92,14.51C89,440.6,112.57,424,112.57,424c1.36,2.35-26.33,15-25.44,16.54,1.81,3.13,26.86-19,28.39-16.39,0,0-29.18,15.15-27.66,17.79.75,1.31,31.55-19.46,32.09-18.53,1.38,2.39-29.19,18.71-29.19,18.71,2,3.42,30.95-17.87,30.95-17.87,1.61,2.8-27.09,15.36-26,17.3.75,1.29,29.47-20.81,31.12-18,1.8,3.11-28.42,17.36-28,18,0,0,31.57-18.3,31.61-18.25s-27.6,17.12-27.15,17.9c2.13,3.7,30.15-17.79,30.31-17.5.41.71-28,17.92-28,17.92s29.68-21.06,31.38-18.11l-28.34,18.53c.78,1.35,30.78-18.52,31.11-18,0,0-26.26,17.22-26.25,17.25s29.82-19.47,30.8-17.78c.7,1.21-30.18,15.58-28.56,18.39,2,3.38,29.77-20.42,31.17-18,.66,1.15-26.41,17.63-26.41,17.63,1.77,3.06,28.91-20.75,30.67-17.71.85,1.47-26,17.6-26,17.6.51.88,29.87-20.56,31.3-18.07l-26.29,18.07c1.78,3.08,30-20.78,31.51-18.19,0,0-30,16.59-28.89,18.6,0,0,31-18.61,31.29-18.06,1.15,2-27,17.41-27,17.41.56,1,29.79-19,30.59-17.66,1.8,3.12-29.45,15.3-27.63,18.46,1,1.7,31.36-19,31.74-18.33l-26.63,18c2,3.42,30-21.26,31.71-18.31.22.38-28.11,18.51-28.11,18.51,2.06,3.56,29.26-21.64,31.31-18.08,0,0-27.09,17.29-26.91,17.6l31-17.91c1.47,2.55-26.56,18-26.56,18s30.88-19.31,31.52-18.2c0,0-28.23,16.93-27.38,18.4.25.43,30.54-19.63,31.41-18.13s-27.82,15.62-26.46,18c0,0,30.12-19.14,30.88-17.83,1.42,2.46-28.19,14.82-26.6,17.58S199.85,422,201,424c1.81,3.14-26.53,17.79-26.4,18,2,3.49,31.8-19.7,32.38-18.69.69,1.19-27.22,18.17-27.1,18.38.58,1,30.79-19.45,31.52-18.2.28.48-28.66,16.86-27.94,18.09.87,1.5,30.74-19.13,31.34-18.09,1.21,2.1-28.07,15.38-26.71,17.75.29.5,28.44-20.18,30.06-17.36,0,0-27.82,15-26.24,17.73s29.59-21.71,31.59-18.24c1.78,3.09-28.59,15.9-27.19,18.33,0,0,29.55-19.23,30.49-17.6s-26.4,17.61-26.4,17.61c.24.41,29.37-20.08,30.72-17.74,1.45,2.51-26,17.64-26,17.64.44.76,30.35-20.39,31.59-18.24C238.19,426,209,441.32,209,441.32c1.57,2.72,29.78-17.66,30-17.31.37.64-25.54,17.63-25.54,17.63s29.71-20.2,31-17.91c1.13,2-26.69,18.28-26.69,18.28l31.3-18.07c1,1.68-28,14.78-26.35,17.69.14.24,29-21.19,30.89-17.84s-29.71,16.35-28.58,18.32c.87,1.51,32.32-18.92,32.44-18.73s-27.68,17.39-27.33,18c1.48,2.57,28.67-19.55,30-17.3.92,1.59-26.36,17.23-26.23,17.46,1,1.72,29.2-16.86,29.2-16.86,1.63,2.82-25.49,17.32-25.49,17.32s24.2-17.49,25.73-14.85c0,0-22.81,13.88-22.33,14.72.16.28,21.31-14.61,22.31-12.88l-17.71,12.43,17.47-10.09c.28.48-16.09,9.25-15.24,10.72,0,0,14.11-10.47,15.12-8.73.13.23-10.12,7.65-9.7,8.37,0,0,10.25-6.65,10.56-6.1.21.37-7.19,6.14-7.19,6.14l6.85-4c.15.26-4,3.72-3.78,4s3.7-2.5,3.86-2.23l-.31,2.09.35-.2" fill="none" stroke="#000" stroke-linecap="round" stroke-linejoin="round" stroke-width="0.7"/><path d="M87.72,369.9s.67-.41.68-.39a24.17,24.17,0,0,1-.5,2.9c.25.44,5.09-3,5.12-3,.14.23-6.12,5.52-5.76,6.15.25.43,9.54-5.51,9.54-5.51s-10,6.65-9.54,7.54c0,0,12.87-8.61,13.38-7.72.67,1.16-12.53,9.09-12.53,9.09.89,1.55,16.06-9.79,16.28-9.4.41.7-17,11.14-16.79,11.47,1.3,2.25,19.47-11.24,19.47-11.24,1.35,2.33-20.7,11.12-19.36,13.43.67,1.17,23-14.72,23.63-13.64,0,0-26,13.75-24.29,16.77.53.91,27.25-18.41,28.41-16.4,1.72,3-27.65,15-26.06,17.78,1,1.75,29.46-20.65,31-17.92,1.71,3-27.52,17.35-27.09,18.1,2,3.38,31.87-18.4,31.87-18.4.72,1.25-28.37,17.43-27.8,18.41,0,0,31.15-20.11,32.07-18.52L102,387.22c1.21,2.1,28.28-19.73,29.75-17.18.57,1-27.63,15.74-26.77,17.23,2,3.47,28.62-19.41,29.87-17.25L108,387.64c1.72,3,31.3-18.07,31.3-18.07.13.23-27.87,18.27-27.87,18.27l31.29-18.07s-26.17,16.9-25.76,17.6c.82,1.42,30.79-17.78,30.79-17.78,1.07,1.86-27.28,18.31-27.28,18.31.37.65,31.64-18.27,31.64-18.27,1.4,2.43-29.48,14.58-27.56,17.91,1.58,2.73,29.33-19.85,30.59-17.66,0,0-26.07,17.61-25.94,17.84,1.46,2.54,28.7-20.7,30.49-17.6.82,1.42-27.61,14.93-25.92,17.85l31.82-18.37c1.63,2.82-27,17.13-26.71,17.63l30.09-17.37c1.62,2.8-26,17.55-26,17.55.71,1.23,30.11-18.73,30.69-17.72,1.41,2.45-28.28,14.72-26.45,17.89,1,1.76,30.31-20.61,31.66-18.28.94,1.63-29.19,16-28,18s29.88-19.11,30.68-17.72c1.34,2.32-27.75,16.6-26.77,18.29.14.24,31.55-19.65,32.17-18.58,1,1.66-29.34,15.05-27.48,18.27.1.17,30.47-19,31.08-17.95,0,0-27.68,18.24-27.64,18.3s31.08-18.8,31.45-18.16c1.87,3.25-28.22,14.9-26.68,17.56,0,0,28.66-20.74,30.47-17.59,1.59,2.75-29.21,16.17-28.09,18.12,1.53,2.65,30.14-20.18,31.34-18.1,1.84,3.19-26.2,16.75-25.78,17.48,0,0,29.13-19,30.08-17.37.34.59-27.6,15.23-26.36,17.38,1.68,2.9,28-20.9,30.05-17.35,0,0-27.8,15.47-26.7,17.37,2,3.52,28.54-19.92,30-17.34.81,1.41-26.46,18-26.46,18,2.1,3.64,32.06-18.51,32.06-18.51,1.85,3.2-29,16.79-28,18.47,2.07,3.59,30.68-20.9,32.06-18.51.61,1-29.25,17.36-28.69,18.34,1.76,3,28.87-21.54,31-17.88.29.5-26.87,16.34-26.22,17.47.84,1.46,29.41-17.86,29.79-17.2,1.23,2.13-27.78,15.67-26.85,17.28,1.7,3,31-17.91,31-17.91,1.6,2.78-29,15.36-27.58,17.82,1.13,1.95,29.75-17.19,29.75-17.18,1.59,2.75-28,14.2-26.13,17.39s30.34-20.08,31.45-18.16c0,0-29.35,15.48-27.54,18.61,1.66,2.87,31.25-18,31.25-18S214.19,385,215.89,387.94c1.21,2.1,31.88-18.41,31.88-18.41s-27.12,18.08-27.12,18.08l31-17.91c1.68,2.92-26,17.66-26,17.66s30-20.07,31.2-18c1.65,2.86-27.39,16.23-26.43,17.89s28.38-20.38,30.11-17.39c1.22,2.12-26.68,17.36-26.43,17.8.53.91,30.77-19.71,31.61-18.25,0,0-27.74,16.33-26.89,17.8S267.93,369,268.56,370c0,0-27.24,16.58-26.73,17.47,0,0,30.74-19,31.29-18.07.11.19-30.25,15.37-28.51,18.39,1.41,2.44,31.06-18.6,31.35-18.1.91,1.57-27.69,17.27-27.43,17.72,1.26,2.18,30.14-18.38,30.56-17.65,1.21,2.1-27.67,16-26.88,17.42.08.14,29-20.61,30.69-17.72,1.93,3.35-28.66,16.56-27.8,18,0,0,29.89-18.56,30.45-17.58,1.2,2.08-27.9,17.23-27.49,17.94,1.19,2.05,31.62-18.26,31.62-18.26.51.88-28.42,17-27.69,18.27,1.32,2.28,31-20.7,32.2-18.59,0,0-28,17.28-27.54,18.15,1.3,2.25,29.3-21.55,31.31-18.08,1.33,2.3-28,15.39-26.48,18s29.68-20.55,31.16-18c1.34,2.32-27.35,18.47-27.35,18.47.9,1.56,31.58-18.23,31.58-18.23,1.22,2.11-27.46,18-27.46,18,1.53,2.66,31.06-19.25,31.63-18.26s-28.42,15.32-26.84,18.05c.69,1.19,29.22-21.07,31-17.92,1,1.65-27.18,18.15-27.18,18.15.57,1,30.17-21,31.71-18.31.6,1-29.76,16.45-28.59,18.47.08.13,31.35-18.1,31.35-18.1,1.61,2.79-27.34,17.66-27.34,17.66s30.68-17.71,30.68-17.71c1.85,3.21-26.68,17.76-26.68,17.76.74,1.28,29.67-18.94,30.46-17.59,1.9,3.29-28.18,15.38-26.85,17.68,0,0,29.19-20.17,30.62-17.68,0,0-28.38,14.56-26.72,17.42l31.12-18c0,.08-29.35,17-28.5,18.46.35.61,31-19.89,31.83-18.38.09.15-29,15.45-27.39,18.25,2,3.47,30.59-20.53,31.83-18.38,0,0-29.76,15.17-27.85,18.48,0,0,31.8-18.73,32-18.45,1.69,2.92-29.63,14.83-27.83,18,0,0,30.31-18.39,30.7-17.72,1.43,2.48-28.34,17.67-28,18.33.13.22,31.63-18.26,31.63-18.26s-27.55,14.81-25.83,17.79c.51.88,30.57-18.82,31.08-17.94.87,1.5-27.71,18-27.71,18s29.92-20.33,31.25-18l-27.32,17.93c.82,1.42,27.91-20.28,29.71-17.16,1.29,2.24-27.19,15.65-26.11,17.53s31.26-18,31.26-18c.62,1.07-26.65,17.25-26.46,17.58,0,0,29-19.34,30.1-17.38,0,0-28.14,14.89-26.61,17.53.19.33,28-20.42,29.83-17.22l-27.3,17.62s30.41-20.39,31.64-18.27c.59,1-29.47,15.54-27.79,18.44,1,1.78,30.78-20.78,32.09-18.52,0,0-27.77,17.47-27.57,17.81,0,0,29.23-18.24,29.82-17.22,1.63,2.82-26.44,16.85-26.2,17.26,0,0,28.8-21.14,30.75-17.75l-26.7,18.08c2.12,3.66,30.68-19.59,31.49-18.18,1.28,2.22-28.18,18.53-28.18,18.53.43.74,31.64-19.37,32.12-18.55s-27.55,18.23-27.55,18.23,30.85-18.81,31.28-18.06c0,0-28.67,16.67-27.84,18.1l31.32-18.08c.77,1.33-28.12,14.67-26.29,17.85.07.12,31-17.89,31-17.89,1.49,2.57-28.36,15.24-26.74,18,.91,1.58,28.33-20.83,30.27-17.47,1.13,2-28.35,15.74-27.24,17.65s31.68-18.29,31.68-18.29c1,1.66-28.47,17.49-28,18.38,0,0,26.64-19,28.19-16.27.45.78-23.88,15.75-23.88,15.75s24-16.44,25.12-14.5c.49.85-22.86,12.79-21.93,14.4,0,0,21-14,21.79-12.58,0,0-18.93,12-18.32,13,0,0,17.6-12.14,18.46-10.66s-15,10-14.57,10.77c0,0,13.9-8.86,14.26-8.23.61,1.06-11.21,7.56-10.82,8.24,0,0,9.87-7.12,10.49-6.06.47.81-8,5.19-7.49,6.16.39.67,6.71-3.88,6.71-3.88l-3,3.75c.23.4,3.14-2.36,3.38-1.95.11.19-.68,2-.6,2.14a1.52,1.52,0,0,1,.27-.16" fill="none" stroke="#000" stroke-linecap="round" stroke-linejoin="round" stroke-width="0.7"/><path d="M86.92,316.24s.72-.45.73-.42a11.82,11.82,0,0,1-.73,2.78s5.66-3.74,5.86-3.38c.05.09-4.5,5.34-4.5,5.34.37.63,8.7-6,9.11-5.26l-10,7.56c.53.93,12.14-7,12.14-7,.53.92-11.34,8.54-11.24,8.7.74,1.29,14.64-9.57,15.13-8.73.27.47-16.13,11.08-15.88,11.51,1.31,2.27,18.87-13.35,19.94-11.51,0,.05-19.81,13.5-19.81,13.5.13.22,22.93-16.66,24.41-14.09,0,0-25.41,16.55-25.15,17,1.86,3.22,27.63-17.79,28.43-16.41,1.16,2-28.21,14.76-26.47,17.76,1.27,2.2,31.55-18.22,31.55-18.22s-29.82,16.2-28.56,18.38c1.93,3.35,31.14-18.19,31.23-18L96.62,333.44c1.11,1.92,31.26-18.52,31.47-18.17.6,1-30.36,15.31-28.55,18.45,0,0,31-18,31-17.91,1.5,2.6-27.22,15.27-26,17.45,1.87,3.24,31-17.89,31-17.89,1.78,3.08-27.24,18.21-27.24,18.21,1.15,2,31.23-18,31.23-18,.47.82-27.4,18-27.4,18,.79,1.36,31.49-18.18,31.49-18.18s-28.11,16.52-27.29,18c2.08,3.61,29.69-19.69,30.79-17.78,1.5,2.59-28.8,16.85-28,18.23,1.66,2.88,31-20.56,32.12-18.54,0,0-28.46,15.15-26.71,18.18,1.39,2.4,29.75-19,30.52-17.62S126.7,333,127.21,333.88c0,0,29.1-21.74,31.24-18,0,0-26.73,15.6-25.55,17.64.56,1,29.57-19.41,30.58-17.66,1.28,2.22-26.1,17.57-26.1,17.57.35.6,30.45-17.58,30.45-17.58s-28.85,14.53-27,17.68c.86,1.49,30.43-18.43,30.8-17.78,1.11,1.93-28.78,14.86-26.84,18.22,1.05,1.83,31.57-18.23,31.57-18.23l-27.46,18c.34.59,31.22-18,31.22-18l-27.43,18.07c1.09,1.89,29.43-21.73,31.48-18.18,0,0-27.37,16.54-26.5,18.05s29.59-20.69,31.15-18c.23.41-27.5,17.18-27.17,17.75,0,0,31.28-18.29,31.38-18.12,1.67,2.89-27.1,18.52-27.1,18.52l31.1-18s-26.94,16-26.16,17.37,28.6-20.32,30.25-17.47c0,0-28.8,14.2-27,17.37,0,0,29.4-18.62,30.12-17.39,1.41,2.44-25.88,17.65-25.88,17.65,1.34,2.31,30.2-18.94,30.85-17.81,1.32,2.29-27.41,18.17-27.41,18.17.63,1.08,31.67-18.28,31.67-18.28,1.37,2.38-27.6,16.77-27,17.83.47.82,30.1-20,31.23-18,0,0-28.31,17.43-27.82,18.29,1,1.71,29.81-19.84,30.94-17.87,1.75,3-27.58,18.06-27.58,18.06,1.89,3.26,31.92-18.43,31.92-18.43,1.49,2.58-28.37,18.42-28.37,18.42L227.46,316c1.55,2.68-26.86,17.85-26.86,17.85.31.53,30-20.44,31.34-18.09,1.68,2.9-27.6,17.23-27.15,18,1.81,3.14,29.4-20.76,31-17.92,1.8,3.12-27.57,15.25-26.11,17.79,0,0,29.34-21.61,31.36-18.11,1.3,2.24-27.77,15.46-26.43,17.79.48.82,29.7-17.65,29.92-17.27S217.16,332.39,218,333.87c0,0,30.76-18.09,30.9-17.84,1.68,2.91-26.85,16.7-26.34,17.58,0,0,30.26-19.54,31.15-18,1.67,2.89-28.37,15.58-27,17.9,1.65,2.85,31.53-18.2,31.53-18.2.61,1.06-29.15,15-27.53,17.77.54.94,30.27-17.48,30.27-17.48,1.54,2.66-27,17.49-26.63,18.15,0,0,29.35-21.65,31.39-18.12.71,1.23-29,14.63-27.21,17.66s31.28-18.06,31.28-18.06-27.56,17.1-27.11,17.9c1.41,2.44,30-17.3,30-17.3.32.56-26.55,15.57-25.43,17.51,0,0,30.48-19,31.1-18,1.39,2.41-30.32,15.41-28.61,18.37.12.2,30-21.14,31.67-18.28,0,0-28.27,17.23-27.72,18.19.19.33,31.68-18.29,31.68-18.29.47.82-27.72,18-27.72,18,.44.76,30.06-20.61,31.47-18.17,1.5,2.6-27,17.91-27,17.91,1.23,2.13,30.07-18.32,30.48-17.6,1.33,2.3-28.75,15.39-27.22,18l31.45-18.16c.2.34-27.42,17.94-27.42,17.94l31-17.91c1.55,2.68-28.74,15.81-27.48,18,1.17,2,30.07-20.64,31.49-18.18.06.11-28.13,18.07-28.13,18.07,1.95,3.38,30.88-17.83,30.88-17.83s-27.43,18.12-27.43,18.12c1.92,3.33,31.23-19.6,31.91-18.42.56,1-28.59,18.75-28.59,18.75.46.79,32-18.73,32.09-18.53.41.71-27.88,16.38-26.89,18.1.8,1.39,30.65-19.58,31.47-18.17,0,0-28.53,17.21-28,18.21.33.57,30-19.15,30.82-17.79.66,1.14-26.23,17.91-26.23,17.91.26.45,30.15-20,31.26-18,.38.66-26.71,17.58-26.58,17.81,1.42,2.47,31.08-19,31.52-18.2.82,1.42-27.91,17.44-27.32,18.45,1.35,2.34,31.54-19.12,31.94-18.44l-27.2,18.47,31-17.89c.17.3-27.47,15.31-26.16,17.57S343,312.73,344.86,316L319.5,333.13s29.45-19.88,30.7-17.72c.84,1.46-28.24,16.68-27.37,18.18.66,1.15,31.35-18.1,31.35-18.1.85,1.47-27.69,16.09-26.65,17.88,0,0,29.3-19.15,30.26-17.47,1.25,2.17-26.19,17.28-26.19,17.28,1.65,2.86,29.14-19.88,30.46-17.59,1.56,2.69-25.68,17.49-25.68,17.49.67,1.16,29.91-17.45,30-17.31.61,1.06-29,14.84-27.16,18.1.11.19,32-19.38,32.38-18.69,0,0-28.82,15.39-27.36,17.92,1.7,2.94,31-17.91,31-17.91.69,1.19-27.35,18-27.35,18s28.73-20.85,30.57-17.65S351,333.74,351,333.74,381.64,315,382.09,315.8c.57,1-27.12,17.19-26.74,17.86,0,0,29.11-20.68,30.79-17.77,0,0-28.08,14.87-26.71,17.23,0,0,29.1-20.23,30.59-17.66,0,0-27.43,17.41-27.13,17.93l30.91-17.85c.68,1.17-28.31,14.89-26.44,18.13.16.28,31.43-18.15,31.43-18.15S370,331.81,370.88,333.4c1,1.82,30.32-18.38,30.7-17.72,1.92,3.33-28.6,15.42-27.09,18,.31.53,30.76-17.76,30.76-17.76.29.51-27.26,16.74-26.62,17.84,1.63,2.82,31.46-18.16,31.46-18.16s-27.18,17.29-26.64,18.21c0,0,29.24-20.91,31-17.89.21.37-25.62,17.09-25.62,17.09s29.66-18.27,30.16-17.41c1.06,1.83-27.82,18.09-27.82,18.09,1.26,2.19,30.51-19.67,31.4-18.13,1.22,2.12-28.62,15.6-27.06,18.29,0,0,29.5-17.06,29.51-17,1,1.65-26.18,14.86-25.29,16.41,0,0,24.29-14,24.29-14,.78,1.35-19.93,14-19.93,14,1,1.68,18.59-13.23,19.68-11.36.12.22-16.12,12-16.12,12,.1.17,16.06-11.49,17-9.82.78,1.34-11.4,8.52-11,9.23l11.29-6.52L418,333.37c.37.65,6.38-4.29,6.64-3.84s-2.84,3.35-2.63,3.71a29.31,29.31,0,0,0,2.69-1.55" fill="none" stroke="#000" stroke-linecap="round" stroke-linejoin="round" stroke-width="0.7"/><path d="M87.67,261.69s.77-.49.79-.45-1,2.61-1,2.67,3.48-2,3.48-2l-3.24,4.53c.47.81,8.53-5.26,8.68-5,.52.9-9.18,7.3-8.86,7.85.13.22,12.61-8,12.91-7.45.53.92-13.74,10-13.51,10.36.68,1.17,18.27-12.44,19.09-11,.17.29-18.89,11.82-18.53,12.44,1.31,2.28,19.66-13.08,20.41-11.78.62,1.07-20.37,13.37-20.25,13.58,0,0,23.49-13.88,23.63-13.64.34.6-23.94,13.61-22.89,15.43.59,1,26.46-16.28,26.89-15.53.59,1-28.76,14.48-26.88,17.75,1.53,2.65,29.72-19,30.51-17.61L92.47,279.56c1.91,3.31,30.11-18.52,30.6-17.67,1.26,2.17-27,13.91-25.23,17l30.87-17.82c1.32,2.29-29.17,16.24-28,18.2,1.65,2.85,29.23-20.33,30.72-17.74,0,0-28.88,14.68-27.15,17.68s30-18.61,30.56-17.64c1.11,1.93-26.08,17.91-26.08,17.91.58,1,30.68-18.81,31.16-18,.8,1.39-26.93,17.75-26.93,17.75s28.06-21,30.12-17.39c1.8,3.11-26.41,15.39-25.25,17.4.48.83,30.79-17.78,30.79-17.78,1.84,3.18-28.41,15.25-26.74,18.15.09.15,31-17.92,31-17.92.2.34-27.88,14.83-26.31,17.56,1.19,2.07,30.17-18.06,30.45-17.58,0,0-27.09,16-26.26,17.42.51.89,30.43-17.57,30.43-17.57,1.05,1.82-25.86,16.24-25.18,17.42,1.38,2.39,30.9-17.84,30.9-17.84,1,1.74-28.35,16.15-27.05,18.4.71,1.24,29.15-20.68,30.82-17.79.09.16-27.7,15-26.05,17.81,1,1.75,30.75-18.12,30.91-17.84.76,1.31-25.67,17.66-25.67,17.66,1.09,1.89,31.08-18.89,31.49-18.18s-28.15,15.79-26.88,18c0,0,28.33-20.69,30.21-17.44,1,1.7-26.56,17-26.09,17.84,2,3.53,30.17-18.84,30.79-17.78,1.4,2.43-27.51,17.83-27.51,17.83,1.51,2.62,31.22-18,31.22-18,.94,1.62-28.9,17-28.26,18.09l31.31-18.08c1.36,2.36-26.81,17-26.4,17.67,2,3.53,29.32-18.89,30.17-17.42.4.7-26.28,16.65-25.79,17.51.06.1,28.62-21.36,30.72-17.74.26.45-26.8,16.15-26.16,17.27.27.46,29.68-18.23,30.15-17.41,0,0-28.39,16.21-27.41,17.91S211,257.5,213.09,261.17c.32.55-27.09,17.16-26.57,18.06,2.08,3.61,30-17.7,30.19-17.43,1.95,3.37-29.4,14.44-27.51,17.7,1.71,3,32-18.45,32-18.45.31.54-27.63,18-27.59,18.11s30.49-19.67,31.38-18.12c.27.47-29.05,16.91-28,18.67,2,3.49,31.31-18.08,31.31-18.08S199,276,200.82,279.2c.85,1.47,27.84-21,30-17.3,1.86,3.23-28.69,15.13-27.31,17.52,1.78,3.08,31.65-18.27,31.65-18.27,1.75,3-26.72,18.19-26.72,18.19s30.36-18.47,30.77-17.77c0,0-29.23,16.22-28.09,18.18,0,0,31.2-18.18,31.27-18.05.48.84-27.84,16.19-26.87,17.87,0,0,30.61-20.2,31.71-18.31s-29.13,18.44-29.07,18.53c1.5,2.59,31-19,31.48-18.17.79,1.37-28.34,15.86-27.11,18,1.94,3.36,29.48-21.19,31.29-18.06,1.65,2.86-28.22,17.83-28,18.15.6,1,31.38-19.22,31.86-18.39L231,278.94c.07.13,30.42-17.56,30.42-17.56,1.85,3.2-27.79,16.72-27.28,17.6,0,0,29.24-17.73,29.61-17.1,1.44,2.49-25.58,17.43-25.53,17.52s30.21-19.87,31.26-18c1.93,3.34-27.88,17.63-27.48,18.32.57,1,30-21.31,31.74-18.33.59,1-28.16,17.23-27.47,18.42,1.51,2.62,31.46-20.38,32.42-18.72,1.81,3.13-28.66,17.38-28.23,18.12,1.84,3.19,31.21-18,31.22-18,.42.73-27.29,17.57-27,18.06s30.88-18.36,31.11-18c1.65,2.86-28.68,16.13-27.64,17.94C259,280.78,289,261.33,289,261.33c1.8,3.12-28.31,14.94-26.61,17.89,1.27,2.2,29.53-20.23,30.91-17.84l-26.76,17.79c1.34,2.32,30.37-18.29,30.7-17.72.71,1.23-29.19,14.46-27.3,17.74.31.53,30.68-17.86,30.74-17.75,1.69,2.93-27.43,16.34-26.48,18,.87,1.5,30.46-20.73,31.82-18.37,1.47,2.54-28.47,18.57-28.47,18.57.13.23,29.77-21.74,31.74-18.32,1.53,2.65-27.41,18.23-27.41,18.23s29.85-19,30.64-17.69c.41.72-27.39,17.36-27.22,17.65s30.3-20.46,31.58-18.23l-26.59,18.06c1,1.79,31.13-18.17,31.22-18,1.43,2.47-27.33,17.92-27.32,17.94.58,1,28.43-20.7,30.29-17.49L299,279c.48.82,30.29-17.49,30.29-17.49,1.47,2.54-26.77,17.34-26.48,17.86,2.11,3.66,30.93-18.06,31-17.91l-28.24,18.31c.47.82,31.69-18.3,31.69-18.3L310.68,279.2c2.12,3.67,30.85-17.81,30.85-17.81.31.54-29.27,14.31-27.38,17.57,0,0,30-17.33,30-17.3s-26.59,17.61-26.44,17.87c.28.48,29.87-20.13,31.12-18L321.9,279.45c1.41,2.44,28.61-21.43,30.74-17.75.06.11-27.81,17.24-27.47,17.81,0,0,29.84-20.81,31.39-18.12,1.22,2.12-28.52,16.35-27.55,18,.31.53,30.55-18.34,30.85-17.81.67,1.16-27.1,18.08-27.1,18.08.83,1.44,32-18.48,32-18.48.36.63-27.78,16.21-26.61,18.24.32.56,30.39-17.54,30.39-17.54s-26.55,15.79-25.83,17c0,0,30.28-18.6,30.77-17.76,0,0-28.81,18-28.59,18.39,1.59,2.76,30-20.58,31.45-18.16.48.84-28.19,15.73-26.89,18l30.48-17.6c1.19,2.06-27,14.32-25.3,17.29,0,0,28.67-20,30.18-17.42,0,0-27.94,17.28-27.68,17.74,2.06,3.56,29.35-21,31.09-18s-29.63,15.52-28,18.32,30.6-19.27,31.29-18.07c1.31,2.26-26.71,15.89-25.75,17.54.31.54,30.63-19.64,31.48-18.17,0,0-29.21,15.73-27.61,18.5,0,0,29-20.59,30.65-17.69,1.56,2.7-26.73,15.68-25.93,17.07,1.36,2.36,28.78-19.49,30-17.34,0,0-28.07,15.55-26.62,18,0,0,28.72-21.38,30.8-17.78,1,1.73-27.4,15.19-26.18,17.3,0,0,30.5-18,30.69-17.72,1,1.74-27.8,15.65-26.52,17.87.27.46,29.45-19.55,30.55-17.64,1.23,2.13-26.13,16.84-25.79,17.43l30.26-17.47c.9,1.56-27.23,15.21-25.82,17.65.94,1.63,28.24-18.34,29.12-16.81S399.27,278.31,400,279.65c1.4,2.43,24.83-14.34,24.83-14.34.86,1.49-20.93,12.39-19.85,14.27.23.4,17.77-12.45,18.72-10.81L409,279.51c.36.62,15.35-8.86,15.35-8.86.12.21-10.33,8.18-10,8.67,0,.07,10.59-6.58,10.79-6.23,0,0-5.83,5.32-5.46,6,.22.38,4.65-3.08,4.82-2.78s-2.24,3.32-2.24,3.32,2.55-1.74,2.66-1.54" fill="none" stroke="#000" stroke-linecap="round" stroke-linejoin="round" stroke-width="0.7"/><path d="M150.38,68.82c1.74,3,32.31-24,34.64-20,1.09,1.89-27.28,16-26.57,17.21,1.2,2.07,27.69-18.32,28.7-16.57,0,0-23.39,15-22.94,15.82,1.77,3.06,26.1-15.07,26.1-15.07.63,1.09-22.28,11.93-20.79,14.51,1.62,2.81,21.72-15.87,23.16-13.37.63,1.1-21.28,12.9-20.78,13.76.68,1.18,21.83-15.87,23.25-13.42,0,.06-19.77,12.67-19.31,13.46,1.32,2.29,22-13.67,22.44-13,1.13,2-18.88,12.75-18.45,13.5,1,1.79,19.56-13.25,20.41-11.78.59,1-17.25,11.91-17.25,11.91,1.35,2.34,18.75-11,18.81-10.86L184.69,66.82c1.11,1.92,18.07-13,19.19-11.08.21.37-17.34,11.71-17.24,11.88,1.14,2,18.59-12,19.13-11,.23.39-17.31,10.61-16.48,12s18-12.58,18.93-10.93c0,0-16.44,10.88-16.15,11.39s17.12-10,17.16-9.91c.54.94-15.28,11.52-15.28,11.52.9,1.56,17-12,18-10.37.33.57-16.52,11.6-16.52,11.6s16.53-10.83,17.08-9.86-14.43,10.54-14.43,10.54c.43.74,15.13-10.83,16-9.26s-15.61,9.2-14.7,10.78,15.62-10.53,16.28-9.4L200.61,75.63c.72,1.25,16.28-10.52,16.76-9.68S201.79,75,202.62,76.45c.52.9,15.51-9,15.51-9,.41.7-14.65,9.47-14,10.61.75,1.31,16.1-9.3,16.1-9.3S205,79.05,205.12,79.26c0,0,15.73-9.7,16-9.24s-14.08,9.46-13.82,9.9c.55,1,13.79-9.33,14.38-8.3.33.58-15.35,9.17-14.48,10.67.58,1,15.65-9,15.65-9,.23.4-13.18,9.39-13.18,9.39.56,1,13.67-9.48,14.35-8.29.84,1.45-14.23,10.94-14.2,11,.79,1.36,16.33-10.56,16.82-9.71,0,0-16.4,9.56-15.5,11.12.06.1,15.09-11.07,16.12-9.3.18.32-16.34,9.57-15.4,11.19,0,0,15.37-9.54,15.66-9,.83,1.45-14.09,9.67-13.62,10.5l15.68-9.05c.62,1.07-14.93,9.17-14.31,10.25.84,1.45,14.35-10.36,15.24-8.8.69,1.19-16,10.74-15.86,11l15.6-9c.42.73-14.83,11.09-14.83,11.09.37.65,16.14-9.59,16.25-9.38.63,1.09-15.1,11.36-15.1,11.36.33.57,15.13-9.57,15.49-8.94,1.11,1.91-16,9.19-15.16,10.7.34.59,16-10.31,16.47-9.51,0,0-14.72,10.36-14.43,10.87,0,.07,13.5-9.74,14.34-8.28.46.79-13.73,10.06-13.73,10.06.86,1.49,14.81-9.32,15.15-8.74C235.51,95.07,220,105,220,105c1.11,1.93,15.8-9.12,15.8-9.12.7,1.21-17.47,11-16.75,12.28,0,0,15.29-10.73,16.11-9.3,0,0-15,10.58-14.82,10.87s15.23-10.47,16-9.21c1.09,1.89-16.37,10-15.71,11.11.17.3,15.18-11.31,16.28-9.4,0,0-16.7,11-16.27,11.76,0,0,16.63-10.84,17.17-9.91,0,0-17.54,11.44-17.17,12.09.55.95,15.65-11.6,16.76-9.68s-17.84,9.77-16.69,11.78c.12.21,16.76-10.77,17.24-10,0,0-20.14,10.77-18.79,13.12.92,1.6,18.5-10.68,18.5-10.68,1.05,1.82-19,11.21-17.91,13.11,0,0,17.44-12.24,18.38-10.61.81,1.41-20.58,14.12-20.39,14.45,0,0,20.47-12.06,20.58-11.88,0,0-20.74,13-20.26,13.78,1.22,2.12,19-13.32,20-11.56,0,0-22.63,13.73-21.85,15.07.54.94,21.32-12.31,21.32-12.31,1.55,2.68-22.75,15.17-22.48,15.64,0,0,21-13.55,21.59-12.47s-23.6,15.56-23.45,15.83,22.34-15.2,23.34-13.47c0,0-27.15,13.59-25.47,16.49.57,1,23.92-16.11,24.92-14.38,1.43,2.47-29.22,19.57-29.2,19.62.37.64,28.61-18.51,29.47-17,.24.42-33.27,21.19-33.27,21.19,1.48,2.56,31.82-18.94,32.07-18.52" fill="none" stroke="#000" stroke-linecap="round" stroke-linejoin="round" stroke-width="0.7"/><path d="M125.53,178.24c1.77,3.06,29.15-16.83,29.15-16.83s-20.56,12.78-19.75,14.18c1.47,2.55,22.12-12.77,22.12-12.77s-17,10.74-16.33,11.93c0,0,18-12.87,19.06-11,.11.2-17.45,11.83-17.22,12.22.72,1.24,21.54-12.73,21.67-12.51.47.82-20.75,12.59-20.1,13.72.49.84,21.85-12.62,21.85-12.62s-19.33,12.81-18.8,13.73c1.43,2.48,24.67-14.38,24.73-14.28s-22.5,13.63-21.62,15.15C151,180.41,177,163.74,177,163.74c1.23,2.13-23.28,15.18-22.8,16,.73,1.26,30.08-17.37,30.08-17.37l-28.34,18.1c5.22,9,79.53-45.92,79.53-45.92,2,3.52-79.05,42.29-76.51,46.69,4.51,7.81,71.47-48.45,74.58-43.06,0,0-72.15,40.1-70.36,43.21.5.87,66.32-43,68.37-39.47.26.45-66.18,40.32-66.18,40.32,4.38,7.58,62.76-43.61,66-38.08,4.26,7.38-62.08,38.08-62.08,38.08,2.86,5,60.13-34.72,60.13-34.72l-56,34.75s50.54-35.39,53.23-30.73c2.56,4.44-47.61,29.7-47.61,29.7s43.83-29.8,45.77-26.43c2.39,4.14-42.54,26.33-42.54,26.33.18.31,39.39-22.74,39.39-22.74s-31.86,18.88-30.83,20.66l32.87-19c1.27,2.2-21.78,12.91-20.74,14.72.61,1.05,22.55-13,22.55-13s-19.77,11.64-18.65,13.57c0,0,22-13.2,22.2-12.81,1,1.65-18.63,12.49-18.63,12.49.11.19,18.09-13,19.22-11.09.21.37-16.51,11.74-16.51,11.74.9,1.56,17.89-11.27,18.3-10.57.66,1.14-16.7,9.52-15.84,11s18.73-10.81,18.73-10.81c.09.16-17.3,11.88-17.3,11.88.68,1.18,18.44-10.64,18.44-10.64s-17.09,9.81-16.21,11.33c.43.74,17.81-10.38,17.85-10.31.41.71-15.74,11.81-15.74,11.81.59,1,16.65-10.39,17-9.8,1,1.72-14.25,10.06-13.9,10.67,0,.06,14.6-10.31,15.42-8.9,0,0-15.37,9.68-14.7,10.84l16.42-9.48c.48.83-15.16,9.08-14.13,10.86.69,1.19,16.48-9.51,16.48-9.51,1,1.79-14.38,10.47-14.38,10.47.74,1.27,14.82-8.7,14.88-8.59.67,1.16-15.3,9.42-14.8,10.28.62,1.08,16.46-9.5,16.46-9.5s-14.25,9.43-13.89,10c.16.28,14.76-8.52,14.76-8.52.52.89-14.22,10.54-14.22,10.54,1.06,1.84,14-10,14.8-8.54.23.4-14.56,8.36-13.63,10,.65,1.13,14.49-8.94,14.74-8.51.77,1.33-15.11,8.65-14.18,10.27.3.52,14.94-9.09,15.14-8.74,0,0-14.09,8.5-13.37,9.75l14.5-8.37S236.41,194.66,236.63,195c.42.73,15.65-10.2,16.15-9.33,0,0-16.9,10.07-15.78,12,.93,1.61,16.83-9.72,16.83-9.72,1.18,2-16.09,11.53-16,11.7.5.87,16-10.2,16.44-9.49,0,0-15.48,11.32-15.31,11.62s15-10.92,16-9.23c.84,1.46-15.87,10.91-15.76,11.1l15.65-9c.05.09-15.07,9.91-14.49,10.91.94,1.62,15.77-10.52,16.38-9.46,1,1.75-17.68,12.39-17.67,12.42.66,1.15,16.83-10.67,17.24-10,.91,1.58-16.55,11.36-16.27,11.83.75,1.3,16.89-9.75,16.89-9.75s-18.24,11.13-17.67,12.12c1.11,1.92,18.18-11.27,18.51-10.69,0,0-18.42,11.76-17.91,12.65.78,1.36,17.24-10,17.24-10,.34.58-19.17,10.33-17.93,12.48,1,1.72,17-11.76,17.86-10.31,1.14,2-16.89,12.24-16.72,12.52,1,1.73,17.4-10.09,17.42-10.06.68,1.17-17.17,11.94-17.17,11.94.93,1.61,16.24-11.54,17.18-9.92,0,0-17.69,11.12-17.32,11.75l17.13-9.89-17.66,12.09c.29.51,17.4-12.25,18.36-10.6S239.72,225.61,240.53,227c1.08,1.87,16.05-10.7,16.67-9.62,0,0-18,11.53-17.71,12,.78,1.35,18.32-11.18,18.58-10.73.71,1.24-16.58,10.15-15.79,11.52.67,1.16,15-8.65,15-8.65.66,1.15-9.52,7.76-9.26,8.22,0,0,9.1-6,9.42-5.44,0,0-5.8,5.84-5.69,6s5.18-3.5,5.4-3.12-.64,2.72-.47,3a16.45,16.45,0,0,1,1.6-.93" fill="none" stroke="#000" stroke-linecap="round" stroke-linejoin="round" stroke-width="0.7"/><path d="M133,58.18s6.91-4,6.93-4c.21.36-18.55,11.05-17.6,12.7,0,.09,29.76-18.76,30.45-17.58,2.25,3.91-37,18.84-34.88,22.56.18.31,41.08-26.13,42.12-24.32,0,0-46.93,23.93-44.68,27.84,0,0,47.28-32.3,49.44-28.55.84,1.45-54.5,29.16-52.43,32.74.78,1.35,56.7-33,56.81-32.8,0,0-60.7,33.15-58.89,36.28,3.62,6.28,62.85-36.29,62.85-36.29,1.32,2.28-68,33.43-64.38,39.66.27.46,65.88-41.31,67.29-38.85,0,0-72,35.49-68.22,42l72.44-41.82C184.08,54.27,106.47,93,106.47,93S181,44,183.62,48.43c3.22,5.57-82.9,38.84-78.14,47.07,1.94,3.36,30-21.39,31.74-18.32,1.21,2.1-33,21.44-32.91,21.64,1.61,2.8,26.7-15.8,26.86-15.51.82,1.42-28.87,14.64-27.05,17.78.7,1.21,25.35-14.81,25.42-14.68.27.47-26.61,16.21-26.21,16.91,1,1.79,22.75-14.82,23.48-13.56,1.7,2.95-24.07,16.7-24.07,16.7,1.23,2.12,20.38-15.22,21.88-12.63s-22.19,15-22.19,15C103,109.8,124,94.94,124.67,96c1.14,2-22.07,15.14-22.07,15.14.91,1.57,19-13,19.84-11.46.32.55-21.53,11.64-20.17,14,.68,1.18,18.78-11.85,19.22-11.1,0,0-19.44,11.65-18.6,13.1.38.65,17-12.12,18-10.37.45.77-18.75,9.83-17.49,12,.3.53,18-11.31,18.39-10.62.16.27-20.66,10.69-19.37,12.92.57,1,18.72-10.87,18.75-10.82s-19.28,11.26-18.26,13,18.38-10.81,18.47-10.66c1.09,1.89-18.64,11.28-17.76,12.8s17.3-10,17.3-10l-16.55,11.56c.65,1.13,15.31-9.39,15.55-9,.6,1-15.21,10.79-15.08,11,0,0,14.82-11.1,15.92-9.19S103.57,129,104.22,130.07c1.06,1.84,16.08-11.77,17.15-9.9.46.8-16.23,11.2-16.23,11.2.4.69,16.65-9.61,16.65-9.61.2.34-17.23,9.92-16.32,11.49,0,0,15.22-11.06,16.21-9.36.36.63-15.39,11.15-15.39,11.15.49.86,14.92-9.6,15.35-8.86,0,0-15.19,11.29-15.19,11.29.36.62,15-9.35,15.32-8.85,1,1.66-15.07,10.8-15.07,10.8.87,1.5,16.5-9.53,16.5-9.53.4.69-15.7,9.26-14.67,11,0,0,15.08-9.62,15.47-8.93,0,0-14.82,10.07-14.3,11,.36.62,14.91-8.61,14.91-8.61.58,1-15.25,11-15,11.47l15.46-8.93s-14.68,8.93-14,10.11c0,0,15.49-9.13,15.57-9,.59,1-14.43,10.29-14.24,10.61l15.43-8.91c.41.71-14.19,10.21-14.19,10.21s15.2-9.29,15.42-8.9c.11.19-15.48,10.25-15.06,11,.22.39,14.8-10.12,15.48-8.94,0,0-15.46,8.42-14.49,10.11.84,1.46,16-9.23,16-9.23s-15.45,11-15.45,11c.24.41,15.5-8.95,15.5-8.95.33.57-14.94,10.45-14.94,10.45.75,1.29,16.6-10.6,17-9.84s-14.74,10-14.62,10.22c.25.43,14-9.86,14.79-8.54.3.52-13.9,9.33-13.52,10s14-10.05,14.86-8.58S119,158.44,120,160.24c.17.3,15.77-10.1,16.2-9.35,1.83,3.18-35.08,18.37-33.26,21.52,1.69,2.93,33-21.72,34.19-19.74.22.38-39.9,22.69-38.65,24.85s40.34-26.58,41.76-24.11c2,3.52-43.43,26.36-43.21,26.75,0,0,44.3-26.38,44.65-25.78,3,5.13-48,28.88-47.69,29.45C95.38,186.25,140,150,143.2,155.43c2.33,4-53.35,25.13-50.13,30.7.38.66,48-35.15,51.23-29.58.82,1.42-53,33.48-53,33.48,2.28,3.94,53.9-34.41,55.32-31.94,1,1.77-55.57,34.26-55.57,34.26,1.15,2,57.82-33.38,57.82-33.38S90.4,194.63,90.43,194.69s56.69-41.41,60.45-34.9c.4.68-61.06,37.3-61.06,37.3,2.86,5,60-41.32,62.88-36.3l-64,39.39s29-17.67,29.4-17c0,0-29.65,19.62-29.55,19.8s21.78-15.15,22.89-13.22c0,0-23,15.19-22.92,15.41,0,0,19.87-13.41,20.71-12,.17.3-22.42,12-21.18,14.11.28.48,20.13-13.59,21-12.11.55,1-22.08,15.54-22.08,15.54.39.67,19.34-12.78,20-11.57,0,.08-21,11-19.62,13.47,0,0,18.26-13.23,19.43-11.22.61,1.06-20.06,10.74-18.86,12.82,1,1.77,17.4-11.1,17.85-10.31,1,1.69-19.28,12-18.61,13.2C88,218.5,106,206.28,106,206.28s-19.53,11.07-18.2,13.38c.64,1.11,16.24-11.82,17.3-10,0,0-18.53,11.21-18,12.13.75,1.3,16.8-12.23,17.9-10.33S87.13,224,87.19,224.08c.4.69,16.65-12.18,17.76-10.25.13.22-17.38,11-16.75,12.08.74,1.28,17.26-10,17.26-10,.46.8-17.86,11-17.29,12,0,0,17.79-10.49,17.89-10.33.76,1.31-17.73,10.33-16.53,12.4,1,1.77,15.21-10.28,15.86-9.15.34.58-12,9.24-12,9.24.31.53,11.17-7.16,11.48-6.63.08.14-7.16,6.23-6.93,6.62.5.87,8-4.86,8.1-4.68.2.34-5,4.67-4.93,4.87.26.44,5-2.89,5-2.87s-1.19,2.34-1.14,2.43.12-.15.16-.09" fill="none" stroke="#000" stroke-linecap="round" stroke-linejoin="round" stroke-width="0.7"/><path d="M324.36,31.46s16.45-10.13,16.72-9.65c.67,1.16-15.51,9-14.53,10.68.46.79,14.53-10.71,15.53-9C342.94,25,327,34.58,327,34.58c.3.52,16.65-9.61,16.65-9.61.83,1.44-14.49,10.18-14.49,10.18.94,1.63,16.08-9.28,16.08-9.28.14.24-15.38,10-14.64,11.28.09.16,15.38-9.55,15.67-9,0,0-14.8,10.16-14.27,11.08.91,1.58,15.6-11.29,16.59-9.58.76,1.32-14.83,10.87-14.83,10.87s15-10.77,15.93-9.2l-14,10.39c.42.73,14.82-10.67,15.74-9.09.45.78-14.18,10.58-14.18,10.58s15-11.13,16.07-9.28c.87,1.51-14.62,11-14.62,11,.95,1.65,15.16-11.25,16.24-9.38,0,0-14.31,11-14.31,11,.3.53,15.09-8.71,15.09-8.71.79,1.37-14.06,8.91-13.45,10,0,0,15.38-10.72,16.18-9.34S342.24,49,342.75,49.89c.63,1.1,15.94-11.65,17-9.81C360.5,41.38,344,51.2,344,51.2c.6,1,15.94-9.2,15.94-9.2L345.78,52.38s15.66-9.7,15.95-9.21c.67,1.16-15,10.22-14.86,10.45l15.86-9.15c.45.78-14.79,10.25-14.73,10.36s15.4-11.3,16.44-9.49c.24.42-15.15,9.37-14.57,10.38.22.39,14.62-9.84,15.23-8.79L351.2,57.15c.76,1.32,14.84-9.8,15.38-8.88.88,1.53-14.88,8.75-14.2,9.93.94,1.63,15-10.17,15.68-9.05,0,0-15.08,10.59-14.69,11.27l17.33-10s-16.17,9.84-15.49,11C356,62.88,371.6,52,371.6,52l-15,10.78c.64,1.11,15.49-10.61,16.21-9.36,0,0-15.37,9.43-14.47,11,1,1.78,15.28-10.19,15.87-9.16.19.32-14.26,10.91-14.26,10.91s15.88-9.9,16.2-9.35c0,0-15.32,9.29-14.57,10.59s16.28-10,16.55-9.56c.59,1-17.11,9.21-16,11,0,.07,15.25-10.74,16.09-9.29.2.35-15.29,9.71-14.89,10.41.32.55,15.25-10.94,16.18-9.34.39.67-13.94,8.63-12.95,10.35,0,0,15.56-10.2,16.09-9.29,0,0-16.43,10.39-15.76,11.56l16.92-9.77c1,1.79-15.33,10.32-15.12,10.69l16.78-9.69c.94,1.63-17.08,9.13-15.92,11.13,0,0,16.93-10.2,17.12-9.88.88,1.53-15.78,9.27-14.82,10.94.48.83,14.72-9.72,15.25-8.8,0,0-14.34,9.25-13.91,10,.67,1.16,15.09-8.71,15.09-8.71s-14.64,8.9-13.65,10.62l15.47-8.93c1,1.78-14.8,9.44-13.94,10.93.44.77,16.94-9.78,16.94-9.78.28.48-14.39,11.17-14.39,11.17,1,1.72,14.82-8.56,14.82-8.56s-13.73,9.12-13.3,9.86c0,0,14.12-9.59,14.74-8.51.14.25-13,10-13,10,.4.69,15.53-10,16-9.22L383.12,88c.16.27,15.2-10.88,16.11-9.3S385,89.14,385,89.14C386,91,399.74,78.4,400.7,80.06c0,0-15.23,9.11-14.45,10.47.27.46,15.32-8.84,15.32-8.84.7,1.21-14.27,9.15-13.91,9.78,0,0,14.11-10.44,15.1-8.72.24.42-14.62,11.16-14.62,11.16.55.95,15.33-10.61,16.09-9.29.23.4-13.55,9.4-13,10.29.2.35,15.34-8.86,15.34-8.86s-14.85,9.88-14.28,10.87c.41.71,15.28-11.07,16.25-9.38s-15.32,10.81-15.24,10.93,15.52-10.4,16.14-9.32c.81,1.41-14.46,9.42-13.78,10.6.89,1.54,14.93-8.62,14.93-8.62.43.75-13.22,9.62-12.85,10.26.08.13,15-11.07,16-9.25.83,1.43-16.51,9.48-15.42,11.37.37.65,16.9-10,17-9.82.66,1.15-16.92,9.78-16.07,11.25l16.94-9.78c.27.47-15.34,8.89-14.37,10.57.75,1.3,16.09-9.29,16.09-9.29.13.22-14.36,10.36-14.2,10.66.72,1.24,15.12-10.42,15.85-9.15.09.16-14.25,10.83-14.25,10.83.61,1.06,13.68-10.17,14.66-8.46l-13,10.26s14.5-9.72,15.09-8.71c.87,1.5-15.33,9.27-14.56,10.6s16.56-10.81,17.1-9.87l-16.28,11.16c.52.9,16.19-10.8,16.82-9.71L410.6,114.28s16-9.52,16.15-9.33-15,10-14.69,10.54c1,1.75,15.26-8.86,15.28-8.82.28.49-14.4,10.35-14.17,10.74.83,1.43,16.11-9.79,16.33-9.43.68,1.18-16,9.38-15,11.25.69,1.19,15.81-9.83,16.11-9.3.41.71-15.67,9.63-15.12,10.57,1,1.79,16.39-11.33,17.2-9.93.28.48-16.73,9.81-15.57,11.81,0,0,16.85-10.79,17.31-10,.17.29-16.29,9.58-15.49,11,.52.9,16.91-9.76,16.91-9.76.5.87-16.35,9.94-15.51,11.39.31.53,15.35-10.26,16-9.21.51.88-15.08,10.49-15.08,10.49s15.66-10.55,16.31-9.42c0,0-14.64,9.41-14.06,10.4.8,1.38,16.28-9.81,16.46-9.5,0,0-15.66,11-15.63,11.1,1,1.8,15.74-10.3,16.26-9.39s-13.94,10-13.94,10c.35.6,14.91-10.92,15.91-9.19,0,0-14.55,10-14.07,10.83.76,1.32,15.41-9.86,15.82-9.14,0,0-15,9.78-14.48,10.73s14.5-10.15,15.27-8.82-15.07,10-14.77,10.55c.19.33,16-10.09,16.36-9.44,0,0-16.13,9.87-15.55,10.88L448,126.17c.11.19-14.79,10.13-14.26,11L450,127.8c.77,1.34-14.06,10.67-14.06,10.67,1,1.77,15.48-10,15.92-9.19s-15,10.16-14.43,11.07,15-8.69,15-8.69c.6,1-13.73,9-13,10.3l14.76-8.52c.82,1.42-14.83,10.48-14.82,10.49.47.82,16-10.87,16.72-9.66.91,1.58-16.16,9.43-15.24,11,.65,1.12,16.47-10.84,17-9.84.25.43-14.84,9.69-14.41,10.43,0,0,14.16-10.7,15.26-8.81.46.8-14.66,10.81-14.66,10.81,1,1.71,16.32-9.42,16.32-9.42s-16.12,9.15-15.23,10.69,16.12-9.31,16.12-9.31c.84,1.46-13.61,10.34-13.61,10.34.53.91,15.27-9.63,15.62-9l-13.87,10.29c.78,1.35,15.43-8.91,15.43-8.91s-15.24,9.22-14.62,10.3,14.87-10.8,15.83-9.14c.26.45-14.16,10.22-14,10.47.25.43,14.92-8.62,14.92-8.62.85,1.47-14.39,10.19-14,10.87.94,1.62,15.19-10.29,15.85-9.15" fill="none" stroke="#000" stroke-linecap="round" stroke-linejoin="round" stroke-width="0.7"/><path d="M46,18.52c.26.44,29.06-19.05,30-17.35L48.55,19.12c1.71,3,31.2-18.76,31.53-18.2C81.28,3,53.13,18.19,53.36,18.59,54.38,20.35,81.52-2,83.42,1.24c.84,1.46-26,15.85-25.19,17.29S88-.64,88.85.85c.05.09-29,15.21-27.45,17.88,0,0,30.19-19.88,31.25-18,1.9,3.3-29.13,16.53-28,18.43,1.7,2.94,29.88-20.44,31.26-18L68.59,18.95c1.53,2.65,31.22-18,31.22-18,.39.67-28.18,16.38-27.34,17.82,0,0,29.38-20.1,30.74-17.75.24.41-26.81,17.63-26.81,17.63S106,1,106.24,1.39c0,0-27.21,16.26-26.58,17.34,1.81,3.13,30.44-17.57,30.44-17.57,1.62,2.8-27.93,15.53-26.48,18,0,0,29.26-20.61,30.87-17.82,0,0-27.48,16.83-26.92,17.8,1.29,2.24,30.59-17.94,30.71-17.73,0,0-28.71,15.61-27.42,17.85C91.94,21.17,122,.71,122.24,1.17,122.9,2.3,95,19.29,95,19.29c.59,1,31.91-19.21,32.25-18.62L99.62,18.85c.8,1.38,30.79-18.17,31-17.88,1,1.79-27.83,17.06-27.18,18.19C104.46,21,132.6-1.12,134.08,1.45c1.18,2-27.26,15.94-26.26,17.68C108.62,20.51,139.1,0,139.57.79c1.13,2-27.31,16.42-26.4,18,.24.41,29.31-18.48,30-17.31S116.81,19,116.86,19.11s29.58-20.25,31-17.87c.5.87-29.13,16.7-28.33,18.09L151.86.63,124,18.65s29-21.33,31-17.88c0,.06-28.12,16.59-27.07,18.41,1.74,3,29.37-21.48,31.33-18.09,1.72,3-26.39,17.45-26.39,17.45,1.26,2.19,31-17.87,31-17.87.58,1-28.25,17.21-27.86,17.89,1.17,2,29.43-17.57,29.68-17.14C167,3.95,138.19,18.07,138.73,19c1,1.8,28.3-21,30.33-17.51,1.17,2-26.43,16.88-26,17.56,0,0,30-20.71,31.45-18.16C176.1,3.74,148,18.83,148,18.83,148.12,19,177.5-1.31,178.85,1c.11.19-28,15.41-26.6,17.89.25.43,31.63-18.26,31.63-18.26C185.41,3.31,154.35,15.87,156,18.8,158.12,22.41,186-1.83,187.42.68c0,.05-27.1,18.47-27.1,18.47S190-2.89,192.1.81c.33.58-28.87,15.63-27.34,18.29,0,0,30-19.29,30.85-17.81.57,1-26.57,16.9-26.24,17.47.77,1.33,29.34-19.52,30.46-17.59,0,0-27.94,17.24-27.57,17.87l30.8-17.78c.52.9-28.31,17.37-27.92,18,.21.36,31.92-18.43,31.92-18.43.79,1.37-28.75,16.69-28,18.07l31.24-18c.41.71-27.06,16.28-26.22,17.73L215.21.7c.83,1.44-29.34,16.38-28.11,18.51.52.9,30.15-20.56,31.52-18.2L191.72,19.15c.19.33,30.85-17.81,30.85-17.81.46.8-26.78,14.65-25.2,17.4C198.43,20.57,226.32-2,228.08,1c1.52,2.63-28.58,15.4-27,18.2,2,3.42,31.16-18,31.16-18S205.47,16.61,206.61,18.6c.77,1.34,31.14-18,31.14-18C239.09,2.94,210,18.71,210,18.71c.16.28,29.64-18.58,30.27-17.48,1.22,2.11-25.84,17.48-25.84,17.48C215.55,20.63,244.56,1,244.69,1.25c0,0-27.74,17.65-27.6,17.9.59,1,29.18-21.21,31.07-17.94.75,1.3-28.18,15.52-27.06,17.46,0,0,29.33-18.34,29.94-17.29.29.5-28.47,14.35-26.56,17.64,1.73,3,30.4-19.07,31.06-17.93,1.57,2.71-26.63,17.58-26.57,17.68C231,22.37,259.81.15,260.17.76c1.8,3.12-28.57,17-27.77,18.41.34.58,31.07-17.94,31.07-17.94,1.23,2.12-25.77,17.69-25.77,17.69,1.86,3.23,30-18.21,30.39-17.55,0,0-26.79,14.76-25.3,17.35.82,1.43,30.34-19.66,31.27-18.05,0,0-28.88,18.15-28.66,18.52.45.79,30.47-19.32,31.22-18S249.23,17,250.33,18.85C251.81,21.42,281.18-.08,281.66.76c1.07,1.86-28.57,16.39-27.44,18.33L285.7.92c.65,1.13-27.57,15-26.12,17.55C261.68,22.12,290.34.72,290.34.72s-27.34,18-27.34,18S292.18-.59,293.24,1.25c.29.5-26.92,15.41-25.78,17.38,0,0,30.41-19.42,31.22-18,1,1.7-27.6,17.83-27.6,17.83,1.39,2.41,29-19.81,30.36-17.53,0,0-27.69,17.46-27.17,18.35,1.91,3.31,30.65-20.88,32-18.49l-27,17.76L309.17,1.28,283.58,18.71C285.42,21.9,312.72-1.52,314.2,1c.24.42-28.06,14.45-26.28,17.52,1.54,2.66,30-17.29,30-17.29,1.87,3.24-29,16-27.84,18,0,0,28.62-19.16,29.76-17.18,1.79,3.11-26,14.72-24.93,16.55,1.55,2.69,26.23-15.14,26.23-15.14.31.53-22.78,12.68-21.36,15.14.55,1,21.26-16,22.88-13.21.73,1.27-20.2,13.4-20.2,13.4C303.52,20.77,324,6.37,324,6.37c.41.71-18.75,12-18.45,12.53.16.28,19.68-13.23,20.49-11.83.49.84-19.55,13.43-19.5,13.52L326.76,8.91c1,1.65-21.1,11.55-19.66,14S327.91,8.31,329,10.28c.62,1.07-23.58,13.39-22.63,15,0,0,23-14.86,23.68-13.67,1,1.69-25.29,14.63-24.23,16.47,1.31,2.27,25-15.13,25.28-14.6,1.65,2.85-25.52,16.91-25.24,17.4,1.2,2.07,26.74-16.56,27.22-15.72,1,1.79-26.89,17.52-26.89,17.52,1.13,2,26.87-18.63,28.22-16.29,2,3.51-30,15.66-28.08,19C307.86,38,334.5,14.63,336.47,18,338,20.74,306.69,37.6,306.91,38c0,0,29.35-21.86,31.48-18.18,0,0-33.45,18.9-32.05,21.32,2,3.38,33.73-21.18,34.47-19.9,1.18,2-34.68,22.71-34.68,22.71.46.79,18.81-11.11,18.92-10.92.29.5-18.92,13.41-18.84,13.55,1,1.67,18.16-11.29,18.51-10.69,0,0-19.59,10.37-18.43,12.38.61,1.06,18.55-10.78,18.58-10.73l-18,12.27c.08.14,17.24-10,17.24-10,.11.18-17.57,11.78-17.49,11.93.53.91,17.37-11.22,17.89-10.33,0,0-18.58,12.75-18.35,13.15.14.24,16.44-11.86,17.46-10.08.81,1.4-16.68,12-16.68,12,1,1.7,17.05-11.19,17.64-10.18,0,0-19.24,11.86-18.38,13.36.69,1.2,17.09-11.58,17.83-10.29,0,0-17.87,12.41-17.57,12.94,0,0,17-11.41,17.66-10.2,0,0-18.79,11.13-18.07,12.37L324.3,54c.25.44-18.22,12.57-18.13,12.73,0,0,18.5-10.71,18.51-10.69,1.1,1.9-17.69,12.13-17.69,12.13.42.73,16.17-10.94,16.87-9.74s-18,10.62-17.14,12.1c.35.61,16.48-11.95,17.53-10.12.56,1-17.61,13-17.61,13,.49.85,17.06-10.71,17.43-10.06.8,1.38-18.17,10.37-17,12.38,1,1.65,17.53-10.12,17.53-10.12.47.81-18.38,12-18,12.71,1,1.65,16.5-10.88,17.09-9.87l-17.79,12.4c.2.35,16.8-12.24,17.9-10.33l-17,11.63c.8,1.39,17.5-10.74,17.78-10.26,0,0-18.23,11.82-18,12.24.38.66,16.91-10.39,17.18-9.92,0,0-17.32,11.53-16.77,12.49s16.75-12.24,17.86-10.31c.87,1.51-19,11-17.81,13.1.66,1.14,15.61-11.25,16.58-9.57.76,1.31-17.42,11.78-17.31,12,.9,1.55,17.65-11.67,18.29-10.56.16.28-18.87,13.14-18.8,13.26s19-11.18,19.09-11c1.16,2-19,10.88-18.09,12.49S324,86.09,324,86.09c.15.26-17.76,12.29-17.7,12.39.36.63,18.35-10.59,18.35-10.59,1.19,2.05-18.67,13.57-18.67,13.57.88,1.53,18.15-12.5,19-11,1.07,1.86-18.53,13-18.53,13,.14.25,18-11.59,18.49-10.68.91,1.57-19,13.43-19,13.43.81,1.4,17.16-12.71,18.37-10.61,0,0-19.24,11.8-18.46,13.14.93,1.61,18.46-10.66,18.46-10.66,1,1.76-18,10.67-17.27,12,1.09,1.88,16.12-11.82,17.21-9.94,0,0-17.94,10.88-17.38,11.86,1.11,1.93,17.59-11,18-10.38,0,0-18.46,10.56-17.66,11.94,0,0,17.15-11.36,17.78-10.27l-18.05,12.39c.8,1.38,17.27-10.49,17.49-10.1,0,0-17.68,12.68-17.52,13C307.71,120,325.08,108,325.08,108S306,120.41,306.54,121.41c0,0,17.09-10.25,17.26-10,1.07,1.86-17.49,12.66-17.49,12.66.64,1.11,18.4-11.57,18.81-10.86L306,126c.22.38,17.88-12.67,18.9-10.91l-18.44,12.49c.89,1.55,16.79-12.46,18-10.38.4.7-18.26,12.6-18.26,12.6s18.45-10.73,18.48-10.67c1.22,2.12-18.19,12.47-17.84,13.08s17.07-11.62,17.84-10.3c0,0-18.86,10.6-17.73,12.57,1.23,2.14,16.15-10.83,16.8-9.7.5.87-18.57,11.21-17.73,12.67,0,0,18-12.24,18.81-10.86,0,0-18.87,11.66-18,13.09,1.06,1.83,17.34-11.26,17.88-10.32L306,142.49s18-11.62,18.54-10.7c.69,1.2-19,11.22-18.31,12.38s16.39-11.8,17.4-10c.88,1.52-17.84,10.88-17,12.36.17.3,15.93-11.95,17.12-9.89.54.94-17,12.19-17,12.19s16-11.6,17-9.83c.58,1-18.47,11.46-17.82,12.59.85,1.47,17.83-10.69,18-10.39,0,0-18.11,10.82-17.42,12,.11.2,16.67-10.93,17.23-9.95.46.8-17.4,11.75-17.21,12.09.85,1.47,17.1-9.87,17.1-9.87s-17,11.65-17,11.65c.78,1.35,18.34-10.59,18.34-10.59,1.07,1.86-19.45,13.11-19.07,13.76,0,0,17.76-11.75,18.41-10.63.28.49-18.31,12.59-18.17,12.82,0,0,17.3-10.63,17.58-10.15.75,1.3-18.51,10.16-17.5,11.91S323,152.83,323.74,154c.89,1.55-16.94,12.29-16.91,12.33,1.11,1.92,17.83-10.29,17.83-10.29s-19.75,11.12-18.8,12.77c0,0,20.53-13.35,21.18-12.23,1.06,1.84-20.21,14.12-20.2,14.13.52.91,23.63-14.48,24-13.85.69,1.2-25,15.33-24.15,16.76,1.77,3.07,28.87-18.15,29.51-17,1.58,2.74-27.09,16.62-26.41,17.79.94,1.63,29.38-19,30.27-17.48.77,1.34-27.61,14-25.86,17.08S344,156.84,344,156.84c1.54,2.67-27.37,17.58-27.12,18,1.68,2.91,31.07-20.68,32.26-18.62,1.43,2.47-29.27,15.25-27.56,18.22,1.07,1.85,29.41-19,30.3-17.49l-27.19,17.48s28.89-19.71,30.2-17.44-28.2,16.1-27.36,17.55l30.86-17.82-27.46,17.79c.32.55,31.32-18.08,31.32-18.08s-26.29,17.48-26.07,17.86c1.14,2,31.2-18,31.2-18,.3.53-27.82,17.82-27.82,17.82s28.76-19.57,30-17.35L343,174.83c1.38,2.4,31.33-18.89,31.68-18.29,1,1.75-28,15.84-26.81,17.86,1.94,3.36,29.61-19.5,30.65-17.7.42.73-26.83,16-26,17.35,0,0,28.62-19.93,30.09-17.37,1.74,3-28.57,16.11-27.65,17.71l31.24-18c1.15,2-29.55,14.66-27.69,17.88,1.09,1.89,30.61-17.67,30.61-17.67,1.11,1.93-28.22,16.18-27.33,17.71l30.8-17.78c.88,1.53-26.77,18-26.77,18,2.08,3.6,30.09-18.78,30.7-17.72C398.34,160,369,174.61,369,174.73s30.52-19,31.09-18c0,.08-26.51,17.28-26.38,17.5,0,0,30.19-18.39,30.61-17.67l-26,17.76c1.62,2.81,30.81-19.46,31.54-18.21,0,0-27.79,16.17-26.66,18.12.17.29,29.42-21.17,31.24-18,.87,1.51-29.75,15.48-28.2,18.16,1.33,2.31,30.17-18.71,30.73-17.74,2,3.4-27.47,17.78-27.47,17.78,2,3.4,30.14-17.9,30.36-17.53,0,0-27.76,15-26.47,17.22,1.44,2.49,28.89-20.45,30.53-17.62.31.53-27.73,15.87-26.53,17.94,0,0,30.11-19.6,31.07-17.94,0,0-28,15.74-26.77,17.95.09.16,30-19.78,31.06-17.93.32.55-27,18.23-27,18.23S434.5,153.37,436.59,157c1,1.75-29.14,15.11-27.56,17.84,2,3.48,30-19.32,30.88-17.83,1.24,2.15-26.4,16.69-26.2,17,1.41,2.45,28.91-19.44,30.1-17.38,0,0-28,15.73-26.83,17.72.71,1.24,31.53-18.2,31.53-18.2s-28.5,17.23-27.95,18.2c1.25,2.16,30-17.42,30-17.33.73,1.27-26,17.69-26,17.69s42.29-31.56,45.38-26.2c1.46,2.53-41.35,26.12-41.35,26.12,2.36,4.08,44-25.46,44-25.41s-40.35,25-40.27,25.18c2.72,4.71,39.68-24.68,40.45-23.35,1.05,1.83-36.15,23.42-36.15,23.42,2.25,3.89,37.17-23.68,38.13-22,1.67,2.88-33.56,22.13-33.56,22.13l34.77-20.07c.69,1.2-31.29,17.63-30,19.84.75,1.3,30.68-20.05,31.69-18.3,0,0-30,15.6-28.45,18.23.36.63,29.58-17.08,29.58-17.08.49.85-25,16.9-25,16.9.77,1.33,25.69-18.31,27.19-15.7,1.22,2.11-23.43,15.13-23.09,15.71,0,0,24.08-15.59,24.81-14.32.38.66-22.13,13.31-21.61,14.21.36.62,21.78-16.06,23.29-13.44.15.26-20.24,13-19.69,13.89.7,1.21,19.43-12.8,20.12-11.62,1.07,1.86-18.61,10.16-17.5,12.08s17-9.83,17-9.83-18.19,10.35-17.14,12.18c.09.16,16.74-12.24,17.85-10.31.33.57-19.51,11.11-18.34,13.12,1.06,1.83,18.07-10.56,18.12-10.46s-18.2,11.79-17.74,12.6c.16.28,17.14-10.92,17.58-10.15.67,1.16-17.3,11.76-17.3,11.76,1,1.75,17.82-10.29,17.82-10.29.18.31-18.65,12.91-18.54,13.09s18.78-11.3,19-11c1.3,2.25-18.72,12.61-18.72,12.61.9,1.55,16.9-11.58,17.69-10.21.17.29-17.78,10.89-16.84,12.52,1.06,1.83,16.22-10.92,16.89-9.75.13.23-17.54,11.55-17.38,11.83,1.05,1.83,15.89-11.8,17-9.83.43.75-17.55,12-17.36,12.38.89,1.54,17.62-11,18-10.37,1.26,2.19-19,11.26-18.33,12.43.25.43,17.45-12.45,18.48-10.67L466.52,199c.07.12,18.3-11,18.51-10.69s-17.93,12.09-17.93,12.09c.51.87,16.52-11.66,17.44-10.07.37.65-17,11.22-16.84,11.56,0,0,16.23-11.21,17-9.83.48.84-17.32,11.81-17.12,12.15.5.87,16.67-9.63,16.67-9.63.19.34-18.07,10.14-16.85,12.25,0,0,16.55-11.31,17.31-10s-17.82,10.65-17,12.07c.35.61,17.75-10.38,17.8-10.28l-18.16,13.18c.09.16,17.28-11.52,18-10.37.81,1.4-18.88,11.22-18.06,12.63L484.75,204c.44.76-18.29,12.67-18.29,12.67.65,1.13,18-12.85,19-11,.36.63-18.53,11.91-18.11,12.64s17.42-10.06,17.42-10.06c1.07,1.86-17.89,12.08-17.89,12.08.24.42,17.68-10.83,18-10.37.4.7-18.08,12.68-18.08,12.68.36.62,18.78-10.84,18.78-10.84,1.29,2.23-20.07,11.59-18.9,13.61.66,1.14,17-11.47,17.71-10.22.15.26-17.95,11.95-17.76,12.27l18.47-10.66s-18,11.53-17.69,12.08,16.89-11.91,17.83-10.29c.21.36-18.7,11.82-18.3,12.51,1.16,2,17.36-11.48,18-10.39.86,1.49-18.58,10.1-17.53,11.93s17.85-10.63,18-10.39l-17.82,12.21c1.18,2.05,17.24-10.78,17.6-10.16.54.94-17.95,11.13-17.47,12,.19.33,15.86-11.7,17-9.79,1.24,2.15-19,10.86-18.06,12.46.2.35,19-11,19-11,1.17,2-17.85,12.34-17.85,12.34,1.17,2,16.38-11.42,17.23-9.95,1,1.68-18.42,13-18.42,13l18.95-10.94c.56,1-19.93,12-18.94,13.74.54.94,17.92-11.34,18.35-10.59.31.54-17.89,13-17.89,13,.72,1.26,17.12-11,17.59-10.16,0,0-18.79,10.59-17.77,12.37,0,0,17-11.6,17.78-10.27,0,0-17.85,11.82-17.44,12.52L485,242.68c.1.18-18.67,12.9-18.67,12.9.12.2,18.4-10.62,18.4-10.62.65,1.13-17.76,12.1-17.76,12.1.35.6,17.66-10.47,17.78-10.26.83,1.44-17.89,11-17.09,12.36.14.25,17.1-10.08,17.19-9.93s-18.55,11.06-17.74,12.46c0,0,17.53-11.86,18.28-10.55,1.16,2-18.27,11.14-17.65,12.21.47.82,15.89-11.86,17.05-9.84.88,1.52-17.72,11.23-17.15,12.21.36.63,17.48-11.29,18-10.39.19.33-18.64,13-18.64,13s16-12,17.15-9.9c0,.08-16.86,11-16.59,11.42,1.11,1.93,17.36-10.24,17.45-10.08,0,0-19.58,11.31-18.48,13.21.44.77,17.84-11.39,18.31-10.57L467.7,274.57c1.11,1.92,16.46-11.83,17.47-10.09,0,0-18.54,11.07-17.87,12.23.29.51,17.49-10.1,17.49-10.1s-18.53,10.52-17.41,12.45c0,0,16.55-10.94,17.15-9.9.33.57-17.69,11.77-17.15,12.71,0,0,17-11.7,17.83-10.29l-18.65,12.63s18-11.75,18.59-10.74c0,.06-19.34,11.43-18.34,13.17.26.45,17.32-10.46,17.52-10.12l-16.55,12.24c.17.3,16.18-10.08,16.5-9.53,1.07,1.85-16.79,11.26-16.5,11.76,0,0,17.61-10.38,17.7-10.22.78,1.36-18.94,13-18.71,13.43,1.16,2,16.8-11.38,17.53-10.12,1.18,2-17.36,11.68-16.88,12.51.38.65,17.35-10,17.35-10,1.29,2.24-18.87,10.54-17.62,12.69,1.08,1.87,17.57-12.26,18.48-10.67s-18.53,12.6-18.53,12.6c1.06,1.83,17.17-12.62,18.34-10.59.55.95-20,11.63-18.93,13.54,0,0,18.73-11,18.82-10.87.19.34-17.57,12.67-17.57,12.67,1.08,1.88,16.43-9.91,16.61-9.59,1,1.65-17.8,10.08-16.76,11.9.12.21,17.22-9.94,17.22-9.94,1.2,2.07-19.18,10.56-17.88,12.8.67,1.17,18-11.14,18.35-10.59,1.32,2.29-19.7,11.44-18.66,13.24l18.15-10.48S466,314.91,466.58,316c.09.15,18.83-10.87,18.83-10.87,1.17,2-17.84,12.29-17.64,12.63,1,1.68,16.73-9.66,16.73-9.66.77,1.34-17.66,12.45-17.59,12.56.86,1.49,16.57-11.23,17.29-10,.15.26-17.95,12-17.79,12.23,1,1.67,18.31-11.53,18.73-10.81,1.26,2.19-18.47,11.39-17.75,12.63,0,0,16.23-11.35,17.09-9.87,0,0-18.88,11.15-18,12.75.16.28,18.07-10.43,18.07-10.43.61,1.05-18.87,10.5-17.9,12.18.6,1,17.3-12,18.17-10.49s-18.33,9.81-17.2,11.77c.15.25,17.11-10.79,17.5-10.11.82,1.42-17.69,12.93-17.69,12.93s16.39-11.77,17.39-10c.41.71-19.56,11.39-18.45,13.31.92,1.59,16.84-12.31,18-10.37.1.18-17.94,12.11-17.63,12.65,1.17,2,17.19-12.16,18.16-10.48.36.63-17.95,10.66-17.09,12.13,0,0,17-10.95,17.49-10.1.94,1.62-17.9,12.67-17.9,12.67.11.19,17.59-10.68,17.81-10.29,0,0-19.18,10.15-18,12.21.32.55,17.5-11.23,18-10.38,0,0-19.36,10.95-18.14,13.06,0,0,16.63-10.75,17.13-9.89.61,1.05-17,11.38-16.65,12,.54.94,17.85-10.31,17.85-10.31,1.11,1.92-20,10.57-18.66,12.89.15.27,17.43-12.83,18.62-10.75.5.86-18.29,11.36-17.85,12.13,0,0,16.63-11.54,17.47-10.09,0,0-18.2,11.67-17.78,12.4.63,1.09,16.74-10.29,17-9.82s-16.77,12.44-16.77,12.44,17.41-11,17.82-10.29c.71,1.24-19,11.86-18.3,13.12,0,0,17.53-12.71,18.66-10.77.23.39-19.41,12.1-18.79,13.16.27.47,18.25-11.6,18.71-10.8.65,1.12-18.09,12.34-18.09,12.34.25.43,17.88-10.81,18.09-10.44,0,0-19.82,10.36-18.53,12.6,1,1.67,16.31-11.73,17.31-10,.85,1.46-17.13,12.52-17.13,12.52s16.49-11.14,17.2-9.93c0,0-17.3,11.9-17,12.45s17.53-10.12,17.53-10.12c.31.54-17.38,11.85-17.24,12.09,1.15,2,18-10.38,18-10.38,1.15,2-19.75,12.13-19.07,13.31.37.64,19.07-11,19.07-11,1.07,1.85-18.31,12.33-18.19,12.55.89,1.55,17-10.21,17.14-9.9.67,1.16-18.29,13.31-18.29,13.31.52.89,18.78-11.3,19-11,0,0-18.75,11.88-18,13.1,0,0,17.5-11,17.9-10.33,1.22,2.12-19.13,10.78-17.81,13.07.89,1.54,16.53-10.13,16.78-9.69.93,1.62-17.93,10.73-16.89,12.53.48.83,17.45-10.07,17.45-10.07,1,1.74-18.34,11.5-17.75,12.51l18.22-10.52c.36.63-18.43,13-18.43,13,1.06,1.83,18.47-11,18.62-10.75,1,1.68-17.57,12.75-17.57,12.75.43.75,17.7-10.22,17.7-10.22.88,1.52-18.61,12.66-18.61,12.66S485,387.89,485.62,388.9c.8,1.39-18.4,12-18.21,12.31.74,1.28,17.64-10.19,17.64-10.19s-19,10.39-17.76,12.51c0,0,18-11.16,18.36-10.6.83,1.44-18.25,11.58-17.88,12.23,0,0,15.94-11.9,17.11-9.88s-18.5,12.25-18.42,12.39c.78,1.35,17.76-10.25,17.76-10.25C485,398.71,466.52,410,466.52,410s18.3-11.73,18.81-10.86c1,1.71-18,13-18,13,1.12,1.94,16.47-10.54,16.91-9.77.88,1.52-18.37,11.88-17.79,12.88,0,0,18.12-11,18.35-10.59.72,1.24-17.82,13-17.82,13,.69,1.2,16.6-11,17.23-9.95.88,1.52-16.81,11.44-16.71,11.63.57,1,17.6-11,18-10.37,0,0-19.29,12.18-18.53,13.49l18.12-10.46c.38.66-18.56,11.35-17.78,12.69,0,0,17.31-10.32,17.45-10.08,0,0-18.77,10.71-17.64,12.68,0,0,17-12,18-10.37,0,0-17.81,12.7-17.63,13,.64,1.12,17.2-9.93,17.2-9.93,1.17,2-16.85,12-16.85,12,.59,1,16.63-12,17.66-10.2.24.41-17.63,12.72-17.63,12.72.69,1.2,16.32-9.47,16.35-9.44.18.31-16.49,11.1-16.41,11.23s15.39-11.41,16.49-9.52c0,.05-17.1,12.48-17,12.65.89,1.53,17.51-10.11,17.51-10.11,1,1.74-18.34,11.76-18,12.37,0,0,17.88-11,18.18-10.5.4.69-18.85,12.23-18.64,12.6,1.2,2.08,17.95-10.36,17.95-10.36s-18.48,10.3-17.51,12c.63,1.09,18.43-10.64,18.43-10.64.72,1.25-18.58,13-18.58,13s17.63-11.75,18.31-10.57c.56,1-18.75,12.48-18.43,13,1.19,2.07,17.9-11.38,18.35-10.6,1.16,2-18.85,11.19-17.83,13,.56,1,16.44-11.62,17.36-10,.82,1.43-16.84,12.06-16.65,12.39l18-10.39c.42.73-19.85,12.37-19.19,13.51.78,1.35,17.41-11.12,17.87-10.32s-18.46,10.86-17.62,12.31c.61,1.06,17.23-11,17.67-10.2.54.93-18.19,12.37-17.89,12.89.53.91,18.16-12,18.81-10.86,0,0-19.48,11-18.16,13.25,0,.08,17.45-10.1,17.46-10.08.48.84-17.93,12.16-17.93,12.16,1.11,1.92,17.62-12.64,18.69-10.79,0,0-20.07,11.47-19.06,13.22s16.8-12.51,18-10.4c0,0-17.59,11.76-17.24,12.36.83,1.44,17.5-10.35,17.61-10.17,1.18,2-18.06,11.64-17.47,12.66.5.87,15.8-11.87,17-9.81,0,0-17.21,12.75-17.21,12.75.14.25,18.45-10.75,18.49-10.68.65,1.13-19.38,11.57-18.32,13.41,0,0,16.55-10.65,17-9.83,0,0-17.22,10.21-16.45,11.53,1,1.76,16.42-12,17.53-10.12,0,0-19.22,11.85-18.33,13.4,0,0,17.32-10,17.32-10L467.68,486.3c.41.7,17.25-10,17.25-10,1.15,2-18.88,10.74-17.87,12.48,0,.08,17.84-10.3,17.84-10.3s-18.59,11.24-17.83,12.57c.51.88,17.38-11.45,18-10.39.91,1.57-17.69,12-17.69,12,1,1.81,16.57-10.69,17.06-9.85" fill="none" stroke="#000" stroke-linecap="round" stroke-linejoin="round" stroke-width="0.7"/><path d="M26.94,1.35S28,.68,28.05.71s-.75,2.23-.75,2.23S30.83.5,31,.8,26.94,5,27.09,5.24c.34.59,6.28-4.19,6.52-3.77.08.14-7.88,5.71-7.29,6.73,0,0,11.85-8.6,12.61-7.28,0,0-12.1,7.58-11.33,8.92,0,0,14.46-10.18,15.26-8.81,1,1.77-16.92,10.89-16.19,12.16,1.1,1.9,20.22-13,20.8-12,.24.41-20.72,13.33-20.47,13.76C27.62,16,50.87-.84,51.74.66S25.67,13.77,27.27,16.55C28,17.9,53.45-.51,54.29,1c0,0-26.72,17.11-26.63,17.27C27.89,18.6,56.19-1.12,57.44,1c0,0-31.49,17.16-29.93,19.86,2,3.48,33.65-19.49,33.68-19.44C62,2.88,26.19,22,27.26,23.84c1.21,2.1,37.86-24.5,39-22.52.51.88-39.14,24.91-39.14,24.91.11.2,41-28.72,43.15-24.91C71.25,3,25.13,24,27.79,28.56,29.29,31.16,74.07-3,76.18.62c.05.09-49.85,31.53-49.85,31.53s18.59-11.91,19.09-11c.16.28-18,12.62-18,12.62L45.53,23.31c.6,1-19.77,11.67-19,13,0,0,19.09-11.18,19.16-11.06,1.13,2-20.32,10.58-18.95,13C27.92,40.24,43.27,26.24,44.29,28c1.19,2.06-17.48,11.29-17,12.15,0,0,16.72-9.9,16.83-9.72,1.18,2-16.58,11.72-16.33,12.17S43.87,31,44.87,32.76C46.14,35,26.81,44.52,27,44.82c.34.59,17.63-11.18,18.06-10.43C46.15,36.31,25.89,45,27,47c0,0,17.38-12,18.25-10.53.36.62-18.08,11.38-17.48,12.42,1.09,1.89,15.79-11.44,16.8-9.7S26.86,51.75,26.86,51.75c.75,1.3,17.52-10.72,17.79-10.27,1.1,1.9-19.07,10.4-17.89,12.45.2.35,18.7-10.8,18.7-10.8S25.8,54.52,26.93,56.47,44.7,45.41,45,46c.09.16-18.52,13.57-18.52,13.57S45,48.93,45,48.93L26.39,62c.09.16,18.64-12.2,19.26-11.12l-18,12.49s17.15-11,17.62-10.18c0,0-19.56,11.52-18.61,13.17.78,1.35,17.68-12.73,18.77-10.84.35.61-19.68,11.21-18.73,12.85.17.3,17.64-12.71,18.74-10.82S26.33,70.39,26.38,70.47c1,1.82,18.57-10.72,18.57-10.72S25.44,71.54,26.38,73.17c0,0,17.94-12.86,19-11,0,.08-18.75,11-17.65,12.87.3.52,16-11.3,16.9-9.75.71,1.23-17.88,12.2-17.88,12.2,1.14,2,17.73-10.23,17.73-10.23C45.77,69.48,26.76,79.8,26.76,79.8S44.28,69.6,44.32,69.66c1,1.79-17.81,12.36-17.71,12.52.49.85,17.93-12.53,18.87-10.9C46.25,72.64,27,84.63,27.06,84.76c1.14,2,17.19-9.93,17.19-9.93S26.2,84.92,27.16,86.59c.5.87,16.59-11.71,17.51-10.11.46.8-18.6,10.88-17.75,12.35S44.47,78.69,44.47,78.69c.44.77-17.82,10.92-17,12.29.46.8,16.39-10.33,16.76-9.68.51.88-16.93,11-16.69,11.45l17.09-9.87c.25.43-17.54,11.8-17.39,12.06,0,0,16.45-11.55,17.34-10,.8,1.38-18.27,11.31-17.63,12.4C27,97.4,43.75,86,44.44,87.23c.59,1-18.25,11.72-17.73,12.61.07.12,18.16-10.48,18.16-10.48.71,1.22-18.62,10.89-17.78,12.34,0,0,17.18-12.31,18.21-10.52.76,1.32-19,12.55-18.8,12.83l18-10.38c1,1.69-16.73,12.2-16.73,12.2.71,1.24,16.8-9.7,16.8-9.7s-17.48,11.79-17.29,12.1C28.28,110.05,44.92,97.87,45,98c1.11,1.93-17.71,11.66-17.13,12.67.42.73,16-11.34,16.88-9.74.41.7-19.24,10.89-18.33,12.46.54.93,18.25-12.72,19.2-11.08.59,1-20.06,11-18.93,12.9.54.93,16.7-11.76,17.61-10.17.76,1.31-17.83,12.27-17.5,12.83.88,1.53,17.86-12.24,18.69-10.79,1.3,2.25-19.6,10.79-18.28,13.08.81,1.4,17.36-10.73,17.66-10.2.76,1.32-17.56,11.15-17,12.15C28,122.26,45.28,112,45.28,112c.15.27-19.46,11-18.12,13.26,1.12,1.93,16.94-11.12,17.52-10.11,1.12,1.95-18.59,12-17.91,13.14.4.69,17.13-10.65,17.46-10.08L27.76,129.76c1,1.78,16.76-11.58,17.59-10.15,0,0-19.14,11.64-18.38,13,1,1.68,18.46-10.66,18.46-10.66,1.24,2.15-18.25,11.4-17.62,12.49,0,0,15.72-11,16.55-9.56S26.49,135.09,27.7,137.2s17-9.83,17-9.83c1.27,2.2-18.9,10.27-17.72,12.32,1,1.75,16.93-11,17.48-10.09C44.7,130,27,139.88,27.8,141.28c.29.5,15.92-10.34,16.41-9.48s-17.38,12.11-17.14,12.54c.53.91,17.63-12.38,18.58-10.73.34.59-19.1,13.46-19.1,13.46.26.44,17.21-12.68,18.4-10.62.73,1.26-17.31,12.19-17.31,12.19s17.24-10.37,17.42-10.06-18,10.83-17.34,12c.47.82,16.64-11.29,17.37-10,1.3,2.25-19,10.6-17.84,12.55.1.17,17-9.82,17-9.82.31.53-17.7,10.58-16.93,11.91,1.07,1.85,17.16-9.91,17.16-9.91.43.75-18.11,12.19-18,12.33.49.85,18.46-10.66,18.46-10.66s-19.08,11-18.09,12.71,18.53-10.7,18.53-10.7c1,1.78-18.25,12.67-18.25,12.67.92,1.59,17.74-10.24,17.74-10.24.56,1-19,10.27-17.84,12.27s17.62-10.17,17.62-10.17c.83,1.43-17,12.17-16.93,12.27.21.37,16.35-11.55,17.26-10,0,.06-18.55,12.52-18.55,12.52s17.65-12,18.45-10.65c.13.22-17.07,11.75-17.06,11.76.93,1.61,16.19-10,16.49-9.52.72,1.25-17.43,10.83-16.62,12.24.31.54,17.58-10.74,17.83-10.3,0,0-18.86,11.27-17.93,12.89.31.54,16.3-11.72,17.3-10C45,165,27,176.55,27.49,177.48c.7,1.21,16.11-11.44,17-9.84,0,0-17.69,12.39-17.48,12.76,1.09,1.89,16.68-10.73,17.16-9.91L26.85,183.21c1.13,2,18.68-10.79,18.68-10.79C46.63,174.34,26,184.56,26.85,186s17.67-11.72,18.33-10.58c.19.33-18.44,11.78-18.18,12.24.92,1.59,17.31-10,17.31-10,.37.64-16.7,11.24-16.59,11.44.8,1.38,15.54-11.49,16.63-9.6.12.21-18.62,11.36-18,12.52s18-10.42,18-10.42c1.17,2-17.54,10.7-16.93,11.77.77,1.33,16.76-10.83,17.26-10,.17.29-17.31,12.14-17.31,12.14.71,1.23,17.06-10,17.14-9.89,1.18,2-18.84,10.52-17.74,12.44,0,0,16.95-11.29,17.6-10.16.39.68-17.7,9.67-16.71,11.39.67,1.16,16.75-9.67,16.75-9.67S25.7,200.31,27,202.54c.58,1,16.76-12.07,17.8-10.27.74,1.28-18.87,12.33-18.31,13.31.66,1.14,18.44-10.65,18.44-10.65.4.69-19.4,11.2-18.45,12.83,0,0,17.83-10.59,18-10.37L26.77,209.56S44,198.72,44.37,199.41c.94,1.63-17.07,10.84-16.58,11.69l16.65-9.61c.84,1.45-17.84,12.89-17.81,12.94l18.85-10.88c.43.74-19.16,10.39-18.1,12.22.28.48,16.23-11,16.95-9.78,0,0-19.26,9.91-18,12.17,0,0,18.36-12.52,19.19-11.08.65,1.13-19.28,12.48-18.71,13.47,0,0,18.11-10.59,18.17-10.49.86,1.48-19.58,11.84-18.63,13.5.55,1,16.91-12,17.87-10.32s-17.1,10.93-16.42,12.12c.89,1.55,17.4-10,17.4-10,1.28,2.22-18.28,12.12-18.18,12.29,0,0,15.94-12,17.16-9.91.69,1.19-17.43,11.86-17.43,11.86s18.71-10.87,18.74-10.82c1,1.77-18.75,12.08-18.07,13.26.5.87,17.89-11,18.17-10.49.59,1-19.64,12.82-19.1,13.76l17.68-10.2s-17.65,9.44-16.56,11.32C28.26,237.48,45,226.33,45,226.33c.45.77-18.24,10.93-17.65,12s17.45-10.1,17.46-10.08c.39.68-18.41,11.47-17.8,12.53s17.37-11.93,18.19-10.5c1.35,2.35-18.57,13.47-18.57,13.47s17-12,17.9-10.33c1,1.78-17.55,12.1-17.55,12.1.18.32,18-10.41,18-10.41.21.36-18,13.25-18,13.25,1.14,2,17.4-11.08,17.85-10.31.08.13-17.49,11.46-17.28,11.82l17.23-9.95c.75,1.3-17.4,12.63-17.4,12.63s16.12-10.79,16.77-9.68c.91,1.58-17.35,12-17.09,12.51,0,0,16.82-11.4,17.55-10.13S26.51,257.12,26.9,257.8c0,0,16.7-12.1,17.77-10.26,0,0-17.73,10.35-16.85,11.87,1.1,1.91,16.3-10.33,16.7-9.64,0,0-17.79,11.88-17.32,12.69l17.41-10.05c.65,1.13-18.94,12.21-18.25,13.4.26.46,18.32-10.65,18.35-10.6s-18.19,9.79-17,11.88c.44.76,17.33-11.27,17.87-10.32.07.12-20,12-19,13.69.13.23,18.46-10.67,18.47-10.66S27,272.61,27,272.61c.17.29,18.6-10.83,18.64-10.76S26.4,273,27.5,274.91c0,0,16.69-12.24,17.82-10.29,0,0-18.19,11.92-17.79,12.6C28.58,279,44.8,266.07,45.31,267c.05.09-19.3,10.62-18.16,12.59,0,0,17.71-11,18-10.42,1.23,2.13-18.21,10.62-17.41,12,0,0,17.07-11.26,17.68-10.21.89,1.54-17.77,12.56-17.77,12.56s16.41-10.05,16.66-9.62c1.26,2.18-18,12.71-18,12.71,1.07,1.86,18.69-11.84,19.14-11.05s-19.25,12.11-18.71,13c1.11,1.91,18.38-10.61,18.38-10.61,1,1.75-18.73,10.44-17.65,12.31,0,0,18-10.46,18-10.42s-18.56,11.83-18,12.88c0,0,17.14-12.2,18.14-10.47,0,0-20.08,11.07-18.88,13.15S43.47,283.88,44.3,285.3c.22.39-18.36,10.73-17.22,12.7.15.27,18.42-10.76,18.47-10.67l-19.19,13.4c.27.47,18.4-11.25,18.68-10.78,0,0-18.6,12.77-18.36,13.18.44.76,18.31-10.57,18.31-10.57.89,1.54-19.43,11.12-18.53,12.68,0,0,18.14-12.49,19-11,0,0-19.11,11-18.25,12.54.36.62,18.09-10.44,18.09-10.44,1,1.8-19.18,12.3-18.74,13.07.1.17,18.48-10.67,18.48-10.67s-18.31,10.1-17.29,11.87c.42.73,16.93-9.78,16.93-9.78,1,1.68-18.23,11.53-17.66,12.52,0,0,17.45-10.54,17.65-10.19,0,0-18.72,11.66-18,13s17.74-10.24,17.74-10.24c.77,1.34-18.8,11.22-17.79,13C27.87,321,45.23,307.53,45.5,308c1.27,2.2-18.33,12.49-18.33,12.49.49.85,17.4-11.44,18-10.4S26.4,322,27.1,323.2c1.09,1.9,17.66-11.46,18.21-10.51s-19.72,12.09-18.85,13.6c0,0,17.52-10.91,17.87-10.31.53.93-17.3,11.29-16.89,12,.82,1.41,16.9-10.95,17.41-10.05.72,1.25-19,10.37-18,12.23.71,1.23,18.4-10.78,18.46-10.66.52.9-18.3,10.79-17.52,12.15,1.16,2,17.33-10.56,17.57-10.14s-19,13.21-19,13.21c.38.65,18-10.58,18.11-10.46L27.7,335.78l16.52-9.54c1.3,2.26-18,12.36-17.88,12.65.42.73,17.58-10.77,17.85-10.31S26.44,341.36,26.5,341.47c.73,1.27,18.16-12.65,19.1-11,.26.44-20.43,11.31-19.26,13.34.71,1.23,18.65-11.86,19.12-11,1.08,1.87-17.94,12.39-17.62,12.95,0,0,17.52-10.36,17.63-10.18,0,0-19.39,11.55-18.72,12.71,1.11,1.93,17.23-11.55,17.93-10.35L27.41,350.7S43.28,339.23,44.28,341c1.11,1.92-18.47,10.51-17.51,12.17.43.75,18-11.26,18.38-10.61,0,0-19,12.57-18.75,13,1.18,2,18.39-11.55,18.79-10.85,1.17,2-17.88,11.26-17.43,12S44,345.76,44.69,347c.07.13-18.44,11.74-18,12.44s18.78-10.84,18.78-10.84c.74,1.28-18.83,13-18.83,13,.21.37,18.17-10.49,18.17-10.49C45.57,352.46,27,363.24,27,363.24s17.91-10.49,18-10.38c.49.85-18.36,11.71-17.68,12.88.83,1.44,17.2-10.26,17.34-10s-18.25,11.15-17.29,12.8c.32.56,17-9.92,17.08-9.86.42.73-17.82,11.72-17.68,12,.7,1.21,17.76-11.57,18.33-10.58.31.53-18.94,10.48-18,12.17s17.16-9.91,17.16-9.91c1.19,2.07-16.8,11.62-16.45,12.22s17.64-10.19,17.64-10.19c1.23,2.12-18.69,11.79-17.9,13.16.24.42,16.27-12.12,17.45-10.08.29.5-18,12.73-18,12.73.53.92,17.74-11.54,18.3-10.57s-19.73,11.78-18.82,13.36c.81,1.41,17.06-11.33,17.7-10.22,0,0-17.28,11.14-16.8,12,1.2,2.07,16.75-11.83,17.69-10.21.76,1.32-18.2,13-18.2,13S44.73,376.68,45,377.07C46.29,379.38,25.31,387.9,26.5,390c.22.38,18.16-10.48,18.16-10.48.92,1.59-18.9,11.94-18.24,13.08.08.13,18.8-11.35,19-11,.71,1.22-19,12.73-18.83,13s17.66-10.2,17.66-10.2c.15.26-18.65,11.05-17.76,12.59,1.13,2,18-11.72,18.57-10.72L27.58,398.73s16.08-10.47,16.59-9.58c1,1.73-17.11,11.14-16.48,12.23,1,1.68,16.74-10.92,17.28-10,1.15,2-17.81,11.45-17.29,12.34,0,0,16.06-11.1,16.85-9.73.58,1-17.73,11-16.88,12.51,1.2,2.08,17.14-10.24,17.29-10,1.08,1.88-19.36,11-18.25,12.9C27.31,410.53,44,399,44.23,399.31S27,410.52,27.29,410.94c.77,1.34,17.83-10.3,17.83-10.3.68,1.18-19.56,10.45-18.38,12.48L45.32,402.4s-18.73,10.47-17.6,12.42c0,0,17.43-10.66,17.69-10.21.41.7-18.8,11-18,12.25,0,0,17.39-12.12,18.29-10.56,0,0-18.76,11-18.08,12.2.13.23,16.59-11.24,17.31-10,.38.67-18,10-17.05,11.64s16.47-9.72,16.56-9.56-16.88,12-16.88,12c.87,1.51,17.8-10.28,17.8-10.28,1.15,2-19.08,12.25-18.73,12.85.11.19,18.93-10.93,18.93-10.93,1.37,2.37-19.58,12.8-19,13.77S45.4,416.4,45.7,416.91c.68,1.18-20.36,10.77-19.06,13,.29.5,18.65-10.77,18.65-10.77.12.21-18.1,13.18-18.1,13.18l17.45-10.08S26.9,433.64,27.37,434.45L45.51,424,26.38,437.66S44.42,426,45,426.93s-18.45,11.62-17.8,12.75c0,0,17.22-11.81,18-10.41.3.53-17.71,11.42-17.41,11.93.2.34,16.69-11.4,17.45-10.07s-18.07,12.32-18,12.37l18.05-10.42c.05.09-18.68,12.93-18.68,12.93,1.06,1.83,17.71-11,18.06-10.42.88,1.52-18.19,12.37-18.13,12.47.53.92,18-13,19.1-11,0,0-19.24,13.06-19.19,13.14.48.83,17.71-12.66,18.77-10.84,0,0-19.11,10.72-17.9,12.82,1.1,1.91,16.16-11.66,17.17-9.91.5.86-18.26,11.62-18,12.11,0,0,17.44-12.78,18.61-10.74,0,0-19.11,12.5-18.59,13.4.86,1.49,18.37-11.43,18.73-10.81,0,0-18.75,11.79-18.29,12.6,0,0,16.7-12,17.73-10.24,0,0-17.89,9.69-16.85,11.5,0,0,16.76-11,17.31-10,1.08,1.86-18.12,11.07-17.3,12.49,1,1.68,17.27-10.84,17.65-10.19,0,0-18.91,11-17.84,12.84S44.42,453.62,45.23,455c0,0-18.16,10.75-17.43,12,.93,1.61,16.67-12.37,17.86-10.31,1,1.67-19.18,13.34-19.18,13.34s18.58-11.14,18.76-10.83c.31.55-18.33,13.26-18.33,13.26.41.7,18.76-10.83,18.76-10.83,1.21,2.09-19.21,13.31-19.07,13.55.66,1.14,18.11-10.58,18.17-10.49S26.74,476,27.29,477c1,1.74,18.28-10.63,18.31-10.57L27,479.08s18.51-11,18.66-10.77c.52.9-19.31,11.2-18.34,12.89,0,0,16-11.43,16.95-9.78.26.45-17.83,10.7-17.12,11.92,0,0,16.75-10.34,17-9.84.54.93-17.73,12.64-17.72,12.66.32.55,18.36-10.91,18.49-10.68.24.41-19.21,11-18.19,12.77.58,1,17.13-12.32,18.18-10.5L26.8,490.43c.41.72,18.12-11.07,18.39-10.61,0,0-19.51,10.7-18.43,12.56,0,0,18.42-11,18.58-10.73.78,1.34-19.6,10.66-18.39,12.75.4.7,17.36-10,17.36-10s-18.77,11.07-17.7,12.92,19.06-11,19.06-11c1,1.74-19,10.6-18,12.31.7,1.22,17.53-11,17.89-10.33s-18.33,12-17.8,12.92c0,0,16.53-9.6,16.55-9.56L26.84,503.75c1.22,2.12,16.52-12.32,17.72-10.23,1.31,2.28-19.3,10.9-18,13.2,1.58,2.74,22.21-15.61,23.41-13.52,1,1.75-23.89,13.91-22.84,15.73l27.74-16c.1.18-28.88,15.53-27.55,17.84,1.79,3.11,30.44-17.58,30.44-17.58,1.52,2.64-28,16.38-27.28,17.56,0,0,30.77-18,30.88-17.83,1.87,3.24-28.63,14.74-26.92,17.71.51.88,28.78-18.66,29.67-17.13l-24.89,17S67.37,490.45,69,493.34c0,0-28.54,14.92-27.1,17.42.38.66,31-17.91,31-17.91.28.48-27.58,14.59-25.77,17.72,1.44,2.49,29.51-18.42,30.11-17.38.93,1.61-28.45,18-28.36,18.13,1.16,2,31.59-19.8,32.26-18.63.44.76-28,14.81-26.2,18,.71,1.23,30.84-17.81,30.84-17.81,1.5,2.6-27.46,18.44-27.46,18.44,2,3.51,29.64-21,31.31-18.08C91,495.42,60.66,508,62.41,511c.92,1.6,29.09-20.12,30.53-17.63s-26.32,17.16-26.32,17.16c1.82,3.15,29-20.69,30.71-17.73l-28,18.33c.34.6,31.23-18,31.23-18,1,1.74-27.74,15.49-26.41,17.8,0,0,28.9-20.7,30.64-17.69.89,1.54-28.51,15.63-27.07,18.12.9,1.56,29.5-21.6,31.48-18.17.85,1.47-27.44,16.81-27.06,17.47.67,1.16,30.22-17.45,30.22-17.45,1.87,3.24-28.36,14.19-26.56,17.31,0,0,30-18.67,30.56-17.64,0,0-29.83,15.86-28.48,18.21,0,.07,29.48-19.9,30.73-17.74.49.84-26.7,15.42-25.56,17.4,1.92,3.33,30.73-17.74,30.73-17.74,1.36,2.36-27.65,14.93-26,17.76.12.2,29.48-19,30.32-17.5,0,0-26.47,16.76-26.16,17.31,1.21,2.1,28.78-19,29.83-17.22,1.59,2.76-25.09,17.14-25.09,17.14.55,1,27.59-20.79,29.69-17.14,0,0-27.68,14.5-26.11,17.23,0,0,29.87-18.38,30.36-17.53,1.53,2.66-26.44,17.09-26.1,17.67.61,1.06,29-21,30.84-17.81,0,0-27.56,17.4-27.21,18,.76,1.32,30-19.58,31-17.9.08.14-27.38,15.13-25.84,17.79,2,3.5,28.59-20,30.11-17.38s-26.25,17.17-26.25,17.17c2.14,3.71,30.39-17.55,30.39-17.55,1.21,2.1-26.41,17.8-26.41,17.8s30-19.82,31.09-17.95c.37.64-29.78,16.37-28.66,18.3,0,0,31-18.06,31.09-17.95,1.69,2.93-27.17,16-26.37,17.39l30-17.31c.53.92-27.77,17.86-27.77,17.86,1.68,2.9,30.2-19.06,30.91-17.84,1.73,3-26.15,15.21-25,17.23,1.4,2.42,29.82-20,31-17.91.06.1-28.27,18.29-28.27,18.29,1.45,2.52,29.14-19.81,30.43-17.57,1.6,2.77-29.39,14.61-27.47,17.94,1.66,2.87,29.65-20.66,31.18-18,1.78,3.09-28,16.94-27.58,17.71,0,0,29.84-19.16,30.67-17.71,1.74,3-26.13,16.43-25.63,17.3.8,1.39,28.72-20.77,30.53-17.63,1.64,2.84-28.54,14.67-26.86,17.57,0,0,29.73-18.65,30.37-17.54s-27,18.19-27,18.19l31-17.88c1.69,2.92-26.48,16.86-26.19,17.37s30.08-18.52,30.58-17.66c1.87,3.24-26.91,17.13-26.54,17.78L207.58,493c1.15,2-27.95,17.87-27.95,17.87,1.13,2,30.52-17.62,30.52-17.62s-26,17.6-26,17.6c2,3.48,31.25-18,31.25-18,.59,1-29,15.48-27.19,18.54s31.31-18.34,31.42-18.14c.64,1.11-27,17.38-26.68,17.9.56,1,31.4-18.14,31.41-18.13,1.15,2-28.42,15.13-26.67,18.16,1.09,1.88,31.84-18.38,31.84-18.38,1.43,2.48-28.78,17.27-28.3,18.12,0,0,30-19.61,31-17.9.47.82-28,16.35-27.15,17.86.53.91,30.23-19.74,31.22-18,.32.55-28,16.32-27,18.2.53.93,29.72-21.29,31.51-18.19,0,0-26.31,17.3-26.05,17.75,1.11,1.93,30.83-18.33,31.06-17.93s-27.3,18.44-27.3,18.44c1.25,2.16,30.51-17.61,30.51-17.61s-26.38,17.32-26.23,17.59c0,0,29.94-21.86,31.92-18.43.31.54-29.53,16.92-28.6,18.53L257.57,493c.79,1.37-27.2,18-27.2,18s30.5-19.17,31.18-18c.51.88-26.65,18-26.58,18.1,1.62,2.8,29.25-21.75,31.35-18.1.65,1.12-26.83,17-26.45,17.66,1.28,2.21,30.71-18.4,31-17.9,1,1.81-28.61,15.05-26.85,18.11,1,1.82,30.57-17.65,30.57-17.65,1.8,3.12-26.22,16.05-25.48,17.33,1.45,2.52,29.82-18.37,30.32-17.5.32.56-27.5,16.05-26.37,18l31.22-18c1.17,2-27.55,16.31-26.49,18.15s30.77-18.82,31.23-18c1,1.79-26.11,17.48-26.07,17.54l31.17-18c1.11,1.93-26.58,17.25-26.25,17.82.17.29,30.66-17.7,30.66-17.7s-26.38,16.84-25.87,17.72c1.61,2.79,28.41-21.11,30.45-17.58.74,1.28-28,17.16-27.33,18.35S307.4,493,307.4,493c1.81,3.14-26,17.62-25.87,17.79.23.4,30.22-17.45,30.22-17.45s-25.91,16.84-25.67,17.26,28.73-19.18,29.85-17.24c1,1.68-27.49,14.46-25.77,17.45,1.15,2,28.5-20.38,30.2-17.43L294.9,510.48s29.37-17.79,29.73-17.17c1,1.68-27.36,17.8-27.36,17.8.89,1.53,30.45-18.72,30.94-17.86,1.39,2.41-27.13,16.36-26.63,17.22S332,492.91,332,492.91,302.38,508,304.14,511.07c2,3.47,29.92-21.67,31.82-18.37,0,0-27.24,18.53-27.24,18.53,1.7,2.94,30.69-18.6,31.07-17.94.78,1.35-27.34,17.59-27.34,17.59.35.6,28.91-20.24,30.45-17.58,1,1.73-27.11,17.63-26.94,17.91,1.09,1.89,31-17.91,31-17.91S318.6,509.53,319.46,511c.73,1.26,31.17-18,31.17-18,1.57,2.73-27.29,15.53-26.1,17.6.91,1.58,30.26-17.47,30.26-17.47.57,1-28.69,14.66-27,17.6,0,0,28.57-19.92,30.06-17.35.52.9-26.55,15.88-25.63,17.48.2.35,30.34-17.51,30.34-17.51s-25.6,16.5-25.21,17.17c.62,1.07,29.77-17.19,29.77-17.19,1,1.79-27.23,16.12-26.33,17.68,1.79,3.11,29.77-21.26,31.54-18.21,2,3.44-28.07,18.4-28.07,18.4,1.75,3,30.55-19.68,31.43-18.15,0,0-29.27,15.07-27.47,18.18.34.58,30.92-18.35,31.13-18,.66,1.15-28.19,17-27.66,17.94,1.8,3.11,31.61-18.88,31.88-18.41,1,1.73-27.2,17.93-27.2,17.93.8,1.39,30.36-19,31-17.9l-28.09,18c2.12,3.67,29.64-19.35,30.61-17.67,1.65,2.86-28.09,15.25-26.58,17.87,2.06,3.57,29.2-21.8,31.34-18.09,0,0-29.56,14.78-27.79,17.84,1.42,2.47,29.25-19.82,30.52-17.62,0,0-26.62,16.35-25.92,17.55.93,1.61,28.77-19.15,29.87-17.25.57,1-26.67,16.74-26.07,17.79,2,3.42,30.81-17.79,30.81-17.79.18.31-27.11,14.44-25.53,17.17l30.19-17.43S382.33,507.65,384,510.56l31-17.89s-29.25,15.21-27.49,18.25c.73,1.26,29.34-19.93,30.63-17.69,0,0-26.59,17.62-26.55,17.69.92,1.59,31.46-18.16,31.46-18.16l-28,18.32s30.48-20.84,31.88-18.41-29.84,15.58-28.07,18.64c.49.84,29.48-20.27,30.89-17.83,0,0-26.76,17.51-26.76,17.51s30.5-18.72,31-17.89c1.58,2.73-29.29,16.17-28.11,18.21,1.56,2.71,29.58-21.56,31.52-18.2S408.57,508.89,409.77,511c.31.54,30.89-17.83,30.89-17.83l-28,17.91c.66,1.14,30.35-20.18,31.5-18.19.23.4-27.35,17.9-27.35,17.9,1.77,3.07,31.26-18,31.26-18,.55,1-29.24,16.13-28,18.31.25.44,31-18.25,31.12-18,.53.91-28.3,17-27.79,17.85,1.31,2.27,31.64-18.27,31.64-18.27,1.62,2.81-27.51,17-26.87,18.14,1.53,2.65,28.8-21.41,30.87-17.83.74,1.27-27.84,18.15-27.84,18.15s29.71-20.59,31.2-18c.63,1.09-28.24,16.69-27.39,18.17,0,0,31.29-19.77,32-18.49.52.91-28.32,16.14-27,18.42,0,0,42.77-31.11,45.55-26.3,0,0-41.91,23.53-40.39,26.15,1.7,2.94,38.11-26,39.86-23,.67,1.16-36.91,23.2-36.91,23.2l37.14-21.44c1.48,2.56-31.46,20.57-31.31,20.82.6,1,30.89-17.84,30.89-17.84.45.78-29.41,15.22-27.79,18L484.42,495c1.08,1.86-23.86,14.53-23.3,15.51,1,1.65,23.26-14.7,23.81-13.75,1.41,2.45-21.56,13.34-21,14.3s20.2-12.89,20.73-12c0,0-16.66,9.91-15.83,11.33.92,1.59,15.27-11,16.23-9.37.36.62-13.23,9.26-12.7,10.19l12.24-7.07c.49.85-8.07,6.17-7.89,6.48,0,0,8.13-5,8.26-4.77.25.44-5.45,4.69-5.33,4.89s5-3.26,5.14-3-2.58,2.74-2.36,3.12a16.42,16.42,0,0,1,2.73-1.58" fill="none" stroke="#000" stroke-linecap="round" stroke-linejoin="round" stroke-width="0.7"/></svg>