<svg id="visual" viewBox="0 0 900 600" width="900" height="600" xmlns="http://www.w3.org/2000/svg" xmlns:xlink="http://www.w3.org/1999/xlink" version="1.1"><g stroke-width="5" stroke-linejoin="bevel"><path d="M456 283L436 333.7L470 300.9Z" fill="#650000" stroke="#000000"></path><path d="M436 333.7L477 334.9L470 300.9Z" fill="#eb4202" stroke="#000000"></path><path d="M436 333.7L461 348.9L477 334.9Z" fill="#540000" stroke="#000000"></path><path d="M456 283L386 308.9L436 333.7Z" fill="#b11602" stroke="#000000"></path><path d="M436 333.7L449 380.7L461 348.9Z" fill="#540000" stroke="#000000"></path><path d="M386 308.9L395 362.7L436 333.7Z" fill="#8a0000" stroke="#000000"></path><path d="M405 380L449 380.7L436 333.7Z" fill="#c42602" stroke="#000000"></path><path d="M461 348.9L537 399L477 334.9Z" fill="#fe5000" stroke="#000000"></path><path d="M395 362.7L405 380L436 333.7Z" fill="#b11602" stroke="#000000"></path><path d="M405 380L446 396L449 380.7Z" fill="#9e0000" stroke="#000000"></path><path d="M449 380.7L476 417.4L461 348.9Z" fill="#770000" stroke="#000000"></path><path d="M530 261L492 222.4L456 283Z" fill="#650000" stroke="#000000"></path><path d="M456 283L431 207.6L386 308.9Z" fill="#eb4202" stroke="#000000"></path><path d="M530 261L456 283L470 300.9Z" fill="#9e0000" stroke="#000000"></path><path d="M569 298.1L530 261L477 334.9Z" fill="#650000" stroke="#000000"></path><path d="M477 334.9L530 261L470 300.9Z" fill="#b11602" stroke="#000000"></path><path d="M395 362.7L378 381.6L405 380Z" fill="#c42602" stroke="#000000"></path><path d="M405 380L409 459.7L446 396Z" fill="#9e0000" stroke="#000000"></path><path d="M362 381.4L378 381.6L350 369.6Z" fill="#c42602" stroke="#000000"></path><path d="M326 282.1L344 313.7L386 308.9Z" fill="#eb4202" stroke="#000000"></path><path d="M386 308.9L350 369.6L395 362.7Z" fill="#770000" stroke="#000000"></path><path d="M492 222.4L431 207.6L456 283Z" fill="#fe5000" stroke="#000000"></path><path d="M492 222.4L448 198.3L431 207.6Z" fill="#d73402" stroke="#000000"></path><path d="M350 369.6L378 381.6L395 362.7Z" fill="#b11602" stroke="#000000"></path><path d="M409 459.7L476 417.4L446 396Z" fill="#eb4202" stroke="#000000"></path><path d="M344 313.7L350 369.6L386 308.9Z" fill="#c42602" stroke="#000000"></path><path d="M448 198.3L419 195.4L431 207.6Z" fill="#c42602" stroke="#000000"></path><path d="M431 207.6L336 248.3L386 308.9Z" fill="#9e0000" stroke="#000000"></path><path d="M409 459.7L405 380L380 456.7Z" fill="#770000" stroke="#000000"></path><path d="M446 396L476 417.4L449 380.7Z" fill="#b11602" stroke="#000000"></path><path d="M336 248.3L326 282.1L386 308.9Z" fill="#b11602" stroke="#000000"></path><path d="M344 313.7L314 346.9L350 369.6Z" fill="#650000" stroke="#000000"></path><path d="M419 195.4L336 248.3L431 207.6Z" fill="#000000" stroke="#000000"></path><path d="M530 261L533 222.4L492 222.4Z" fill="#650000" stroke="#000000"></path><path d="M492 222.4L472 174.6L448 198.3Z" fill="#d73402" stroke="#000000"></path><path d="M566 366L569 298.1L477 334.9Z" fill="#000000" stroke="#000000"></path><path d="M603 206.6L583 192.6L533 222.4Z" fill="#000000" stroke="#000000"></path><path d="M476 417.4L537 399L461 348.9Z" fill="#770000" stroke="#000000"></path><path d="M524 201.6L510 193.1L492 222.4Z" fill="#9e0000" stroke="#000000"></path><path d="M436 163.4L412 172.7L419 195.4Z" fill="#540000" stroke="#000000"></path><path d="M545 181.3L524 201.6L533 222.4Z" fill="#8a0000" stroke="#000000"></path><path d="M533 222.4L524 201.6L492 222.4Z" fill="#650000" stroke="#000000"></path><path d="M282 328.1L314 346.9L344 313.7Z" fill="#540000" stroke="#000000"></path><path d="M270 471.6L380 456.7L362 381.4Z" fill="#b11602" stroke="#000000"></path><path d="M510 193.1L472 174.6L492 222.4Z" fill="#9e0000" stroke="#000000"></path><path d="M537 399L566 366L477 334.9Z" fill="#8a0000" stroke="#000000"></path><path d="M476 417.4L511 427.3L537 399Z" fill="#650000" stroke="#000000"></path><path d="M436 163.4L419 195.4L448 198.3Z" fill="#b11602" stroke="#000000"></path><path d="M419 195.4L380 172.7L336 248.3Z" fill="#c42602" stroke="#000000"></path><path d="M566 366L575 354.1L569 298.1Z" fill="#770000" stroke="#000000"></path><path d="M510 193.1L474 170.3L472 174.6Z" fill="#b11602" stroke="#000000"></path><path d="M472 174.6L436 163.4L448 198.3Z" fill="#eb4202" stroke="#000000"></path><path d="M465 154.4L474 170.3L472 146.6Z" fill="#000000" stroke="#000000"></path><path d="M436 163.4L408 168.6L412 172.7Z" fill="#c42602" stroke="#000000"></path><path d="M412 172.7L380 172.7L419 195.4Z" fill="#540000" stroke="#000000"></path><path d="M465 154.4L436 163.4L472 174.6Z" fill="#540000" stroke="#000000"></path><path d="M575 354.1L586 335.7L569 298.1Z" fill="#540000" stroke="#000000"></path><path d="M376 128.3L402 167.1L408 168.6Z" fill="#9e0000" stroke="#000000"></path><path d="M408 168.6L402 167.1L412 172.7Z" fill="#d73402" stroke="#000000"></path><path d="M402 167.1L380 172.7L412 172.7Z" fill="#eb4202" stroke="#000000"></path><path d="M305 233.3L309 243L336 248.3Z" fill="#9e0000" stroke="#000000"></path><path d="M336 248.3L309 243L326 282.1Z" fill="#650000" stroke="#000000"></path><path d="M326 282.1L282 328.1L344 313.7Z" fill="#9e0000" stroke="#000000"></path><path d="M472 146.6L474 170.3L510 193.1Z" fill="#9e0000" stroke="#000000"></path><path d="M474 170.3L465 154.4L472 174.6Z" fill="#eb4202" stroke="#000000"></path><path d="M376 128.3L371 159.7L402 167.1Z" fill="#b11602" stroke="#000000"></path><path d="M380 456.7L378 381.6L362 381.4Z" fill="#eb4202" stroke="#000000"></path><path d="M380 456.7L405 380L378 381.6Z" fill="#fe5000" stroke="#000000"></path><path d="M476 417.4L453 489.1L511 427.3Z" fill="#000000" stroke="#000000"></path><path d="M304 225.3L305 233.3L336 248.3Z" fill="#b11602" stroke="#000000"></path><path d="M256 242.4L282 328.1L326 282.1Z" fill="#540000" stroke="#000000"></path><path d="M575 354.1L598 338.1L586 335.7Z" fill="#650000" stroke="#000000"></path><path d="M586 335.7L626 299.7L569 298.1Z" fill="#770000" stroke="#000000"></path><path d="M583 192.6L545 181.3L533 222.4Z" fill="#eb4202" stroke="#000000"></path><path d="M609 340.9L598 338.1L575 354.1Z" fill="#9e0000" stroke="#000000"></path><path d="M609 340.9L575 354.1L597 412.9Z" fill="#9e0000" stroke="#000000"></path><path d="M575 354.1L566 366L597 412.9Z" fill="#8a0000" stroke="#000000"></path><path d="M299 204.1L304 225.3L306 193.1Z" fill="#9e0000" stroke="#000000"></path><path d="M256 242.4L326 282.1L309 243Z" fill="#650000" stroke="#000000"></path><path d="M533 222.4L530 261L603 206.6Z" fill="#9e0000" stroke="#000000"></path><path d="M524 201.6L545 181.3L510 193.1Z" fill="#770000" stroke="#000000"></path><path d="M270 471.6L362 381.4L350 369.6Z" fill="#fe5000" stroke="#000000"></path><path d="M256 242.4L309 243L305 233.3Z" fill="#000000" stroke="#000000"></path><path d="M314 346.9L273 352.9L350 369.6Z" fill="#c42602" stroke="#000000"></path><path d="M548 147.3L472 146.6L510 193.1Z" fill="#b11602" stroke="#000000"></path><path d="M465 154.4L457 102.4L436 163.4Z" fill="#8a0000" stroke="#000000"></path><path d="M402 167.1L371 159.7L380 172.7Z" fill="#b11602" stroke="#000000"></path><path d="M376 128.3L408 168.6L436 163.4Z" fill="#000000" stroke="#000000"></path><path d="M306 193.1L304 225.3L336 248.3Z" fill="#650000" stroke="#000000"></path><path d="M597 412.9L566 366L537 399Z" fill="#d73402" stroke="#000000"></path><path d="M598 338.1L626 299.7L586 335.7Z" fill="#540000" stroke="#000000"></path><path d="M550 449.4L559 435.7L511 427.3Z" fill="#770000" stroke="#000000"></path><path d="M511 427.3L559 435.7L537 399Z" fill="#8a0000" stroke="#000000"></path><path d="M235 316.1L273 352.9L282 328.1Z" fill="#8a0000" stroke="#000000"></path><path d="M282 328.1L273 352.9L314 346.9Z" fill="#eb4202" stroke="#000000"></path><path d="M306 193.1L336 248.3L380 172.7Z" fill="#8a0000" stroke="#000000"></path><path d="M304 225.3L256 242.4L305 233.3Z" fill="#d73402" stroke="#000000"></path><path d="M541 462.6L550 449.4L511 427.3Z" fill="#540000" stroke="#000000"></path><path d="M371 159.7L306 193.1L380 172.7Z" fill="#650000" stroke="#000000"></path><path d="M361 517.6L437 486.4L409 459.7Z" fill="#000000" stroke="#000000"></path><path d="M409 459.7L437 486.4L476 417.4Z" fill="#000000" stroke="#000000"></path><path d="M603 206.6L530 261L569 298.1Z" fill="#000000" stroke="#000000"></path><path d="M545 181.3L548 147.3L510 193.1Z" fill="#c42602" stroke="#000000"></path><path d="M437 486.4L453 489.1L476 417.4Z" fill="#c42602" stroke="#000000"></path><path d="M609 340.9L626 299.7L598 338.1Z" fill="#540000" stroke="#000000"></path><path d="M466 500.1L541 462.6L511 427.3Z" fill="#000000" stroke="#000000"></path><path d="M610 462.6L559 435.7L550 449.4Z" fill="#9e0000" stroke="#000000"></path><path d="M610 462.6L597 412.9L559 435.7Z" fill="#c42602" stroke="#000000"></path><path d="M559 435.7L597 412.9L537 399Z" fill="#9e0000" stroke="#000000"></path><path d="M678 266.1L654 266.3L626 299.7Z" fill="#fe5000" stroke="#000000"></path><path d="M626 299.7L626 267.1L569 298.1Z" fill="#c42602" stroke="#000000"></path><path d="M626 267.1L603 206.6L569 298.1Z" fill="#d73402" stroke="#000000"></path><path d="M584 152.7L545 181.3L583 192.6Z" fill="#c42602" stroke="#000000"></path><path d="M584 152.7L548 147.3L545 181.3Z" fill="#000000" stroke="#000000"></path><path d="M418 85.9L376 128.3L436 163.4Z" fill="#000000" stroke="#000000"></path><path d="M371 159.7L305 135.7L306 193.1Z" fill="#eb4202" stroke="#000000"></path><path d="M457 102.4L465 154.4L472 146.6Z" fill="#b11602" stroke="#000000"></path><path d="M654 266.3L630 263.9L626 267.1Z" fill="#eb4202" stroke="#000000"></path><path d="M626 267.1L620 211.3L603 206.6Z" fill="#d73402" stroke="#000000"></path><path d="M465 520.1L466 500.1L453 489.1Z" fill="#c42602" stroke="#000000"></path><path d="M453 489.1L466 500.1L511 427.3Z" fill="#eb4202" stroke="#000000"></path><path d="M247 241L256 242.4L249 203.6Z" fill="#eb4202" stroke="#000000"></path><path d="M260 200.4L256 242.4L304 225.3Z" fill="#fe5000" stroke="#000000"></path><path d="M630 263.9L620 211.3L626 267.1Z" fill="#d73402" stroke="#000000"></path><path d="M603 206.6L584 152.7L583 192.6Z" fill="#b11602" stroke="#000000"></path><path d="M543 94.9L457 102.4L472 146.6Z" fill="#b11602" stroke="#000000"></path><path d="M260 200.4L304 225.3L299 204.1Z" fill="#9e0000" stroke="#000000"></path><path d="M256 242.4L235 316.1L282 328.1Z" fill="#d73402" stroke="#000000"></path><path d="M260 200.4L299 204.1L306 193.1Z" fill="#c42602" stroke="#000000"></path><path d="M247 241L235 316.1L256 242.4Z" fill="#d73402" stroke="#000000"></path><path d="M273 352.9L243 385.6L350 369.6Z" fill="#fe5000" stroke="#000000"></path><path d="M631 142.4L584 152.7L603 206.6Z" fill="#b11602" stroke="#000000"></path><path d="M548 147.3L543 94.9L472 146.6Z" fill="#d73402" stroke="#000000"></path><path d="M584 152.7L564 133.9L548 147.3Z" fill="#8a0000" stroke="#000000"></path><path d="M305 135.7L260 200.4L306 193.1Z" fill="#c42602" stroke="#000000"></path><path d="M235 316.1L235 354.9L273 352.9Z" fill="#9e0000" stroke="#000000"></path><path d="M385 565.4L465 520.1L437 486.4Z" fill="#c42602" stroke="#000000"></path><path d="M437 486.4L465 520.1L453 489.1Z" fill="#b11602" stroke="#000000"></path><path d="M519 514.6L551 497.6L541 462.6Z" fill="#650000" stroke="#000000"></path><path d="M361 517.6L409 459.7L380 456.7Z" fill="#9e0000" stroke="#000000"></path><path d="M626 299.7L654 266.3L626 267.1Z" fill="#8a0000" stroke="#000000"></path><path d="M630 263.9L665 244.3L620 211.3Z" fill="#770000" stroke="#000000"></path><path d="M620 211.3L631 142.4L603 206.6Z" fill="#540000" stroke="#000000"></path><path d="M656 383.9L626 299.7L609 340.9Z" fill="#000000" stroke="#000000"></path><path d="M235 354.9L243 385.6L273 352.9Z" fill="#9e0000" stroke="#000000"></path><path d="M519 514.6L541 462.6L466 500.1Z" fill="#b11602" stroke="#000000"></path><path d="M541 462.6L551 497.6L550 449.4Z" fill="#770000" stroke="#000000"></path><path d="M235 354.9L236 380.9L243 385.6Z" fill="#c42602" stroke="#000000"></path><path d="M216 202L249 203.6L210 151.7Z" fill="#b11602" stroke="#000000"></path><path d="M260 200.4L249 203.6L256 242.4Z" fill="#000000" stroke="#000000"></path><path d="M247 241L221 236.3L235 316.1Z" fill="#000000" stroke="#000000"></path><path d="M368 88.6L305 135.7L376 128.3Z" fill="#9e0000" stroke="#000000"></path><path d="M376 128.3L305 135.7L371 159.7Z" fill="#000000" stroke="#000000"></path><path d="M479 528.3L519 514.6L466 500.1Z" fill="#000000" stroke="#000000"></path><path d="M440 0L418 85.9L457 102.4Z" fill="#8a0000" stroke="#000000"></path><path d="M457 102.4L418 85.9L436 163.4Z" fill="#650000" stroke="#000000"></path><path d="M465 520.1L479 528.3L466 500.1Z" fill="#770000" stroke="#000000"></path><path d="M270 471.6L350 369.6L243 385.6Z" fill="#8a0000" stroke="#000000"></path><path d="M311 513.4L361 517.6L380 456.7Z" fill="#540000" stroke="#000000"></path><path d="M465 520.1L472 600L479 528.3Z" fill="#b11602" stroke="#000000"></path><path d="M637 463.3L656 383.9L597 412.9Z" fill="#8a0000" stroke="#000000"></path><path d="M597 412.9L656 383.9L609 340.9Z" fill="#fe5000" stroke="#000000"></path><path d="M551 497.6L610 462.6L550 449.4Z" fill="#d73402" stroke="#000000"></path><path d="M678 266.1L665 244.3L654 266.3Z" fill="#650000" stroke="#000000"></path><path d="M654 266.3L665 244.3L630 263.9Z" fill="#9e0000" stroke="#000000"></path><path d="M418 85.9L368 88.6L376 128.3Z" fill="#fe5000" stroke="#000000"></path><path d="M216 202L221 236.3L249 203.6Z" fill="#000000" stroke="#000000"></path><path d="M249 203.6L221 236.3L247 241Z" fill="#000000" stroke="#000000"></path><path d="M193 374.4L236 380.9L235 354.9Z" fill="#c42602" stroke="#000000"></path><path d="M193 374.4L204 402.9L236 380.9Z" fill="#eb4202" stroke="#000000"></path><path d="M573 95.9L543 94.9L564 133.9Z" fill="#650000" stroke="#000000"></path><path d="M564 133.9L543 94.9L548 147.3Z" fill="#540000" stroke="#000000"></path><path d="M573 95.9L564 133.9L620 119.9Z" fill="#c42602" stroke="#000000"></path><path d="M536 552.1L513 534.3L540 577.3Z" fill="#c42602" stroke="#000000"></path><path d="M479 528.3L513 534.3L519 514.6Z" fill="#fe5000" stroke="#000000"></path><path d="M519 514.6L551 534.1L551 497.6Z" fill="#9e0000" stroke="#000000"></path><path d="M603 505.6L637 463.3L610 462.6Z" fill="#fe5000" stroke="#000000"></path><path d="M706 357L678 266.1L626 299.7Z" fill="#8a0000" stroke="#000000"></path><path d="M220 465.1L270 471.6L243 385.6Z" fill="#eb4202" stroke="#000000"></path><path d="M220 465.1L269 475.7L270 471.6Z" fill="#b11602" stroke="#000000"></path><path d="M270 471.6L311 513.4L380 456.7Z" fill="#9e0000" stroke="#000000"></path><path d="M269 475.7L311 513.4L270 471.6Z" fill="#650000" stroke="#000000"></path><path d="M540 577.3L513 534.3L472 600Z" fill="#650000" stroke="#000000"></path><path d="M620 119.9L564 133.9L584 152.7Z" fill="#b11602" stroke="#000000"></path><path d="M543 94.9L545 59.7L457 102.4Z" fill="#eb4202" stroke="#000000"></path><path d="M603 505.6L610 462.6L551 497.6Z" fill="#fe5000" stroke="#000000"></path><path d="M610 462.6L637 463.3L597 412.9Z" fill="#650000" stroke="#000000"></path><path d="M305 515.6L322 524.6L311 513.4Z" fill="#770000" stroke="#000000"></path><path d="M311 513.4L322 524.6L361 517.6Z" fill="#eb4202" stroke="#000000"></path><path d="M681 134.7L631 142.4L620 211.3Z" fill="#8a0000" stroke="#000000"></path><path d="M712 215L620 211.3L665 244.3Z" fill="#fe5000" stroke="#000000"></path><path d="M269 475.7L305 515.6L311 513.4Z" fill="#b11602" stroke="#000000"></path><path d="M210 151.7L249 203.6L260 200.4Z" fill="#b11602" stroke="#000000"></path><path d="M193 374.4L235 354.9L181 353.7Z" fill="#c42602" stroke="#000000"></path><path d="M261 103.6L260 200.4L305 135.7Z" fill="#650000" stroke="#000000"></path><path d="M513 534.3L551 534.1L519 514.6Z" fill="#770000" stroke="#000000"></path><path d="M551 534.1L603 505.6L551 497.6Z" fill="#eb4202" stroke="#000000"></path><path d="M269 475.7L301 519.4L305 515.6Z" fill="#9e0000" stroke="#000000"></path><path d="M305 515.6L301 519.4L322 524.6Z" fill="#8a0000" stroke="#000000"></path><path d="M631 142.4L620 119.9L584 152.7Z" fill="#eb4202" stroke="#000000"></path><path d="M235 354.9L235 316.1L181 353.7Z" fill="#b11602" stroke="#000000"></path><path d="M236 380.9L204 402.9L243 385.6Z" fill="#fe5000" stroke="#000000"></path><path d="M269 475.7L285 567.1L301 519.4Z" fill="#8a0000" stroke="#000000"></path><path d="M179 298L235 316.1L221 236.3Z" fill="#770000" stroke="#000000"></path><path d="M513 534.3L536 552.1L551 534.1Z" fill="#8a0000" stroke="#000000"></path><path d="M551 534.1L553 547.4L603 505.6Z" fill="#9e0000" stroke="#000000"></path><path d="M385 565.4L437 486.4L361 517.6Z" fill="#fe5000" stroke="#000000"></path><path d="M536 552.1L546 549.3L551 534.1Z" fill="#540000" stroke="#000000"></path><path d="M540 577.3L553 547.4L546 549.3Z" fill="#c42602" stroke="#000000"></path><path d="M546 549.3L553 547.4L551 534.1Z" fill="#c42602" stroke="#000000"></path><path d="M173 268.4L179 298L221 236.3Z" fill="#b11602" stroke="#000000"></path><path d="M352 575.3L361 517.6L322 524.6Z" fill="#9e0000" stroke="#000000"></path><path d="M352 575.3L385 565.4L361 517.6Z" fill="#b11602" stroke="#000000"></path><path d="M179 298L181 353.7L235 316.1Z" fill="#650000" stroke="#000000"></path><path d="M172 401.4L188 432.7L204 402.9Z" fill="#fe5000" stroke="#000000"></path><path d="M710 377.9L706 357L656 383.9Z" fill="#770000" stroke="#000000"></path><path d="M656 383.9L706 357L626 299.7Z" fill="#650000" stroke="#000000"></path><path d="M630 76.9L545 59.7L573 95.9Z" fill="#9e0000" stroke="#000000"></path><path d="M573 95.9L545 59.7L543 94.9Z" fill="#650000" stroke="#000000"></path><path d="M418 85.9L354 25.7L368 88.6Z" fill="#c42602" stroke="#000000"></path><path d="M630 76.9L613 96.6L620 119.9Z" fill="#b11602" stroke="#000000"></path><path d="M620 119.9L613 96.6L573 95.9Z" fill="#650000" stroke="#000000"></path><path d="M172 250.1L173 268.4L221 236.3Z" fill="#eb4202" stroke="#000000"></path><path d="M158 402.9L172 401.4L181 353.7Z" fill="#b11602" stroke="#000000"></path><path d="M325 28.6L305 135.7L368 88.6Z" fill="#540000" stroke="#000000"></path><path d="M325 28.6L261 103.6L305 135.7Z" fill="#770000" stroke="#000000"></path><path d="M216 202L172 250.1L221 236.3Z" fill="#650000" stroke="#000000"></path><path d="M214 474.1L220 465.1L188 432.7Z" fill="#540000" stroke="#000000"></path><path d="M204 402.9L220 465.1L243 385.6Z" fill="#b11602" stroke="#000000"></path><path d="M711 392.4L710 377.9L656 383.9Z" fill="#d73402" stroke="#000000"></path><path d="M702 408.4L656 383.9L696 444.6Z" fill="#c42602" stroke="#000000"></path><path d="M165 244L172 250.1L216 202Z" fill="#9e0000" stroke="#000000"></path><path d="M696 444.6L656 383.9L637 463.3Z" fill="#540000" stroke="#000000"></path><path d="M261 103.6L210 151.7L260 200.4Z" fill="#fe5000" stroke="#000000"></path><path d="M702 408.4L711 392.4L656 383.9Z" fill="#650000" stroke="#000000"></path><path d="M740 378.7L723 344.7L710 377.9Z" fill="#650000" stroke="#000000"></path><path d="M710 377.9L723 344.7L706 357Z" fill="#fe5000" stroke="#000000"></path><path d="M706 357L723 344.7L678 266.1Z" fill="#eb4202" stroke="#000000"></path><path d="M678 266.1L718 237.3L665 244.3Z" fill="#c42602" stroke="#000000"></path><path d="M631 142.4L681 134.7L620 119.9Z" fill="#fe5000" stroke="#000000"></path><path d="M285 567.1L352 575.3L322 524.6Z" fill="#770000" stroke="#000000"></path><path d="M472 600L513 534.3L479 528.3Z" fill="#000000" stroke="#000000"></path><path d="M357 589.3L352 575.3L305 593.3Z" fill="#650000" stroke="#000000"></path><path d="M775 278.9L718 237.3L678 266.1Z" fill="#540000" stroke="#000000"></path><path d="M188 432.7L220 465.1L204 402.9Z" fill="#770000" stroke="#000000"></path><path d="M220 465.1L214 474.1L269 475.7Z" fill="#8a0000" stroke="#000000"></path><path d="M718 237.3L712 215L665 244.3Z" fill="#8a0000" stroke="#000000"></path><path d="M172 401.4L204 402.9L193 374.4Z" fill="#c42602" stroke="#000000"></path><path d="M172 401.4L193 374.4L181 353.7Z" fill="#d73402" stroke="#000000"></path><path d="M172 250.1L165 244L173 268.4Z" fill="#770000" stroke="#000000"></path><path d="M119 325.1L181 353.7L179 298Z" fill="#540000" stroke="#000000"></path><path d="M185 173.6L165 244L216 202Z" fill="#eb4202" stroke="#000000"></path><path d="M472 600L465 520.1L406 600Z" fill="#b11602" stroke="#000000"></path><path d="M536 552.1L540 577.3L546 549.3Z" fill="#650000" stroke="#000000"></path><path d="M553 547.4L646 549.1L603 505.6Z" fill="#9e0000" stroke="#000000"></path><path d="M680 485.4L696 444.6L637 463.3Z" fill="#540000" stroke="#000000"></path><path d="M158 402.9L181 353.7L119 354.6Z" fill="#540000" stroke="#000000"></path><path d="M721 434.3L740 378.7L711 392.4Z" fill="#8a0000" stroke="#000000"></path><path d="M680 485.4L637 463.3L603 505.6Z" fill="#eb4202" stroke="#000000"></path><path d="M164 169.7L185 173.6L171 132.4Z" fill="#540000" stroke="#000000"></path><path d="M210 151.7L185 173.6L216 202Z" fill="#770000" stroke="#000000"></path><path d="M712 215L681 134.7L620 211.3Z" fill="#eb4202" stroke="#000000"></path><path d="M406 600L465 520.1L385 565.4Z" fill="#b11602" stroke="#000000"></path><path d="M285 567.1L322 524.6L301 519.4Z" fill="#9e0000" stroke="#000000"></path><path d="M352 575.3L357 589.3L385 565.4Z" fill="#770000" stroke="#000000"></path><path d="M398 600L406 600L385 565.4Z" fill="#8a0000" stroke="#000000"></path><path d="M395 0L354 25.7L418 85.9Z" fill="#d73402" stroke="#000000"></path><path d="M646 549.1L680 485.4L603 505.6Z" fill="#650000" stroke="#000000"></path><path d="M357 589.3L398 600L385 565.4Z" fill="#000000" stroke="#000000"></path><path d="M664 84.4L630 76.9L620 119.9Z" fill="#000000" stroke="#000000"></path><path d="M613 96.6L630 76.9L573 95.9Z" fill="#650000" stroke="#000000"></path><path d="M133 507.3L146 520.1L214 474.1Z" fill="#650000" stroke="#000000"></path><path d="M172 401.4L158 402.9L188 432.7Z" fill="#c42602" stroke="#000000"></path><path d="M119 325.1L179 298L173 268.4Z" fill="#fe5000" stroke="#000000"></path><path d="M354 25.7L325 28.6L368 88.6Z" fill="#eb4202" stroke="#000000"></path><path d="M171 132.4L185 173.6L210 151.7Z" fill="#8a0000" stroke="#000000"></path><path d="M279 600L285 567.1L227 600Z" fill="#650000" stroke="#000000"></path><path d="M214 474.1L285 567.1L269 475.7Z" fill="#650000" stroke="#000000"></path><path d="M472 600L529 600L540 577.3Z" fill="#b11602" stroke="#000000"></path><path d="M571 600L646 549.1L553 547.4Z" fill="#b11602" stroke="#000000"></path><path d="M711 392.4L740 378.7L710 377.9Z" fill="#770000" stroke="#000000"></path><path d="M723 344.7L769 319.1L678 266.1Z" fill="#9e0000" stroke="#000000"></path><path d="M721 434.3L711 392.4L702 408.4Z" fill="#000000" stroke="#000000"></path><path d="M721 434.3L702 408.4L696 444.6Z" fill="#000000" stroke="#000000"></path><path d="M744 477.1L721 434.3L696 444.6Z" fill="#b11602" stroke="#000000"></path><path d="M534 0L440 0L545 59.7Z" fill="#eb4202" stroke="#000000"></path><path d="M545 59.7L440 0L457 102.4Z" fill="#eb4202" stroke="#000000"></path><path d="M354 25.7L355 0L325 28.6Z" fill="#8a0000" stroke="#000000"></path><path d="M529 600L540 600L540 577.3Z" fill="#650000" stroke="#000000"></path><path d="M440 0L409 0L418 85.9Z" fill="#650000" stroke="#000000"></path><path d="M409 0L395 0L418 85.9Z" fill="#b11602" stroke="#000000"></path><path d="M181 120.3L210 151.7L213 72.6Z" fill="#540000" stroke="#000000"></path><path d="M185 173.6L164 169.7L165 244Z" fill="#d73402" stroke="#000000"></path><path d="M91 289.1L119 325.1L173 268.4Z" fill="#650000" stroke="#000000"></path><path d="M725 171.7L701 130.4L681 134.7Z" fill="#9e0000" stroke="#000000"></path><path d="M681 134.7L664 84.4L620 119.9Z" fill="#540000" stroke="#000000"></path><path d="M725 171.7L681 134.7L712 215Z" fill="#000000" stroke="#000000"></path><path d="M775 164.4L725 171.7L712 215Z" fill="#650000" stroke="#000000"></path><path d="M775 164.4L712 215L718 237.3Z" fill="#fe5000" stroke="#000000"></path><path d="M695 78.9L664 84.4L681 134.7Z" fill="#d73402" stroke="#000000"></path><path d="M602 -11.1L534 0L545 59.7Z" fill="#d73402" stroke="#000000"></path><path d="M571 600L553 547.4L540 577.3Z" fill="#650000" stroke="#000000"></path><path d="M680 485.4L744 477.1L696 444.6Z" fill="#b11602" stroke="#000000"></path><path d="M769 319.1L759 331.7L779 345.1Z" fill="#8a0000" stroke="#000000"></path><path d="M740 378.7L759 331.7L723 344.7Z" fill="#fe5000" stroke="#000000"></path><path d="M285 567.1L305 593.3L352 575.3Z" fill="#650000" stroke="#000000"></path><path d="M357 589.3L406 642.1L398 600Z" fill="#770000" stroke="#000000"></path><path d="M279 600L305 593.3L285 567.1Z" fill="#8a0000" stroke="#000000"></path><path d="M540 600L571 600L540 577.3Z" fill="#540000" stroke="#000000"></path><path d="M395 0L355 0L354 25.7Z" fill="#b11602" stroke="#000000"></path><path d="M325 28.6L288 26.9L261 103.6Z" fill="#650000" stroke="#000000"></path><path d="M602 -11.1L545 59.7L630 76.9Z" fill="#650000" stroke="#000000"></path><path d="M301 0L288 26.9L325 28.6Z" fill="#c42602" stroke="#000000"></path><path d="M213 72.6L210 151.7L261 103.6Z" fill="#fe5000" stroke="#000000"></path><path d="M181 120.3L171 132.4L210 151.7Z" fill="#c42602" stroke="#000000"></path><path d="M695 78.9L673 77.9L664 84.4Z" fill="#540000" stroke="#000000"></path><path d="M664 84.4L648 35.7L630 76.9Z" fill="#8a0000" stroke="#000000"></path><path d="M695 78.9L681 134.7L701 130.4Z" fill="#eb4202" stroke="#000000"></path><path d="M91 289.1L165 244L54 230Z" fill="#eb4202" stroke="#000000"></path><path d="M91 289.1L173 268.4L165 244Z" fill="#540000" stroke="#000000"></path><path d="M779 345.1L759 331.7L740 378.7Z" fill="#000000" stroke="#000000"></path><path d="M759 331.7L769 319.1L723 344.7Z" fill="#540000" stroke="#000000"></path><path d="M288 26.9L220 67.7L261 103.6Z" fill="#c42602" stroke="#000000"></path><path d="M181 120.3L149 128.4L171 132.4Z" fill="#9e0000" stroke="#000000"></path><path d="M119 325.1L119 354.6L181 353.7Z" fill="#540000" stroke="#000000"></path><path d="M227 600L285 567.1L214 474.1Z" fill="#c42602" stroke="#000000"></path><path d="M220 67.7L213 72.6L261 103.6Z" fill="#650000" stroke="#000000"></path><path d="M769 319.1L775 278.9L678 266.1Z" fill="#650000" stroke="#000000"></path><path d="M103 434.6L188 432.7L158 402.9Z" fill="#9e0000" stroke="#000000"></path><path d="M288 613.3L406 642.1L357 589.3Z" fill="#000000" stroke="#000000"></path><path d="M406 600L406 642.1L472 600Z" fill="#9e0000" stroke="#000000"></path><path d="M472 600L406 642.1L529 600Z" fill="#c42602" stroke="#000000"></path><path d="M529 600L406 642.1L540 600Z" fill="#fe5000" stroke="#000000"></path><path d="M540 600L406 642.1L571 600Z" fill="#b11602" stroke="#000000"></path><path d="M398 600L406 642.1L406 600Z" fill="#b11602" stroke="#000000"></path><path d="M288 613.3L357 589.3L305 593.3Z" fill="#000000" stroke="#000000"></path><path d="M790 383.4L779 345.1L740 378.7Z" fill="#650000" stroke="#000000"></path><path d="M821 313.3L802 255L775 278.9Z" fill="#8a0000" stroke="#000000"></path><path d="M355 0L301 0L325 28.6Z" fill="#d73402" stroke="#000000"></path><path d="M288 26.9L228 12.9L220 67.7Z" fill="#8a0000" stroke="#000000"></path><path d="M220 67.7L191 41.7L213 72.6Z" fill="#770000" stroke="#000000"></path><path d="M721 65.6L695 78.9L701 130.4Z" fill="#8a0000" stroke="#000000"></path><path d="M673 77.9L648 35.7L664 84.4Z" fill="#d73402" stroke="#000000"></path><path d="M765 107.7L701 130.4L725 171.7Z" fill="#770000" stroke="#000000"></path><path d="M695 78.9L648 35.7L673 77.9Z" fill="#d73402" stroke="#000000"></path><path d="M279 600L288 613.3L305 593.3Z" fill="#650000" stroke="#000000"></path><path d="M157 80.4L149 128.4L181 120.3Z" fill="#c42602" stroke="#000000"></path><path d="M171 132.4L149 128.4L164 169.7Z" fill="#540000" stroke="#000000"></path><path d="M762 517.6L744 477.1L680 485.4Z" fill="#fe5000" stroke="#000000"></path><path d="M721 434.3L792 399L740 378.7Z" fill="#b11602" stroke="#000000"></path><path d="M104 383L110 398.7L119 354.6Z" fill="#c42602" stroke="#000000"></path><path d="M119 354.6L110 398.7L158 402.9Z" fill="#d73402" stroke="#000000"></path><path d="M279 600L227 600L288 613.3Z" fill="#770000" stroke="#000000"></path><path d="M82 343.6L119 354.6L119 325.1Z" fill="#fe5000" stroke="#000000"></path><path d="M82 343.6L104 383L119 354.6Z" fill="#d73402" stroke="#000000"></path><path d="M744 477.1L758 459.1L721 434.3Z" fill="#000000" stroke="#000000"></path><path d="M54 230L165 244L164 169.7Z" fill="#eb4202" stroke="#000000"></path><path d="M792 399L790 383.4L740 378.7Z" fill="#650000" stroke="#000000"></path><path d="M821 313.3L775 278.9L769 319.1Z" fill="#d73402" stroke="#000000"></path><path d="M648 35.7L602 -11.1L630 76.9Z" fill="#770000" stroke="#000000"></path><path d="M534 0L602 -11.1L440 0Z" fill="#000000" stroke="#000000"></path><path d="M440 0L299 -27.1L409 0Z" fill="#650000" stroke="#000000"></path><path d="M409 0L299 -27.1L395 0Z" fill="#b11602" stroke="#000000"></path><path d="M395 0L299 -27.1L355 0Z" fill="#8a0000" stroke="#000000"></path><path d="M355 0L299 -27.1L301 0Z" fill="#b11602" stroke="#000000"></path><path d="M652 0L602 -11.1L648 35.7Z" fill="#d73402" stroke="#000000"></path><path d="M571 600L648 600L646 549.1Z" fill="#540000" stroke="#000000"></path><path d="M646 549.1L762 517.6L680 485.4Z" fill="#8a0000" stroke="#000000"></path><path d="M761 624.1L648 600L571 600Z" fill="#770000" stroke="#000000"></path><path d="M56 391.4L97 394.7L104 383Z" fill="#650000" stroke="#000000"></path><path d="M104 383L97 394.7L110 398.7Z" fill="#770000" stroke="#000000"></path><path d="M110 398.7L103 434.6L158 402.9Z" fill="#8a0000" stroke="#000000"></path><path d="M744 477.1L770 457.6L758 459.1Z" fill="#b11602" stroke="#000000"></path><path d="M781 451.4L792 399L721 434.3Z" fill="#9e0000" stroke="#000000"></path><path d="M781 451.4L770 457.6L762 517.6Z" fill="#9e0000" stroke="#000000"></path><path d="M781 451.4L721 434.3L758 459.1Z" fill="#8a0000" stroke="#000000"></path><path d="M802 255L718 237.3L775 278.9Z" fill="#c42602" stroke="#000000"></path><path d="M802 255L775 164.4L718 237.3Z" fill="#b11602" stroke="#000000"></path><path d="M769 319.1L779 345.1L821 313.3Z" fill="#d73402" stroke="#000000"></path><path d="M821 313.3L779 345.1L818 362.6Z" fill="#000000" stroke="#000000"></path><path d="M67 328.1L82 343.6L119 325.1Z" fill="#b11602" stroke="#000000"></path><path d="M56 391.4L103 434.6L97 394.7Z" fill="#000000" stroke="#000000"></path><path d="M97 394.7L103 434.6L110 398.7Z" fill="#d73402" stroke="#000000"></path><path d="M221 600L227 600L214 474.1Z" fill="#770000" stroke="#000000"></path><path d="M288 613.3L137 641.1L406 642.1Z" fill="#9e0000" stroke="#000000"></path><path d="M602 -11.1L299 -27.1L440 0Z" fill="#b11602" stroke="#000000"></path><path d="M301 0L228 12.9L288 26.9Z" fill="#fe5000" stroke="#000000"></path><path d="M213 72.6L157 80.4L181 120.3Z" fill="#540000" stroke="#000000"></path><path d="M299 -27.1L228 12.9L301 0Z" fill="#650000" stroke="#000000"></path><path d="M191 41.7L157 80.4L213 72.6Z" fill="#540000" stroke="#000000"></path><path d="M0 288.7L67 328.1L91 289.1Z" fill="#fe5000" stroke="#000000"></path><path d="M133 507.3L214 474.1L188 432.7Z" fill="#d73402" stroke="#000000"></path><path d="M228 12.9L191 41.7L220 67.7Z" fill="#8a0000" stroke="#000000"></path><path d="M762 517.6L770 457.6L744 477.1Z" fill="#540000" stroke="#000000"></path><path d="M770 457.6L781 451.4L758 459.1Z" fill="#b11602" stroke="#000000"></path><path d="M146 520.1L221 600L214 474.1Z" fill="#650000" stroke="#000000"></path><path d="M227 600L137 641.1L288 613.3Z" fill="#000000" stroke="#000000"></path><path d="M765 107.7L721 65.6L701 130.4Z" fill="#fe5000" stroke="#000000"></path><path d="M695 78.9L675 0L648 35.7Z" fill="#8a0000" stroke="#000000"></path><path d="M103 434.6L133 507.3L188 432.7Z" fill="#000000" stroke="#000000"></path><path d="M146 520.1L180 600L221 600Z" fill="#eb4202" stroke="#000000"></path><path d="M669 0L652 0L648 35.7Z" fill="#000000" stroke="#000000"></path><path d="M91 289.1L67 328.1L119 325.1Z" fill="#eb4202" stroke="#000000"></path><path d="M82 343.6L56 391.4L104 383Z" fill="#fe5000" stroke="#000000"></path><path d="M91 124.9L164 169.7L149 128.4Z" fill="#9e0000" stroke="#000000"></path><path d="M761 624.1L682 600L648 600Z" fill="#b11602" stroke="#000000"></path><path d="M648 600L682 600L646 549.1Z" fill="#c42602" stroke="#000000"></path><path d="M818 362.6L790 383.4L792 399Z" fill="#9e0000" stroke="#000000"></path><path d="M818 362.6L779 345.1L790 383.4Z" fill="#9e0000" stroke="#000000"></path><path d="M804 125.9L765 107.7L775 164.4Z" fill="#9e0000" stroke="#000000"></path><path d="M823 179.6L775 164.4L802 255Z" fill="#9e0000" stroke="#000000"></path><path d="M775 164.4L765 107.7L725 171.7Z" fill="#fe5000" stroke="#000000"></path><path d="M828 361L818 362.6L792 399Z" fill="#770000" stroke="#000000"></path><path d="M299 -27.1L219 0L228 12.9Z" fill="#9e0000" stroke="#000000"></path><path d="M228 12.9L198 0L191 41.7Z" fill="#000000" stroke="#000000"></path><path d="M152 0L108 88.4L157 80.4Z" fill="#c42602" stroke="#000000"></path><path d="M675 0L695 78.9L721 65.6Z" fill="#fe5000" stroke="#000000"></path><path d="M675 0L669 0L648 35.7Z" fill="#eb4202" stroke="#000000"></path><path d="M652 0L669 0L602 -11.1Z" fill="#9e0000" stroke="#000000"></path><path d="M725 600L762 517.6L646 549.1Z" fill="#000000" stroke="#000000"></path><path d="M818 449.3L828 361L792 399Z" fill="#c42602" stroke="#000000"></path><path d="M740 40.6L675 0L721 65.6Z" fill="#fe5000" stroke="#000000"></path><path d="M669 0L803 -51.1L602 -11.1Z" fill="#770000" stroke="#000000"></path><path d="M826 77.4L759 81.7L765 107.7Z" fill="#eb4202" stroke="#000000"></path><path d="M765 107.7L759 81.7L721 65.6Z" fill="#d73402" stroke="#000000"></path><path d="M818 362.6L828 361L821 313.3Z" fill="#eb4202" stroke="#000000"></path><path d="M818 449.3L792 399L781 451.4Z" fill="#540000" stroke="#000000"></path><path d="M108 526.4L133 507.3L93 526.1Z" fill="#c42602" stroke="#000000"></path><path d="M108 526.4L134 542.1L133 507.3Z" fill="#b11602" stroke="#000000"></path><path d="M133 507.3L134 542.1L146 520.1Z" fill="#b11602" stroke="#000000"></path><path d="M299 -27.1L202 -1.1L219 0Z" fill="#b11602" stroke="#000000"></path><path d="M219 0L202 -1.1L228 12.9Z" fill="#650000" stroke="#000000"></path><path d="M202 -1.1L198 0L228 12.9Z" fill="#8a0000" stroke="#000000"></path><path d="M134 542.1L180 600L146 520.1Z" fill="#650000" stroke="#000000"></path><path d="M221 600L137 641.1L227 600Z" fill="#650000" stroke="#000000"></path><path d="M37 344.9L56 391.4L82 343.6Z" fill="#650000" stroke="#000000"></path><path d="M108 88.4L149 128.4L157 80.4Z" fill="#8a0000" stroke="#000000"></path><path d="M108 88.4L91 124.9L149 128.4Z" fill="#770000" stroke="#000000"></path><path d="M67 328.1L37 344.9L82 343.6Z" fill="#d73402" stroke="#000000"></path><path d="M42 188.3L54 230L164 169.7Z" fill="#000000" stroke="#000000"></path><path d="M759 81.7L740 40.6L721 65.6Z" fill="#eb4202" stroke="#000000"></path><path d="M152 0L157 80.4L191 41.7Z" fill="#8a0000" stroke="#000000"></path><path d="M862 240.4L823 179.6L802 255Z" fill="#000000" stroke="#000000"></path><path d="M800 0L739 0L740 40.6Z" fill="#770000" stroke="#000000"></path><path d="M859 272.1L802 255L821 313.3Z" fill="#fe5000" stroke="#000000"></path><path d="M93 526.1L133 507.3L103 434.6Z" fill="#8a0000" stroke="#000000"></path><path d="M134 542.1L130 585.3L180 600Z" fill="#d73402" stroke="#000000"></path><path d="M846 487.1L818 449.3L781 451.4Z" fill="#8a0000" stroke="#000000"></path><path d="M823 179.6L804 125.9L775 164.4Z" fill="#770000" stroke="#000000"></path><path d="M900 381L847 342.9L828 361Z" fill="#eb4202" stroke="#000000"></path><path d="M828 361L847 342.9L821 313.3Z" fill="#540000" stroke="#000000"></path><path d="M108 88.4L86 114.3L91 124.9Z" fill="#650000" stroke="#000000"></path><path d="M91 124.9L42 188.3L164 169.7Z" fill="#650000" stroke="#000000"></path><path d="M761 624.1L725 600L682 600Z" fill="#c42602" stroke="#000000"></path><path d="M682 600L725 600L646 549.1Z" fill="#b11602" stroke="#000000"></path><path d="M846 487.1L844 461.7L818 449.3Z" fill="#c42602" stroke="#000000"></path><path d="M0 288.7L37 344.9L67 328.1Z" fill="#9e0000" stroke="#000000"></path><path d="M44 537.3L93 526.1L0 482.4Z" fill="#c42602" stroke="#000000"></path><path d="M85 542.3L93 526.1L44 537.3Z" fill="#000000" stroke="#000000"></path><path d="M85 542.3L130 585.3L134 542.1Z" fill="#d73402" stroke="#000000"></path><path d="M847 342.9L859 272.1L821 313.3Z" fill="#9e0000" stroke="#000000"></path><path d="M883 151.3L826 77.4L804 125.9Z" fill="#b11602" stroke="#000000"></path><path d="M202 -1.1L160 -0.1L198 0Z" fill="#b11602" stroke="#000000"></path><path d="M198 0L160 -0.1L191 41.7Z" fill="#8a0000" stroke="#000000"></path><path d="M0 142.7L26 154.7L3 112.6Z" fill="#650000" stroke="#000000"></path><path d="M299 -27.1L160 -0.1L202 -1.1Z" fill="#000000" stroke="#000000"></path><path d="M38 169.3L42 188.3L91 124.9Z" fill="#770000" stroke="#000000"></path><path d="M0 279.1L0 288.7L91 289.1Z" fill="#000000" stroke="#000000"></path><path d="M85 542.3L134 542.1L108 526.4Z" fill="#c42602" stroke="#000000"></path><path d="M103 600L139 600L130 585.3Z" fill="#650000" stroke="#000000"></path><path d="M130 585.3L139 600L180 600Z" fill="#650000" stroke="#000000"></path><path d="M180 600L137 641.1L221 600Z" fill="#540000" stroke="#000000"></path><path d="M299 -27.1L152 0L160 -0.1Z" fill="#fe5000" stroke="#000000"></path><path d="M160 -0.1L152 0L191 41.7Z" fill="#8a0000" stroke="#000000"></path><path d="M26 154.7L38 169.3L91 124.9Z" fill="#9e0000" stroke="#000000"></path><path d="M859 272.1L862 240.4L802 255Z" fill="#8a0000" stroke="#000000"></path><path d="M800 0L740 40.6L759 81.7Z" fill="#eb4202" stroke="#000000"></path><path d="M740 40.6L739 0L675 0Z" fill="#000000" stroke="#000000"></path><path d="M675 0L803 -51.1L669 0Z" fill="#9e0000" stroke="#000000"></path><path d="M26 154.7L91 124.9L86 114.3Z" fill="#b11602" stroke="#000000"></path><path d="M0 279.1L91 289.1L54 230Z" fill="#8a0000" stroke="#000000"></path><path d="M0 424.6L103 434.6L56 391.4Z" fill="#d73402" stroke="#000000"></path><path d="M93 526.1L85 542.3L108 526.4Z" fill="#fe5000" stroke="#000000"></path><path d="M846 487.1L781 451.4L762 517.6Z" fill="#c42602" stroke="#000000"></path><path d="M818 449.3L844 461.7L828 361Z" fill="#eb4202" stroke="#000000"></path><path d="M847 342.9L900 328.9L859 272.1Z" fill="#fe5000" stroke="#000000"></path><path d="M859 272.1L900 281.3L862 240.4Z" fill="#fe5000" stroke="#000000"></path><path d="M842 536.4L846 487.1L762 517.6Z" fill="#d73402" stroke="#000000"></path><path d="M900 381L900 328.9L847 342.9Z" fill="#c42602" stroke="#000000"></path><path d="M0 279.1L54 230L0 230.3Z" fill="#8a0000" stroke="#000000"></path><path d="M37 344.9L0 363.9L56 391.4Z" fill="#650000" stroke="#000000"></path><path d="M0 230.3L54 230L42 188.3Z" fill="#9e0000" stroke="#000000"></path><path d="M3 112.6L86 114.3L0 102.6Z" fill="#770000" stroke="#000000"></path><path d="M38 169.3L0 194.4L42 188.3Z" fill="#650000" stroke="#000000"></path><path d="M0 288.7L0 354L37 344.9Z" fill="#8a0000" stroke="#000000"></path><path d="M883 151.3L804 125.9L823 179.6Z" fill="#b11602" stroke="#000000"></path><path d="M804 125.9L826 77.4L765 107.7Z" fill="#650000" stroke="#000000"></path><path d="M0 354L0 363.9L37 344.9Z" fill="#fe5000" stroke="#000000"></path><path d="M406 642.1L761 624.1L571 600Z" fill="#770000" stroke="#000000"></path><path d="M725 600L761 624.1L762 517.6Z" fill="#8a0000" stroke="#000000"></path><path d="M85 542.3L103 600L130 585.3Z" fill="#9e0000" stroke="#000000"></path><path d="M139 600L137 641.1L180 600Z" fill="#eb4202" stroke="#000000"></path><path d="M61 572.3L103 600L85 542.3Z" fill="#650000" stroke="#000000"></path><path d="M0 194.4L0 230.3L42 188.3Z" fill="#9e0000" stroke="#000000"></path><path d="M103 600L137 641.1L139 600Z" fill="#000000" stroke="#000000"></path><path d="M900 381L828 361L844 461.7Z" fill="#770000" stroke="#000000"></path><path d="M900 206.1L883 151.3L823 179.6Z" fill="#d73402" stroke="#000000"></path><path d="M900 328.9L900 281.3L859 272.1Z" fill="#b11602" stroke="#000000"></path><path d="M26 154.7L0 194.4L38 169.3Z" fill="#650000" stroke="#000000"></path><path d="M0 363.9L0 424.6L56 391.4Z" fill="#b11602" stroke="#000000"></path><path d="M827 600L842 536.4L762 517.6Z" fill="#9e0000" stroke="#000000"></path><path d="M900 456.7L900 381L844 461.7Z" fill="#000000" stroke="#000000"></path><path d="M0 482.4L93 526.1L103 434.6Z" fill="#540000" stroke="#000000"></path><path d="M103 600L37 600L137 641.1Z" fill="#770000" stroke="#000000"></path><path d="M900 456.7L844 461.7L900 477.4Z" fill="#d73402" stroke="#000000"></path><path d="M44 537.3L61 572.3L85 542.3Z" fill="#000000" stroke="#000000"></path><path d="M900 206.1L823 179.6L862 240.4Z" fill="#540000" stroke="#000000"></path><path d="M900 281.3L900 209.6L862 240.4Z" fill="#000000" stroke="#000000"></path><path d="M900 209.6L900 206.1L862 240.4Z" fill="#8a0000" stroke="#000000"></path><path d="M-6 -24.1L89 0L152 0Z" fill="#650000" stroke="#000000"></path><path d="M152 0L89 0L108 88.4Z" fill="#d73402" stroke="#000000"></path><path d="M26 154.7L0 142.7L0 194.4Z" fill="#fe5000" stroke="#000000"></path><path d="M826 77.4L800 0L759 81.7Z" fill="#c42602" stroke="#000000"></path><path d="M739 0L803 -51.1L675 0Z" fill="#eb4202" stroke="#000000"></path><path d="M811 0L800 0L826 77.4Z" fill="#540000" stroke="#000000"></path><path d="M3 112.6L26 154.7L86 114.3Z" fill="#8a0000" stroke="#000000"></path><path d="M837 600L859 535.3L842 536.4Z" fill="#b11602" stroke="#000000"></path><path d="M842 536.4L859 535.3L846 487.1Z" fill="#fe5000" stroke="#000000"></path><path d="M0 424.6L0 482.4L103 434.6Z" fill="#eb4202" stroke="#000000"></path><path d="M0 549.3L37 600L61 572.3Z" fill="#b11602" stroke="#000000"></path><path d="M900 206.1L900 166.4L883 151.3Z" fill="#000000" stroke="#000000"></path><path d="M849 39.7L811 0L826 77.4Z" fill="#9e0000" stroke="#000000"></path><path d="M849 39.7L826 77.4L900 111.7Z" fill="#650000" stroke="#000000"></path><path d="M800 0L803 -51.1L739 0Z" fill="#650000" stroke="#000000"></path><path d="M0 482.4L14 521.4L44 537.3Z" fill="#9e0000" stroke="#000000"></path><path d="M900 477.4L844 461.7L846 487.1Z" fill="#fe5000" stroke="#000000"></path><path d="M0 363.9L-27 408.9L0 424.6Z" fill="#b11602" stroke="#000000"></path><path d="M0 424.6L-27 408.9L0 482.4Z" fill="#770000" stroke="#000000"></path><path d="M0 549.3L44 537.3L14 521.4Z" fill="#650000" stroke="#000000"></path><path d="M0 354L-27 408.9L0 363.9Z" fill="#650000" stroke="#000000"></path><path d="M0 288.7L-27 408.9L0 354Z" fill="#8a0000" stroke="#000000"></path><path d="M0 279.1L-27 408.9L0 288.7Z" fill="#770000" stroke="#000000"></path><path d="M-30 129.7L-27 408.9L0 279.1Z" fill="#c42602" stroke="#000000"></path><path d="M-30 129.7L0 279.1L0 230.3Z" fill="#650000" stroke="#000000"></path><path d="M-30 129.7L0 230.3L0 194.4Z" fill="#eb4202" stroke="#000000"></path><path d="M0 102.6L86 114.3L12 57.9Z" fill="#540000" stroke="#000000"></path><path d="M0 142.7L-30 129.7L0 194.4Z" fill="#eb4202" stroke="#000000"></path><path d="M761 624.1L827 600L762 517.6Z" fill="#540000" stroke="#000000"></path><path d="M900 495.6L900 477.4L846 487.1Z" fill="#d73402" stroke="#000000"></path><path d="M900 111.7L826 77.4L883 151.3Z" fill="#b11602" stroke="#000000"></path><path d="M900 495.6L846 487.1L859 535.3Z" fill="#8a0000" stroke="#000000"></path><path d="M900 477.4L908 457.3L900 456.7Z" fill="#d73402" stroke="#000000"></path><path d="M900 456.7L935 429.7L900 381Z" fill="#fe5000" stroke="#000000"></path><path d="M900 381L941 391L900 328.9Z" fill="#fe5000" stroke="#000000"></path><path d="M900 328.9L941 391L900 281.3Z" fill="#650000" stroke="#000000"></path><path d="M900 281.3L940 186.6L900 209.6Z" fill="#d73402" stroke="#000000"></path><path d="M900 209.6L940 186.6L900 206.1Z" fill="#540000" stroke="#000000"></path><path d="M900 206.1L940 186.6L900 166.4Z" fill="#c42602" stroke="#000000"></path><path d="M12 57.9L86 114.3L108 88.4Z" fill="#d73402" stroke="#000000"></path><path d="M3 112.6L-30 129.7L0 142.7Z" fill="#770000" stroke="#000000"></path><path d="M827 600L837 600L842 536.4Z" fill="#d73402" stroke="#000000"></path><path d="M871 608.1L837 600L900 640.1Z" fill="#9e0000" stroke="#000000"></path><path d="M900 558.3L900 495.6L859 535.3Z" fill="#650000" stroke="#000000"></path><path d="M900 477.4L900 495.6L908 457.3Z" fill="#650000" stroke="#000000"></path><path d="M849 39.7L831 0L811 0Z" fill="#d73402" stroke="#000000"></path><path d="M811 0L803 -51.1L800 0Z" fill="#fe5000" stroke="#000000"></path><path d="M602 -11.1L803 -51.1L299 -27.1Z" fill="#fe5000" stroke="#000000"></path><path d="M900 166.4L900 111.7L883 151.3Z" fill="#9e0000" stroke="#000000"></path><path d="M849 39.7L900 0L831 0Z" fill="#d73402" stroke="#000000"></path><path d="M940 186.6L900 111.7L900 166.4Z" fill="#eb4202" stroke="#000000"></path><path d="M89 0L12 57.9L108 88.4Z" fill="#c42602" stroke="#000000"></path><path d="M0 549.3L14 521.4L0 482.4Z" fill="#000000" stroke="#000000"></path><path d="M0 549.3L61 572.3L44 537.3Z" fill="#540000" stroke="#000000"></path><path d="M61 572.3L37 600L103 600Z" fill="#c42602" stroke="#000000"></path><path d="M935 429.7L900 456.7L908 457.3Z" fill="#8a0000" stroke="#000000"></path><path d="M935 429.7L941 391L900 381Z" fill="#650000" stroke="#000000"></path><path d="M-27 408.9L0 549.3L0 482.4Z" fill="#9e0000" stroke="#000000"></path><path d="M0 53.9L-30 129.7L0 102.6Z" fill="#c42602" stroke="#000000"></path><path d="M0 102.6L-30 129.7L3 112.6Z" fill="#8a0000" stroke="#000000"></path><path d="M900 495.6L935 429.7L908 457.3Z" fill="#9e0000" stroke="#000000"></path><path d="M900 -19.1L803 -51.1L831 0Z" fill="#000000" stroke="#000000"></path><path d="M831 0L803 -51.1L811 0Z" fill="#9e0000" stroke="#000000"></path><path d="M19 0L0 53.9L12 57.9Z" fill="#d73402" stroke="#000000"></path><path d="M12 57.9L0 53.9L0 102.6Z" fill="#b11602" stroke="#000000"></path><path d="M941 391L940 186.6L900 281.3Z" fill="#000000" stroke="#000000"></path><path d="M871 608.1L900 558.3L859 535.3Z" fill="#770000" stroke="#000000"></path><path d="M900 495.6L924 600L935 429.7Z" fill="#fe5000" stroke="#000000"></path><path d="M900 640.1L837 600L827 600Z" fill="#eb4202" stroke="#000000"></path><path d="M837 600L871 608.1L859 535.3Z" fill="#650000" stroke="#000000"></path><path d="M89 0L19 0L12 57.9Z" fill="#b11602" stroke="#000000"></path><path d="M0 53.9L-22 0L-30 129.7Z" fill="#d73402" stroke="#000000"></path><path d="M-6 -24.1L19 0L89 0Z" fill="#eb4202" stroke="#000000"></path><path d="M-27 408.9L0 600L0 549.3Z" fill="#b11602" stroke="#000000"></path><path d="M0 549.3L0 600L37 600Z" fill="#650000" stroke="#000000"></path><path d="M37 600L0 623.1L137 641.1Z" fill="#540000" stroke="#000000"></path><path d="M-6 -24.1L0 0L19 0Z" fill="#770000" stroke="#000000"></path><path d="M19 0L0 0L0 53.9Z" fill="#c42602" stroke="#000000"></path><path d="M871 608.1L900 600L900 558.3Z" fill="#b11602" stroke="#000000"></path><path d="M900 558.3L924 600L900 495.6Z" fill="#9e0000" stroke="#000000"></path><path d="M-27 408.9L0 623.1L0 600Z" fill="#9e0000" stroke="#000000"></path><path d="M0 600L0 623.1L37 600Z" fill="#540000" stroke="#000000"></path><path d="M940 186.6L900 0L900 111.7Z" fill="#650000" stroke="#000000"></path><path d="M900 111.7L900 0L849 39.7Z" fill="#000000" stroke="#000000"></path><path d="M-6 -24.1L-22 0L0 0Z" fill="#eb4202" stroke="#000000"></path><path d="M0 0L-22 0L0 53.9Z" fill="#000000" stroke="#000000"></path><path d="M299 -27.1L-6 -24.1L152 0Z" fill="#540000" stroke="#000000"></path><path d="M803 -51.1L-6 -24.1L299 -27.1Z" fill="#c42602" stroke="#000000"></path><path d="M940 186.6L900 -19.1L900 0Z" fill="#000000" stroke="#000000"></path><path d="M900 0L900 -19.1L831 0Z" fill="#770000" stroke="#000000"></path><path d="M900 640.1L924 600L900 600Z" fill="#eb4202" stroke="#000000"></path><path d="M900 600L924 600L900 558.3Z" fill="#650000" stroke="#000000"></path><path d="M935 429.7L924 600L941 391Z" fill="#770000" stroke="#000000"></path><path d="M761 624.1L900 640.1L827 600Z" fill="#000000" stroke="#000000"></path><path d="M871 608.1L900 640.1L900 600Z" fill="#8a0000" stroke="#000000"></path><path d="M406 642.1L900 640.1L761 624.1Z" fill="#770000" stroke="#000000"></path></g></svg>