<svg id="visual" viewBox="0 0 900 600" width="900" height="600" xmlns="http://www.w3.org/2000/svg" xmlns:xlink="http://www.w3.org/1999/xlink" version="1.1"><g stroke-width="5" stroke-linejoin="bevel"><path d="M434 284L444 341L480 268.1Z" fill="#78d4ee" stroke="#000000"></path><path d="M444 341L516 339.9L480 268.1Z" fill="#98fb98" stroke="#000000"></path><path d="M434 284L420 343.9L444 341Z" fill="#5cf3c8" stroke="#000000"></path><path d="M444 341L437 364.9L516 339.9Z" fill="#98fb98" stroke="#000000"></path><path d="M420 343.9L437 364.9L444 341Z" fill="#82f9a9" stroke="#000000"></path><path d="M524 351.7L527 344L516 339.9Z" fill="#5cf3c8" stroke="#000000"></path><path d="M567 309L513 244.1L480 268.1Z" fill="#98fb98" stroke="#000000"></path><path d="M437 364.9L524 351.7L516 339.9Z" fill="#6ef7b9" stroke="#000000"></path><path d="M567 309L480 268.1L516 339.9Z" fill="#98fb98" stroke="#000000"></path><path d="M480 268.1L419 190.4L434 284Z" fill="#4bebdf" stroke="#000000"></path><path d="M513 244.1L493 225.1L480 268.1Z" fill="#4fe6e7" stroke="#000000"></path><path d="M434 284L389 346.7L420 343.9Z" fill="#6ef7b9" stroke="#000000"></path><path d="M420 343.9L411 388.7L437 364.9Z" fill="#4fe6e7" stroke="#000000"></path><path d="M574 353.9L556 331.9L527 344Z" fill="#4bebdf" stroke="#000000"></path><path d="M527 344L556 331.9L516 339.9Z" fill="#6ef7b9" stroke="#000000"></path><path d="M389 346.7L411 388.7L420 343.9Z" fill="#6ef7b9" stroke="#000000"></path><path d="M437 364.9L506 410.7L524 351.7Z" fill="#5ae0ec" stroke="#000000"></path><path d="M556 331.9L567 309L516 339.9Z" fill="#50efd4" stroke="#000000"></path><path d="M483 431.6L506 410.7L437 364.9Z" fill="#82f9a9" stroke="#000000"></path><path d="M524 351.7L574 353.9L527 344Z" fill="#4bebdf" stroke="#000000"></path><path d="M585 238.3L527 212.3L513 244.1Z" fill="#50efd4" stroke="#000000"></path><path d="M513 244.1L527 212.3L493 225.1Z" fill="#82f9a9" stroke="#000000"></path><path d="M370 242.3L363 259.3L434 284Z" fill="#4fe6e7" stroke="#000000"></path><path d="M434 284L348 302.1L389 346.7Z" fill="#6ef7b9" stroke="#000000"></path><path d="M370 242.3L434 284L419 190.4Z" fill="#87ceeb" stroke="#000000"></path><path d="M411 388.7L425 414.7L437 364.9Z" fill="#5ae0ec" stroke="#000000"></path><path d="M547 392.7L574 353.9L524 351.7Z" fill="#98fb98" stroke="#000000"></path><path d="M556 331.9L574 353.9L567 309Z" fill="#82f9a9" stroke="#000000"></path><path d="M506 410.7L547 392.7L524 351.7Z" fill="#98fb98" stroke="#000000"></path><path d="M419 190.4L480 268.1L493 225.1Z" fill="#78d4ee" stroke="#000000"></path><path d="M363 259.3L348 302.1L434 284Z" fill="#5cf3c8" stroke="#000000"></path><path d="M389 346.7L341 347.9L411 388.7Z" fill="#4fe6e7" stroke="#000000"></path><path d="M411 388.7L407 427.4L425 414.7Z" fill="#4fe6e7" stroke="#000000"></path><path d="M527 212.3L478 186.4L493 225.1Z" fill="#5cf3c8" stroke="#000000"></path><path d="M370 242.3L360 248.1L363 259.3Z" fill="#87ceeb" stroke="#000000"></path><path d="M363 259.3L325 292.1L348 302.1Z" fill="#5ae0ec" stroke="#000000"></path><path d="M348 302.1L349 343L389 346.7Z" fill="#6ef7b9" stroke="#000000"></path><path d="M425 414.7L483 431.6L437 364.9Z" fill="#4fe6e7" stroke="#000000"></path><path d="M537 453.6L571 391.6L547 392.7Z" fill="#4fe6e7" stroke="#000000"></path><path d="M445 180.3L419 190.4L493 225.1Z" fill="#4fe6e7" stroke="#000000"></path><path d="M370 242.3L320 183.4L360 248.1Z" fill="#87ceeb" stroke="#000000"></path><path d="M478 186.4L445 180.3L493 225.1Z" fill="#50efd4" stroke="#000000"></path><path d="M339 346.9L341 347.9L349 343Z" fill="#78d4ee" stroke="#000000"></path><path d="M349 343L341 347.9L389 346.7Z" fill="#50efd4" stroke="#000000"></path><path d="M537 453.6L547 392.7L506 410.7Z" fill="#82f9a9" stroke="#000000"></path><path d="M547 392.7L571 391.6L574 353.9Z" fill="#87ceeb" stroke="#000000"></path><path d="M341 347.9L407 427.4L411 388.7Z" fill="#98fb98" stroke="#000000"></path><path d="M425 414.7L411 469.6L483 431.6Z" fill="#50efd4" stroke="#000000"></path><path d="M348 302.1L339 346.9L349 343Z" fill="#82f9a9" stroke="#000000"></path><path d="M367 477.3L402 457.4L407 427.4Z" fill="#82f9a9" stroke="#000000"></path><path d="M574 353.9L600 281L567 309Z" fill="#98fb98" stroke="#000000"></path><path d="M567 309L585 238.3L513 244.1Z" fill="#78d4ee" stroke="#000000"></path><path d="M617 280.1L600 281L574 353.9Z" fill="#50efd4" stroke="#000000"></path><path d="M600 281L585 238.3L567 309Z" fill="#5cf3c8" stroke="#000000"></path><path d="M526 133.6L476 152.6L478 186.4Z" fill="#69daee" stroke="#000000"></path><path d="M360 248.1L325 292.1L363 259.3Z" fill="#50efd4" stroke="#000000"></path><path d="M348 302.1L318 299L339 346.9Z" fill="#5cf3c8" stroke="#000000"></path><path d="M600 281L606 262L585 238.3Z" fill="#4bebdf" stroke="#000000"></path><path d="M617 280.1L606 262L600 281Z" fill="#69daee" stroke="#000000"></path><path d="M316 298L318 299L325 292.1Z" fill="#82f9a9" stroke="#000000"></path><path d="M325 292.1L318 299L348 302.1Z" fill="#6ef7b9" stroke="#000000"></path><path d="M631 270.1L617 280.1L676 292.1Z" fill="#78d4ee" stroke="#000000"></path><path d="M267 271.1L316 298L325 292.1Z" fill="#82f9a9" stroke="#000000"></path><path d="M318 299L305 341.9L339 346.9Z" fill="#5ae0ec" stroke="#000000"></path><path d="M555 161.6L478 186.4L527 212.3Z" fill="#98fb98" stroke="#000000"></path><path d="M478 186.4L476 152.6L445 180.3Z" fill="#82f9a9" stroke="#000000"></path><path d="M445 180.3L416 128.7L419 190.4Z" fill="#4bebdf" stroke="#000000"></path><path d="M488 476.4L521 457.6L483 431.6Z" fill="#98fb98" stroke="#000000"></path><path d="M483 431.6L521 457.6L506 410.7Z" fill="#4bebdf" stroke="#000000"></path><path d="M521 457.6L537 453.6L506 410.7Z" fill="#82f9a9" stroke="#000000"></path><path d="M315 445.4L407 427.4L341 347.9Z" fill="#4fe6e7" stroke="#000000"></path><path d="M407 427.4L411 469.6L425 414.7Z" fill="#4bebdf" stroke="#000000"></path><path d="M316 298L305 341.9L318 299Z" fill="#82f9a9" stroke="#000000"></path><path d="M339 346.9L291 382.6L341 347.9Z" fill="#87ceeb" stroke="#000000"></path><path d="M662 340.7L617 280.1L574 353.9Z" fill="#98fb98" stroke="#000000"></path><path d="M617 280.1L631 270.1L606 262Z" fill="#98fb98" stroke="#000000"></path><path d="M606 262L630 244.3L585 238.3Z" fill="#6ef7b9" stroke="#000000"></path><path d="M585 238.3L555 161.6L527 212.3Z" fill="#4fe6e7" stroke="#000000"></path><path d="M560 152.4L555 161.6L617 173.3Z" fill="#87ceeb" stroke="#000000"></path><path d="M411 469.6L488 476.4L483 431.6Z" fill="#98fb98" stroke="#000000"></path><path d="M521 457.6L534 476.4L537 453.6Z" fill="#6ef7b9" stroke="#000000"></path><path d="M367 477.3L411 469.6L402 457.4Z" fill="#50efd4" stroke="#000000"></path><path d="M402 457.4L411 469.6L407 427.4Z" fill="#4bebdf" stroke="#000000"></path><path d="M631 270.1L630 244.3L606 262Z" fill="#87ceeb" stroke="#000000"></path><path d="M617 173.3L555 161.6L585 238.3Z" fill="#98fb98" stroke="#000000"></path><path d="M555 161.6L526 133.6L478 186.4Z" fill="#87ceeb" stroke="#000000"></path><path d="M529 492.3L534 476.4L521 457.6Z" fill="#5ae0ec" stroke="#000000"></path><path d="M537 453.6L604 430.4L571 391.6Z" fill="#5ae0ec" stroke="#000000"></path><path d="M657 387.9L662 340.7L574 353.9Z" fill="#69daee" stroke="#000000"></path><path d="M560 152.4L526 133.6L555 161.6Z" fill="#50efd4" stroke="#000000"></path><path d="M592 471.3L604 430.4L537 453.6Z" fill="#50efd4" stroke="#000000"></path><path d="M450 97.6L416 128.7L476 152.6Z" fill="#69daee" stroke="#000000"></path><path d="M476 152.6L416 128.7L445 180.3Z" fill="#50efd4" stroke="#000000"></path><path d="M419 190.4L320 183.4L370 242.3Z" fill="#82f9a9" stroke="#000000"></path><path d="M360 248.1L282 230.3L325 292.1Z" fill="#5ae0ec" stroke="#000000"></path><path d="M225 391.6L291 382.6L305 341.9Z" fill="#5ae0ec" stroke="#000000"></path><path d="M305 341.9L291 382.6L339 346.9Z" fill="#98fb98" stroke="#000000"></path><path d="M341 148.6L320 183.4L419 190.4Z" fill="#82f9a9" stroke="#000000"></path><path d="M316 298L267 271.1L305 341.9Z" fill="#4bebdf" stroke="#000000"></path><path d="M541 119.7L512 119.6L526 133.6Z" fill="#82f9a9" stroke="#000000"></path><path d="M526 133.6L512 119.6L476 152.6Z" fill="#82f9a9" stroke="#000000"></path><path d="M488 476.4L529 492.3L521 457.6Z" fill="#4fe6e7" stroke="#000000"></path><path d="M534 476.4L592 471.3L537 453.6Z" fill="#6ef7b9" stroke="#000000"></path><path d="M518 550.3L529 492.3L488 476.4Z" fill="#4fe6e7" stroke="#000000"></path><path d="M560 152.4L546 127.4L526 133.6Z" fill="#6ef7b9" stroke="#000000"></path><path d="M564 87.7L546 127.4L560 152.4Z" fill="#4bebdf" stroke="#000000"></path><path d="M657 387.9L574 353.9L571 391.6Z" fill="#6ef7b9" stroke="#000000"></path><path d="M631 270.1L654 232.3L630 244.3Z" fill="#5cf3c8" stroke="#000000"></path><path d="M340 473.4L367 477.3L407 427.4Z" fill="#5cf3c8" stroke="#000000"></path><path d="M411 469.6L448 537.3L488 476.4Z" fill="#82f9a9" stroke="#000000"></path><path d="M381 117.7L386 126.4L400 96.7Z" fill="#5cf3c8" stroke="#000000"></path><path d="M416 128.7L386 126.4L419 190.4Z" fill="#4bebdf" stroke="#000000"></path><path d="M654 232.3L617 173.3L630 244.3Z" fill="#5cf3c8" stroke="#000000"></path><path d="M630 244.3L617 173.3L585 238.3Z" fill="#50efd4" stroke="#000000"></path><path d="M680 280L654 232.3L631 270.1Z" fill="#82f9a9" stroke="#000000"></path><path d="M320 183.4L282 230.3L360 248.1Z" fill="#50efd4" stroke="#000000"></path><path d="M546 127.4L541 119.7L526 133.6Z" fill="#5ae0ec" stroke="#000000"></path><path d="M564 87.7L541 119.7L546 127.4Z" fill="#82f9a9" stroke="#000000"></path><path d="M657 387.9L667 344L662 340.7Z" fill="#5ae0ec" stroke="#000000"></path><path d="M662 340.7L676 292.1L617 280.1Z" fill="#69daee" stroke="#000000"></path><path d="M386 126.4L341 148.6L419 190.4Z" fill="#78d4ee" stroke="#000000"></path><path d="M246 227.3L258 238.1L282 230.3Z" fill="#50efd4" stroke="#000000"></path><path d="M282 230.3L267 271.1L325 292.1Z" fill="#4fe6e7" stroke="#000000"></path><path d="M664 426.6L657 387.9L604 430.4Z" fill="#5ae0ec" stroke="#000000"></path><path d="M604 430.4L657 387.9L571 391.6Z" fill="#78d4ee" stroke="#000000"></path><path d="M599 499.4L592 471.3L534 476.4Z" fill="#78d4ee" stroke="#000000"></path><path d="M291 382.6L315 445.4L341 347.9Z" fill="#87ceeb" stroke="#000000"></path><path d="M400 96.7L386 126.4L416 128.7Z" fill="#82f9a9" stroke="#000000"></path><path d="M386 126.4L381 117.7L341 148.6Z" fill="#5cf3c8" stroke="#000000"></path><path d="M450 97.6L476 152.6L493 93.7Z" fill="#5ae0ec" stroke="#000000"></path><path d="M667 344L676 292.1L662 340.7Z" fill="#6ef7b9" stroke="#000000"></path><path d="M657 387.9L673 348.9L667 344Z" fill="#5ae0ec" stroke="#000000"></path><path d="M667 344L673 348.9L676 292.1Z" fill="#98fb98" stroke="#000000"></path><path d="M315 445.4L340 473.4L407 427.4Z" fill="#87ceeb" stroke="#000000"></path><path d="M493 93.7L476 152.6L512 119.6Z" fill="#6ef7b9" stroke="#000000"></path><path d="M300 449.4L314 453.6L315 445.4Z" fill="#4fe6e7" stroke="#000000"></path><path d="M315 445.4L314 453.6L340 473.4Z" fill="#4bebdf" stroke="#000000"></path><path d="M738 349.7L680 280L676 292.1Z" fill="#5ae0ec" stroke="#000000"></path><path d="M676 292.1L680 280L631 270.1Z" fill="#78d4ee" stroke="#000000"></path><path d="M280 416.7L286 420.7L291 382.6Z" fill="#6ef7b9" stroke="#000000"></path><path d="M291 382.6L286 420.7L315 445.4Z" fill="#5ae0ec" stroke="#000000"></path><path d="M541 119.7L493 93.7L512 119.6Z" fill="#50efd4" stroke="#000000"></path><path d="M225 391.6L280 416.7L291 382.6Z" fill="#5cf3c8" stroke="#000000"></path><path d="M286 420.7L300 449.4L315 445.4Z" fill="#4bebdf" stroke="#000000"></path><path d="M381 117.7L331 138.4L341 148.6Z" fill="#82f9a9" stroke="#000000"></path><path d="M341 148.6L331 138.4L320 183.4Z" fill="#6ef7b9" stroke="#000000"></path><path d="M237 474.3L300 449.4L286 420.7Z" fill="#82f9a9" stroke="#000000"></path><path d="M325 516.1L350 528.3L340 473.4Z" fill="#5ae0ec" stroke="#000000"></path><path d="M493 93.7L475 86.9L450 97.6Z" fill="#4fe6e7" stroke="#000000"></path><path d="M450 97.6L400 96.7L416 128.7Z" fill="#5cf3c8" stroke="#000000"></path><path d="M246 227.3L282 230.3L282 149.4Z" fill="#4fe6e7" stroke="#000000"></path><path d="M282 230.3L258 238.1L267 271.1Z" fill="#5ae0ec" stroke="#000000"></path><path d="M188 314L197 361.9L305 341.9Z" fill="#5ae0ec" stroke="#000000"></path><path d="M406 85.6L400 96.7L450 97.6Z" fill="#82f9a9" stroke="#000000"></path><path d="M381 117.7L362 45.9L331 138.4Z" fill="#98fb98" stroke="#000000"></path><path d="M680 280L681 238.1L654 232.3Z" fill="#50efd4" stroke="#000000"></path><path d="M654 232.3L675 188.4L617 173.3Z" fill="#5ae0ec" stroke="#000000"></path><path d="M654 499.4L664 426.6L604 430.4Z" fill="#5cf3c8" stroke="#000000"></path><path d="M657 387.9L697 359.7L673 348.9Z" fill="#98fb98" stroke="#000000"></path><path d="M463 52.9L406 85.6L450 97.6Z" fill="#98fb98" stroke="#000000"></path><path d="M400 96.7L368 46.9L381 117.7Z" fill="#4bebdf" stroke="#000000"></path><path d="M394 540.1L411 469.6L367 477.3Z" fill="#50efd4" stroke="#000000"></path><path d="M394 540.1L448 537.3L411 469.6Z" fill="#69daee" stroke="#000000"></path><path d="M529 492.3L599 499.4L534 476.4Z" fill="#5cf3c8" stroke="#000000"></path><path d="M556 546.3L599 499.4L529 492.3Z" fill="#87ceeb" stroke="#000000"></path><path d="M592 471.3L654 499.4L604 430.4Z" fill="#5ae0ec" stroke="#000000"></path><path d="M694 441.6L697 359.7L657 387.9Z" fill="#50efd4" stroke="#000000"></path><path d="M673 348.9L697 359.7L676 292.1Z" fill="#4bebdf" stroke="#000000"></path><path d="M680 280L738 237.1L681 238.1Z" fill="#50efd4" stroke="#000000"></path><path d="M282 149.4L282 230.3L320 183.4Z" fill="#50efd4" stroke="#000000"></path><path d="M258 238.1L219 273.1L267 271.1Z" fill="#87ceeb" stroke="#000000"></path><path d="M738 237.1L675 188.4L681 238.1Z" fill="#5ae0ec" stroke="#000000"></path><path d="M681 238.1L675 188.4L654 232.3Z" fill="#4fe6e7" stroke="#000000"></path><path d="M647 138.6L564 87.7L560 152.4Z" fill="#5cf3c8" stroke="#000000"></path><path d="M541 119.7L564 87.7L493 93.7Z" fill="#5ae0ec" stroke="#000000"></path><path d="M647 138.6L560 152.4L617 173.3Z" fill="#6ef7b9" stroke="#000000"></path><path d="M493 93.7L463 52.9L475 86.9Z" fill="#6ef7b9" stroke="#000000"></path><path d="M475 86.9L463 52.9L450 97.6Z" fill="#78d4ee" stroke="#000000"></path><path d="M675 188.4L668 170.4L617 173.3Z" fill="#6ef7b9" stroke="#000000"></path><path d="M256 121.7L282 149.4L331 138.4Z" fill="#98fb98" stroke="#000000"></path><path d="M331 138.4L282 149.4L320 183.4Z" fill="#4fe6e7" stroke="#000000"></path><path d="M350 528.3L367 477.3L340 473.4Z" fill="#50efd4" stroke="#000000"></path><path d="M350 528.3L394 540.1L367 477.3Z" fill="#5ae0ec" stroke="#000000"></path><path d="M668 170.4L647 138.6L617 173.3Z" fill="#82f9a9" stroke="#000000"></path><path d="M505 586.1L518 550.3L448 537.3Z" fill="#6ef7b9" stroke="#000000"></path><path d="M448 537.3L518 550.3L488 476.4Z" fill="#5cf3c8" stroke="#000000"></path><path d="M675 188.4L670 163.4L668 170.4Z" fill="#6ef7b9" stroke="#000000"></path><path d="M668 170.4L670 163.4L647 138.6Z" fill="#5ae0ec" stroke="#000000"></path><path d="M325 516.1L340 473.4L314 453.6Z" fill="#69daee" stroke="#000000"></path><path d="M212 268L219 273.1L246 227.3Z" fill="#82f9a9" stroke="#000000"></path><path d="M246 227.3L219 273.1L258 238.1Z" fill="#5cf3c8" stroke="#000000"></path><path d="M237 474.3L325 516.1L300 449.4Z" fill="#98fb98" stroke="#000000"></path><path d="M300 449.4L325 516.1L314 453.6Z" fill="#69daee" stroke="#000000"></path><path d="M518 550.3L556 546.3L529 492.3Z" fill="#6ef7b9" stroke="#000000"></path><path d="M542 38.9L463 52.9L493 93.7Z" fill="#78d4ee" stroke="#000000"></path><path d="M406 85.6L368 46.9L400 96.7Z" fill="#5ae0ec" stroke="#000000"></path><path d="M197 361.9L225 391.6L305 341.9Z" fill="#87ceeb" stroke="#000000"></path><path d="M280 416.7L237 474.3L286 420.7Z" fill="#82f9a9" stroke="#000000"></path><path d="M220 208.3L212 268L246 227.3Z" fill="#69daee" stroke="#000000"></path><path d="M188 314L305 341.9L267 271.1Z" fill="#87ceeb" stroke="#000000"></path><path d="M654 499.4L694 441.6L664 426.6Z" fill="#82f9a9" stroke="#000000"></path><path d="M664 426.6L694 441.6L657 387.9Z" fill="#4bebdf" stroke="#000000"></path><path d="M654 499.4L592 471.3L599 499.4Z" fill="#87ceeb" stroke="#000000"></path><path d="M219 174.3L220 208.3L246 227.3Z" fill="#5cf3c8" stroke="#000000"></path><path d="M667 513.1L654 499.4L599 499.4Z" fill="#6ef7b9" stroke="#000000"></path><path d="M647 138.6L578 60.9L564 87.7Z" fill="#78d4ee" stroke="#000000"></path><path d="M564 87.7L542 38.9L493 93.7Z" fill="#69daee" stroke="#000000"></path><path d="M639 47.7L578 60.9L647 138.6Z" fill="#98fb98" stroke="#000000"></path><path d="M420 594.1L440 577.1L394 540.1Z" fill="#78d4ee" stroke="#000000"></path><path d="M394 540.1L440 577.1L448 537.3Z" fill="#4fe6e7" stroke="#000000"></path><path d="M518 550.3L560 596.1L556 546.3Z" fill="#5cf3c8" stroke="#000000"></path><path d="M420 594.1L394 540.1L375 600Z" fill="#6ef7b9" stroke="#000000"></path><path d="M752 374.9L738 349.7L697 359.7Z" fill="#6ef7b9" stroke="#000000"></path><path d="M697 359.7L738 349.7L676 292.1Z" fill="#4fe6e7" stroke="#000000"></path><path d="M675 188.4L712 121.6L670 163.4Z" fill="#69daee" stroke="#000000"></path><path d="M208 416.6L225 436.6L225 391.6Z" fill="#4fe6e7" stroke="#000000"></path><path d="M225 391.6L225 436.6L280 416.7Z" fill="#4fe6e7" stroke="#000000"></path><path d="M188 314L219 273.1L212 268Z" fill="#6ef7b9" stroke="#000000"></path><path d="M188 314L267 271.1L219 273.1Z" fill="#98fb98" stroke="#000000"></path><path d="M578 60.9L542 38.9L564 87.7Z" fill="#69daee" stroke="#000000"></path><path d="M398 0L406 85.6L463 52.9Z" fill="#6ef7b9" stroke="#000000"></path><path d="M398 0L368 46.9L406 85.6Z" fill="#87ceeb" stroke="#000000"></path><path d="M282 149.4L219 174.3L246 227.3Z" fill="#82f9a9" stroke="#000000"></path><path d="M738 349.7L738 237.1L680 280Z" fill="#82f9a9" stroke="#000000"></path><path d="M670 163.4L686 105.6L647 138.6Z" fill="#82f9a9" stroke="#000000"></path><path d="M170 298.9L188 314L212 268Z" fill="#98fb98" stroke="#000000"></path><path d="M440 577.1L505 586.1L448 537.3Z" fill="#82f9a9" stroke="#000000"></path><path d="M630 602.1L667 513.1L599 499.4Z" fill="#5cf3c8" stroke="#000000"></path><path d="M251 98.6L256 121.7L331 138.4Z" fill="#78d4ee" stroke="#000000"></path><path d="M197 361.9L208 416.6L225 391.6Z" fill="#87ceeb" stroke="#000000"></path><path d="M364 0L362 45.9L368 46.9Z" fill="#6ef7b9" stroke="#000000"></path><path d="M368 46.9L362 45.9L381 117.7Z" fill="#5ae0ec" stroke="#000000"></path><path d="M232 136.4L219 174.3L282 149.4Z" fill="#5cf3c8" stroke="#000000"></path><path d="M220 208.3L178 257.3L212 268Z" fill="#87ceeb" stroke="#000000"></path><path d="M221 460.4L237 474.3L225 436.6Z" fill="#87ceeb" stroke="#000000"></path><path d="M225 436.6L237 474.3L280 416.7Z" fill="#69daee" stroke="#000000"></path><path d="M375 600L394 540.1L372 600Z" fill="#4bebdf" stroke="#000000"></path><path d="M596 600L599 499.4L556 546.3Z" fill="#87ceeb" stroke="#000000"></path><path d="M654 499.4L717 479.4L694 441.6Z" fill="#50efd4" stroke="#000000"></path><path d="M745 427.4L752 374.9L697 359.7Z" fill="#4bebdf" stroke="#000000"></path><path d="M208 416.6L221 460.4L225 436.6Z" fill="#82f9a9" stroke="#000000"></path><path d="M425 600L420 594.1L375 600Z" fill="#82f9a9" stroke="#000000"></path><path d="M440 577.1L508 600L505 586.1Z" fill="#5ae0ec" stroke="#000000"></path><path d="M256 121.7L232 136.4L282 149.4Z" fill="#87ceeb" stroke="#000000"></path><path d="M251 98.6L232 136.4L256 121.7Z" fill="#4bebdf" stroke="#000000"></path><path d="M745 427.4L697 359.7L694 441.6Z" fill="#98fb98" stroke="#000000"></path><path d="M738 349.7L798 295L738 237.1Z" fill="#78d4ee" stroke="#000000"></path><path d="M152 145.6L220 208.3L219 174.3Z" fill="#6ef7b9" stroke="#000000"></path><path d="M152 145.6L178 257.3L220 208.3Z" fill="#82f9a9" stroke="#000000"></path><path d="M232 136.4L216 154.4L219 174.3Z" fill="#69daee" stroke="#000000"></path><path d="M425 600L508 600L440 577.1Z" fill="#50efd4" stroke="#000000"></path><path d="M505 586.1L521 600L518 550.3Z" fill="#87ceeb" stroke="#000000"></path><path d="M394 540.1L350 528.3L372 600Z" fill="#87ceeb" stroke="#000000"></path><path d="M420 594.1L425 600L440 577.1Z" fill="#4bebdf" stroke="#000000"></path><path d="M712 121.6L686 105.6L670 163.4Z" fill="#6ef7b9" stroke="#000000"></path><path d="M578 60.9L577 0L542 38.9Z" fill="#50efd4" stroke="#000000"></path><path d="M508 600L521 600L505 586.1Z" fill="#87ceeb" stroke="#000000"></path><path d="M178 257.3L170 298.9L212 268Z" fill="#6ef7b9" stroke="#000000"></path><path d="M188 314L164 368.7L197 361.9Z" fill="#4fe6e7" stroke="#000000"></path><path d="M178 414.6L180 416.7L208 416.6Z" fill="#50efd4" stroke="#000000"></path><path d="M208 416.6L163 445.4L221 460.4Z" fill="#5cf3c8" stroke="#000000"></path><path d="M319 44.7L251 98.6L331 138.4Z" fill="#98fb98" stroke="#000000"></path><path d="M184 89.7L152 145.6L216 154.4Z" fill="#82f9a9" stroke="#000000"></path><path d="M752 374.9L767 347.7L738 349.7Z" fill="#6ef7b9" stroke="#000000"></path><path d="M362 45.9L319 44.7L331 138.4Z" fill="#5ae0ec" stroke="#000000"></path><path d="M328 23.9L319 44.7L362 45.9Z" fill="#5cf3c8" stroke="#000000"></path><path d="M751 455.6L745 427.4L694 441.6Z" fill="#69daee" stroke="#000000"></path><path d="M752 374.9L766 383.9L767 347.7Z" fill="#6ef7b9" stroke="#000000"></path><path d="M667 513.1L717 479.4L654 499.4Z" fill="#5ae0ec" stroke="#000000"></path><path d="M521 600L560 596.1L518 550.3Z" fill="#69daee" stroke="#000000"></path><path d="M667 513.1L693 545.3L717 479.4Z" fill="#69daee" stroke="#000000"></path><path d="M766 197.3L675 188.4L738 237.1Z" fill="#4fe6e7" stroke="#000000"></path><path d="M761 143.6L712 121.6L675 188.4Z" fill="#6ef7b9" stroke="#000000"></path><path d="M372 600L350 528.3L274 600Z" fill="#50efd4" stroke="#000000"></path><path d="M350 528.3L325 516.1L274 600Z" fill="#6ef7b9" stroke="#000000"></path><path d="M542 38.9L454 0L463 52.9Z" fill="#6ef7b9" stroke="#000000"></path><path d="M745 427.4L766 383.9L752 374.9Z" fill="#87ceeb" stroke="#000000"></path><path d="M241 544.3L325 516.1L237 474.3Z" fill="#98fb98" stroke="#000000"></path><path d="M178 414.6L208 416.6L197 361.9Z" fill="#69daee" stroke="#000000"></path><path d="M454 0L441 0L463 52.9Z" fill="#4bebdf" stroke="#000000"></path><path d="M164 368.7L178 414.6L197 361.9Z" fill="#5ae0ec" stroke="#000000"></path><path d="M521 600L568 600L560 596.1Z" fill="#87ceeb" stroke="#000000"></path><path d="M560 596.1L568 600L556 546.3Z" fill="#78d4ee" stroke="#000000"></path><path d="M136 342.7L164 368.7L188 314Z" fill="#5ae0ec" stroke="#000000"></path><path d="M319 44.7L244 91.6L251 98.6Z" fill="#87ceeb" stroke="#000000"></path><path d="M251 98.6L244 91.6L232 136.4Z" fill="#6ef7b9" stroke="#000000"></path><path d="M689 64.9L639 47.7L686 105.6Z" fill="#4bebdf" stroke="#000000"></path><path d="M686 105.6L639 47.7L647 138.6Z" fill="#5cf3c8" stroke="#000000"></path><path d="M542 38.9L577 0L454 0Z" fill="#6ef7b9" stroke="#000000"></path><path d="M798 295L764 210.3L738 237.1Z" fill="#82f9a9" stroke="#000000"></path><path d="M441 0L398 0L463 52.9Z" fill="#69daee" stroke="#000000"></path><path d="M364 0L328 23.9L362 45.9Z" fill="#87ceeb" stroke="#000000"></path><path d="M319 44.7L229 62.7L244 91.6Z" fill="#5cf3c8" stroke="#000000"></path><path d="M802 175.3L766 197.3L764 210.3Z" fill="#98fb98" stroke="#000000"></path><path d="M764 210.3L766 197.3L738 237.1Z" fill="#4bebdf" stroke="#000000"></path><path d="M568 600L596 600L556 546.3Z" fill="#6ef7b9" stroke="#000000"></path><path d="M717 479.4L751 455.6L694 441.6Z" fill="#5ae0ec" stroke="#000000"></path><path d="M801 415.6L798 378.7L766 383.9Z" fill="#6ef7b9" stroke="#000000"></path><path d="M751 534.1L751 455.6L717 479.4Z" fill="#5ae0ec" stroke="#000000"></path><path d="M712 121.6L718 101.7L686 105.6Z" fill="#5cf3c8" stroke="#000000"></path><path d="M761 143.6L718 101.7L712 121.6Z" fill="#5cf3c8" stroke="#000000"></path><path d="M178 257.3L144 298.9L170 298.9Z" fill="#5ae0ec" stroke="#000000"></path><path d="M170 298.9L136 342.7L188 314Z" fill="#87ceeb" stroke="#000000"></path><path d="M109 271L144 298.9L178 257.3Z" fill="#82f9a9" stroke="#000000"></path><path d="M152 145.6L219 174.3L216 154.4Z" fill="#82f9a9" stroke="#000000"></path><path d="M398 0L364 0L368 46.9Z" fill="#5ae0ec" stroke="#000000"></path><path d="M607 0L578 60.9L639 47.7Z" fill="#50efd4" stroke="#000000"></path><path d="M607 0L577 0L578 60.9Z" fill="#78d4ee" stroke="#000000"></path><path d="M630 602.1L693 545.3L667 513.1Z" fill="#4bebdf" stroke="#000000"></path><path d="M187 487.3L221 460.4L163 445.4Z" fill="#69daee" stroke="#000000"></path><path d="M187 487.3L237 474.3L221 460.4Z" fill="#98fb98" stroke="#000000"></path><path d="M187 487.3L241 544.3L237 474.3Z" fill="#82f9a9" stroke="#000000"></path><path d="M718 101.7L689 64.9L686 105.6Z" fill="#69daee" stroke="#000000"></path><path d="M821 344L798 295L767 347.7Z" fill="#5ae0ec" stroke="#000000"></path><path d="M767 347.7L798 295L738 349.7Z" fill="#98fb98" stroke="#000000"></path><path d="M798 378.7L767 347.7L766 383.9Z" fill="#5cf3c8" stroke="#000000"></path><path d="M163 445.4L180 416.7L178 414.6Z" fill="#5ae0ec" stroke="#000000"></path><path d="M163 445.4L208 416.6L180 416.7Z" fill="#50efd4" stroke="#000000"></path><path d="M163 445.4L178 414.6L140 381.7Z" fill="#50efd4" stroke="#000000"></path><path d="M144 298.9L136 342.7L170 298.9Z" fill="#87ceeb" stroke="#000000"></path><path d="M140 381.7L178 414.6L164 368.7Z" fill="#6ef7b9" stroke="#000000"></path><path d="M802 175.3L761 143.6L766 197.3Z" fill="#6ef7b9" stroke="#000000"></path><path d="M766 197.3L761 143.6L675 188.4Z" fill="#78d4ee" stroke="#000000"></path><path d="M723 0L688 41.7L739 0Z" fill="#4bebdf" stroke="#000000"></path><path d="M136 342.7L140 381.7L164 368.7Z" fill="#69daee" stroke="#000000"></path><path d="M596 600L630 602.1L599 499.4Z" fill="#4bebdf" stroke="#000000"></path><path d="M568 600L630 602.1L596 600Z" fill="#4fe6e7" stroke="#000000"></path><path d="M521 600L630 602.1L568 600Z" fill="#4bebdf" stroke="#000000"></path><path d="M508 600L630 602.1L521 600Z" fill="#50efd4" stroke="#000000"></path><path d="M425 600L630 602.1L508 600Z" fill="#98fb98" stroke="#000000"></path><path d="M261 601.1L630 602.1L425 600Z" fill="#98fb98" stroke="#000000"></path><path d="M261 601.1L425 600L375 600Z" fill="#87ceeb" stroke="#000000"></path><path d="M364 0L330 0L328 23.9Z" fill="#69daee" stroke="#000000"></path><path d="M279 0L229 62.7L319 44.7Z" fill="#5ae0ec" stroke="#000000"></path><path d="M630 0L607 0L639 47.7Z" fill="#69daee" stroke="#000000"></path><path d="M801 415.6L766 383.9L745 427.4Z" fill="#5ae0ec" stroke="#000000"></path><path d="M828 480.3L777 445.6L751 455.6Z" fill="#87ceeb" stroke="#000000"></path><path d="M751 455.6L777 445.6L745 427.4Z" fill="#4fe6e7" stroke="#000000"></path><path d="M279 0L319 44.7L328 23.9Z" fill="#82f9a9" stroke="#000000"></path><path d="M244 91.6L184 89.7L232 136.4Z" fill="#4fe6e7" stroke="#000000"></path><path d="M688 41.7L689 64.9L739 0Z" fill="#98fb98" stroke="#000000"></path><path d="M689 64.9L688 41.7L639 47.7Z" fill="#4fe6e7" stroke="#000000"></path><path d="M662 17.9L630 0L639 47.7Z" fill="#5cf3c8" stroke="#000000"></path><path d="M688 41.7L662 17.9L639 47.7Z" fill="#50efd4" stroke="#000000"></path><path d="M777 445.6L801 415.6L745 427.4Z" fill="#4bebdf" stroke="#000000"></path><path d="M798 378.7L821 344L767 347.7Z" fill="#82f9a9" stroke="#000000"></path><path d="M261 601.1L274 600L241 544.3Z" fill="#78d4ee" stroke="#000000"></path><path d="M241 544.3L274 600L325 516.1Z" fill="#5ae0ec" stroke="#000000"></path><path d="M372 600L261 601.1L375 600Z" fill="#98fb98" stroke="#000000"></path><path d="M710 600L719 557.1L693 545.3Z" fill="#69daee" stroke="#000000"></path><path d="M693 545.3L751 534.1L717 479.4Z" fill="#69daee" stroke="#000000"></path><path d="M777 445.6L839 452.6L801 415.6Z" fill="#69daee" stroke="#000000"></path><path d="M163 445.4L176 509.3L187 487.3Z" fill="#50efd4" stroke="#000000"></path><path d="M187 487.3L176 509.3L241 544.3Z" fill="#82f9a9" stroke="#000000"></path><path d="M175 520.1L176 509.3L103 478.4Z" fill="#50efd4" stroke="#000000"></path><path d="M184 89.7L216 154.4L232 136.4Z" fill="#5ae0ec" stroke="#000000"></path><path d="M144 298.9L109 325.9L136 342.7Z" fill="#50efd4" stroke="#000000"></path><path d="M735 564.1L720 557.3L710 600Z" fill="#82f9a9" stroke="#000000"></path><path d="M719 557.1L751 534.1L693 545.3Z" fill="#50efd4" stroke="#000000"></path><path d="M829 370.9L821 344L798 378.7Z" fill="#6ef7b9" stroke="#000000"></path><path d="M842 216.1L802 175.3L764 210.3Z" fill="#98fb98" stroke="#000000"></path><path d="M229 62.7L184 89.7L244 91.6Z" fill="#5ae0ec" stroke="#000000"></path><path d="M161 79.7L184 89.7L187 10.9Z" fill="#5cf3c8" stroke="#000000"></path><path d="M255 600L261 601.1L241 544.3Z" fill="#87ceeb" stroke="#000000"></path><path d="M274 600L261 601.1L372 600Z" fill="#78d4ee" stroke="#000000"></path><path d="M136 342.7L109 325.9L140 381.7Z" fill="#69daee" stroke="#000000"></path><path d="M103 478.4L176 509.3L163 445.4Z" fill="#82f9a9" stroke="#000000"></path><path d="M95 280L109 325.9L144 298.9Z" fill="#98fb98" stroke="#000000"></path><path d="M842 216.1L764 210.3L798 295Z" fill="#82f9a9" stroke="#000000"></path><path d="M761 143.6L783 134.4L718 101.7Z" fill="#98fb98" stroke="#000000"></path><path d="M802 175.3L783 134.4L761 143.6Z" fill="#5ae0ec" stroke="#000000"></path><path d="M685 6.9L662 17.9L688 41.7Z" fill="#6ef7b9" stroke="#000000"></path><path d="M685 6.9L655 0L662 17.9Z" fill="#50efd4" stroke="#000000"></path><path d="M662 17.9L655 0L630 0Z" fill="#87ceeb" stroke="#000000"></path><path d="M98 264.1L109 271L178 257.3Z" fill="#69daee" stroke="#000000"></path><path d="M330 0L279 0L328 23.9Z" fill="#6ef7b9" stroke="#000000"></path><path d="M239 600L255 600L241 544.3Z" fill="#4fe6e7" stroke="#000000"></path><path d="M103 478.4L163 445.4L78 454.4Z" fill="#4fe6e7" stroke="#000000"></path><path d="M176 509.3L175 520.1L241 544.3Z" fill="#5ae0ec" stroke="#000000"></path><path d="M720 557.3L751 534.1L719 557.1Z" fill="#50efd4" stroke="#000000"></path><path d="M184 89.7L143 137.4L152 145.6Z" fill="#6ef7b9" stroke="#000000"></path><path d="M129 146.6L98 264.1L178 257.3Z" fill="#98fb98" stroke="#000000"></path><path d="M801 415.6L829 370.9L798 378.7Z" fill="#5cf3c8" stroke="#000000"></path><path d="M821 344L855 331L798 295Z" fill="#6ef7b9" stroke="#000000"></path><path d="M866 423.7L829 370.9L801 415.6Z" fill="#5ae0ec" stroke="#000000"></path><path d="M720 557.3L747 547.3L751 534.1Z" fill="#6ef7b9" stroke="#000000"></path><path d="M828 480.3L839 452.6L777 445.6Z" fill="#98fb98" stroke="#000000"></path><path d="M735 564.1L747 547.3L720 557.3Z" fill="#5cf3c8" stroke="#000000"></path><path d="M710 600L720 557.3L719 557.1Z" fill="#6ef7b9" stroke="#000000"></path><path d="M723 0L685 6.9L688 41.7Z" fill="#4fe6e7" stroke="#000000"></path><path d="M193 588.1L239 600L241 544.3Z" fill="#4bebdf" stroke="#000000"></path><path d="M255 600L239 600L261 601.1Z" fill="#98fb98" stroke="#000000"></path><path d="M129 146.6L178 257.3L152 145.6Z" fill="#69daee" stroke="#000000"></path><path d="M109 271L95 280L144 298.9Z" fill="#98fb98" stroke="#000000"></path><path d="M900 389.6L838 356.9L829 370.9Z" fill="#69daee" stroke="#000000"></path><path d="M829 370.9L838 356.9L821 344Z" fill="#87ceeb" stroke="#000000"></path><path d="M98 264.1L95 280L109 271Z" fill="#4bebdf" stroke="#000000"></path><path d="M113 123.7L129 146.6L143 137.4Z" fill="#6ef7b9" stroke="#000000"></path><path d="M143 137.4L129 146.6L152 145.6Z" fill="#78d4ee" stroke="#000000"></path><path d="M330 0L253 -4.1L279 0Z" fill="#82f9a9" stroke="#000000"></path><path d="M279 0L253 -4.1L229 62.7Z" fill="#50efd4" stroke="#000000"></path><path d="M184 89.7L161 79.7L143 137.4Z" fill="#98fb98" stroke="#000000"></path><path d="M364 0L253 -4.1L330 0Z" fill="#5cf3c8" stroke="#000000"></path><path d="M398 0L253 -4.1L364 0Z" fill="#50efd4" stroke="#000000"></path><path d="M441 0L253 -4.1L398 0Z" fill="#50efd4" stroke="#000000"></path><path d="M454 0L253 -4.1L441 0Z" fill="#50efd4" stroke="#000000"></path><path d="M577 0L253 -4.1L454 0Z" fill="#87ceeb" stroke="#000000"></path><path d="M607 0L253 -4.1L577 0Z" fill="#5cf3c8" stroke="#000000"></path><path d="M849 -2.1L253 -4.1L607 0Z" fill="#69daee" stroke="#000000"></path><path d="M849 -2.1L607 0L630 0Z" fill="#4fe6e7" stroke="#000000"></path><path d="M828 480.3L751 534.1L854 513.4Z" fill="#82f9a9" stroke="#000000"></path><path d="M630 602.1L710 600L693 545.3Z" fill="#98fb98" stroke="#000000"></path><path d="M187 10.9L184 89.7L229 62.7Z" fill="#4bebdf" stroke="#000000"></path><path d="M856 223.3L842 216.1L798 295Z" fill="#5ae0ec" stroke="#000000"></path><path d="M802 175.3L820 139.4L783 134.4Z" fill="#4bebdf" stroke="#000000"></path><path d="M900 335.9L855 331L838 356.9Z" fill="#87ceeb" stroke="#000000"></path><path d="M838 356.9L855 331L821 344Z" fill="#87ceeb" stroke="#000000"></path><path d="M846 199.4L820 139.4L802 175.3Z" fill="#98fb98" stroke="#000000"></path><path d="M783 134.4L803 100.7L718 101.7Z" fill="#50efd4" stroke="#000000"></path><path d="M253 -4.1L224 0L229 62.7Z" fill="#98fb98" stroke="#000000"></path><path d="M175 520.1L193 588.1L241 544.3Z" fill="#98fb98" stroke="#000000"></path><path d="M191 600L193 588.1L146 600Z" fill="#4fe6e7" stroke="#000000"></path><path d="M856 223.3L846 199.4L842 216.1Z" fill="#4fe6e7" stroke="#000000"></path><path d="M842 216.1L846 199.4L802 175.3Z" fill="#5ae0ec" stroke="#000000"></path><path d="M820 139.4L803 100.7L783 134.4Z" fill="#4fe6e7" stroke="#000000"></path><path d="M883 246.1L856 223.3L798 295Z" fill="#87ceeb" stroke="#000000"></path><path d="M751 534.1L804 600L854 513.4Z" fill="#5ae0ec" stroke="#000000"></path><path d="M828 480.3L751 455.6L751 534.1Z" fill="#69daee" stroke="#000000"></path><path d="M752 600L747 547.3L735 564.1Z" fill="#78d4ee" stroke="#000000"></path><path d="M685 6.9L723 0L655 0Z" fill="#78d4ee" stroke="#000000"></path><path d="M655 0L849 -2.1L630 0Z" fill="#4bebdf" stroke="#000000"></path><path d="M791 65.7L689 64.9L718 101.7Z" fill="#82f9a9" stroke="#000000"></path><path d="M97 96.6L113 123.7L161 79.7Z" fill="#82f9a9" stroke="#000000"></path><path d="M161 79.7L113 123.7L143 137.4Z" fill="#78d4ee" stroke="#000000"></path><path d="M129 146.6L69 201.3L98 264.1Z" fill="#6ef7b9" stroke="#000000"></path><path d="M60 293.1L109 325.9L95 280Z" fill="#4bebdf" stroke="#000000"></path><path d="M146 600L193 588.1L136 589.1Z" fill="#4bebdf" stroke="#000000"></path><path d="M193 588.1L191 600L239 600Z" fill="#4bebdf" stroke="#000000"></path><path d="M239 600L191 600L261 601.1Z" fill="#78d4ee" stroke="#000000"></path><path d="M163 445.4L140 381.7L78 454.4Z" fill="#87ceeb" stroke="#000000"></path><path d="M66 397.6L140 381.7L109 325.9Z" fill="#78d4ee" stroke="#000000"></path><path d="M812 67.9L791 65.7L803 100.7Z" fill="#82f9a9" stroke="#000000"></path><path d="M803 100.7L791 65.7L718 101.7Z" fill="#5ae0ec" stroke="#000000"></path><path d="M812 67.9L803 100.7L847 115.6Z" fill="#5ae0ec" stroke="#000000"></path><path d="M803 100.7L820 139.4L847 115.6Z" fill="#87ceeb" stroke="#000000"></path><path d="M60 293.1L95 280L98 264.1Z" fill="#6ef7b9" stroke="#000000"></path><path d="M60 293.1L62 330L109 325.9Z" fill="#69daee" stroke="#000000"></path><path d="M630 602.1L752 600L710 600Z" fill="#4bebdf" stroke="#000000"></path><path d="M710 600L752 600L735 564.1Z" fill="#78d4ee" stroke="#000000"></path><path d="M47 232.3L60 293.1L98 264.1Z" fill="#87ceeb" stroke="#000000"></path><path d="M866 423.7L853 442.4L883 475.3Z" fill="#78d4ee" stroke="#000000"></path><path d="M883 475.3L853 442.4L839 452.6Z" fill="#5cf3c8" stroke="#000000"></path><path d="M839 452.6L853 442.4L801 415.6Z" fill="#87ceeb" stroke="#000000"></path><path d="M224 0L187 10.9L229 62.7Z" fill="#4fe6e7" stroke="#000000"></path><path d="M791 65.7L739 0L689 64.9Z" fill="#78d4ee" stroke="#000000"></path><path d="M723 0L849 -2.1L655 0Z" fill="#50efd4" stroke="#000000"></path><path d="M62 330L66 397.6L109 325.9Z" fill="#4fe6e7" stroke="#000000"></path><path d="M80 144.4L69 201.3L129 146.6Z" fill="#82f9a9" stroke="#000000"></path><path d="M883 475.3L839 452.6L828 480.3Z" fill="#69daee" stroke="#000000"></path><path d="M853 442.4L866 423.7L801 415.6Z" fill="#5cf3c8" stroke="#000000"></path><path d="M855 331L883 246.1L798 295Z" fill="#69daee" stroke="#000000"></path><path d="M253 -4.1L189 0L224 0Z" fill="#50efd4" stroke="#000000"></path><path d="M224 0L189 0L187 10.9Z" fill="#5ae0ec" stroke="#000000"></path><path d="M187 10.9L140 38.9L161 79.7Z" fill="#4bebdf" stroke="#000000"></path><path d="M66 397.6L78 454.4L140 381.7Z" fill="#50efd4" stroke="#000000"></path><path d="M136 589.1L193 588.1L175 520.1Z" fill="#98fb98" stroke="#000000"></path><path d="M847 115.6L820 139.4L846 199.4Z" fill="#82f9a9" stroke="#000000"></path><path d="M791 65.7L793 1.9L739 0Z" fill="#50efd4" stroke="#000000"></path><path d="M900 269L883 246.1L855 331Z" fill="#5cf3c8" stroke="#000000"></path><path d="M856 223.3L900 195.4L846 199.4Z" fill="#5ae0ec" stroke="#000000"></path><path d="M97 96.6L80 144.4L113 123.7Z" fill="#82f9a9" stroke="#000000"></path><path d="M113 123.7L80 144.4L129 146.6Z" fill="#98fb98" stroke="#000000"></path><path d="M162 5.9L140 38.9L187 10.9Z" fill="#5ae0ec" stroke="#000000"></path><path d="M900 190.3L847 115.6L846 199.4Z" fill="#50efd4" stroke="#000000"></path><path d="M124 52.9L97 96.6L161 79.7Z" fill="#78d4ee" stroke="#000000"></path><path d="M15 253.1L47 232.3L0 228.3Z" fill="#5ae0ec" stroke="#000000"></path><path d="M69 201.3L47 232.3L98 264.1Z" fill="#78d4ee" stroke="#000000"></path><path d="M60 293.1L39 308.9L62 330Z" fill="#69daee" stroke="#000000"></path><path d="M62 330L36 393.7L66 397.6Z" fill="#4bebdf" stroke="#000000"></path><path d="M47 232.3L69 201.3L32 168.4Z" fill="#5ae0ec" stroke="#000000"></path><path d="M140 38.9L124 52.9L161 79.7Z" fill="#4bebdf" stroke="#000000"></path><path d="M15 253.1L39 308.9L60 293.1Z" fill="#78d4ee" stroke="#000000"></path><path d="M46 452.6L61 463.4L78 454.4Z" fill="#69daee" stroke="#000000"></path><path d="M189 0L162 5.9L187 10.9Z" fill="#6ef7b9" stroke="#000000"></path><path d="M140 38.9L116 0L124 52.9Z" fill="#50efd4" stroke="#000000"></path><path d="M900 389.6L900 335.9L838 356.9Z" fill="#82f9a9" stroke="#000000"></path><path d="M900 335.9L900 269L855 331Z" fill="#69daee" stroke="#000000"></path><path d="M883 246.1L900 195.4L856 223.3Z" fill="#6ef7b9" stroke="#000000"></path><path d="M136 589.1L175 520.1L103 478.4Z" fill="#50efd4" stroke="#000000"></path><path d="M191 600L146 600L261 601.1Z" fill="#98fb98" stroke="#000000"></path><path d="M900 269L900 258.1L883 246.1Z" fill="#98fb98" stroke="#000000"></path><path d="M131 591.1L136 589.1L103 478.4Z" fill="#87ceeb" stroke="#000000"></path><path d="M46 452.6L78 454.4L66 397.6Z" fill="#78d4ee" stroke="#000000"></path><path d="M78 454.4L60 468.3L103 478.4Z" fill="#69daee" stroke="#000000"></path><path d="M804 600L751 534.1L747 547.3Z" fill="#6ef7b9" stroke="#000000"></path><path d="M866 423.7L900 389.6L829 370.9Z" fill="#78d4ee" stroke="#000000"></path><path d="M46 452.6L60 468.3L61 463.4Z" fill="#5cf3c8" stroke="#000000"></path><path d="M61 463.4L60 468.3L78 454.4Z" fill="#6ef7b9" stroke="#000000"></path><path d="M900 426.4L900 389.6L866 423.7Z" fill="#78d4ee" stroke="#000000"></path><path d="M0 349.9L36 393.7L62 330Z" fill="#50efd4" stroke="#000000"></path><path d="M90 600L131 591.1L103 478.4Z" fill="#98fb98" stroke="#000000"></path><path d="M136 589.1L131 591.1L146 600Z" fill="#82f9a9" stroke="#000000"></path><path d="M630 602.1L804 600L752 600Z" fill="#5cf3c8" stroke="#000000"></path><path d="M752 600L804 600L747 547.3Z" fill="#4fe6e7" stroke="#000000"></path><path d="M36 393.7L46 452.6L66 397.6Z" fill="#5ae0ec" stroke="#000000"></path><path d="M43 573.1L90 600L103 478.4Z" fill="#69daee" stroke="#000000"></path><path d="M812 67.9L793 1.9L791 65.7Z" fill="#50efd4" stroke="#000000"></path><path d="M796 0L793 1.9L812 67.9Z" fill="#5cf3c8" stroke="#000000"></path><path d="M900 258.1L900 195.4L883 246.1Z" fill="#5ae0ec" stroke="#000000"></path><path d="M834 0L796 0L812 67.9Z" fill="#87ceeb" stroke="#000000"></path><path d="M900 195.4L900 190.3L846 199.4Z" fill="#6ef7b9" stroke="#000000"></path><path d="M900 486.3L883 475.3L854 513.4Z" fill="#4bebdf" stroke="#000000"></path><path d="M854 513.4L883 475.3L828 480.3Z" fill="#50efd4" stroke="#000000"></path><path d="M900 426.7L900 426.4L866 423.7Z" fill="#98fb98" stroke="#000000"></path><path d="M883 475.3L900 426.7L866 423.7Z" fill="#4bebdf" stroke="#000000"></path><path d="M871 103.6L812 67.9L847 115.6Z" fill="#82f9a9" stroke="#000000"></path><path d="M793 1.9L796 0L739 0Z" fill="#82f9a9" stroke="#000000"></path><path d="M739 0L849 -2.1L723 0Z" fill="#87ceeb" stroke="#000000"></path><path d="M900 190.3L871 103.6L847 115.6Z" fill="#5cf3c8" stroke="#000000"></path><path d="M32 168.4L69 201.3L80 144.4Z" fill="#69daee" stroke="#000000"></path><path d="M47 232.3L15 253.1L60 293.1Z" fill="#78d4ee" stroke="#000000"></path><path d="M39 308.9L0 349.9L62 330Z" fill="#5cf3c8" stroke="#000000"></path><path d="M23 137.6L80 144.4L97 96.6Z" fill="#98fb98" stroke="#000000"></path><path d="M23 137.6L32 168.4L80 144.4Z" fill="#5cf3c8" stroke="#000000"></path><path d="M253 -4.1L116 0L189 0Z" fill="#98fb98" stroke="#000000"></path><path d="M189 0L116 0L162 5.9Z" fill="#87ceeb" stroke="#000000"></path><path d="M162 5.9L116 0L140 38.9Z" fill="#69daee" stroke="#000000"></path><path d="M124 52.9L37 58.7L97 96.6Z" fill="#50efd4" stroke="#000000"></path><path d="M900 588.1L900 486.3L854 513.4Z" fill="#4bebdf" stroke="#000000"></path><path d="M883 475.3L900 486.3L900 426.7Z" fill="#98fb98" stroke="#000000"></path><path d="M15 253.1L0 311L39 308.9Z" fill="#69daee" stroke="#000000"></path><path d="M36 393.7L0 395.7L46 452.6Z" fill="#5ae0ec" stroke="#000000"></path><path d="M0 257.1L0 311L15 253.1Z" fill="#6ef7b9" stroke="#000000"></path><path d="M0 311L0 349.9L39 308.9Z" fill="#5ae0ec" stroke="#000000"></path><path d="M804 600L855 585.1L854 513.4Z" fill="#6ef7b9" stroke="#000000"></path><path d="M630 602.1L836 600L804 600Z" fill="#82f9a9" stroke="#000000"></path><path d="M0 228.3L0 257.1L15 253.1Z" fill="#78d4ee" stroke="#000000"></path><path d="M0 207.4L0 228.3L47 232.3Z" fill="#87ceeb" stroke="#000000"></path><path d="M0 207.4L47 232.3L32 168.4Z" fill="#4bebdf" stroke="#000000"></path><path d="M0 349.9L0 395.7L36 393.7Z" fill="#6ef7b9" stroke="#000000"></path><path d="M43 573.1L103 478.4L22 536.3Z" fill="#78d4ee" stroke="#000000"></path><path d="M37 58.7L23 137.6L97 96.6Z" fill="#4bebdf" stroke="#000000"></path><path d="M836 600L855 585.1L804 600Z" fill="#50efd4" stroke="#000000"></path><path d="M900 190.3L900 103.7L871 103.6Z" fill="#5ae0ec" stroke="#000000"></path><path d="M872 45.7L834 0L812 67.9Z" fill="#69daee" stroke="#000000"></path><path d="M0 478.4L60 468.3L46 452.6Z" fill="#5cf3c8" stroke="#000000"></path><path d="M131 591.1L90 600L146 600Z" fill="#50efd4" stroke="#000000"></path><path d="M146 600L90 600L261 601.1Z" fill="#5cf3c8" stroke="#000000"></path><path d="M872 45.7L812 67.9L871 103.6Z" fill="#69daee" stroke="#000000"></path><path d="M796 0L849 -2.1L739 0Z" fill="#5cf3c8" stroke="#000000"></path><path d="M0 139.6L0 207.4L32 168.4Z" fill="#4bebdf" stroke="#000000"></path><path d="M253 -4.1L98 0L116 0Z" fill="#4bebdf" stroke="#000000"></path><path d="M116 0L98 0L124 52.9Z" fill="#98fb98" stroke="#000000"></path><path d="M900 89.6L872 45.7L871 103.6Z" fill="#5ae0ec" stroke="#000000"></path><path d="M900 103.7L900 89.6L871 103.6Z" fill="#4bebdf" stroke="#000000"></path><path d="M872 45.7L849 -2.1L834 0Z" fill="#98fb98" stroke="#000000"></path><path d="M834 0L849 -2.1L796 0Z" fill="#4fe6e7" stroke="#000000"></path><path d="M900 0L849 -2.1L872 45.7Z" fill="#4fe6e7" stroke="#000000"></path><path d="M0 395.7L0 470.6L46 452.6Z" fill="#5cf3c8" stroke="#000000"></path><path d="M0 54.7L0 139.6L23 137.6Z" fill="#4bebdf" stroke="#000000"></path><path d="M23 137.6L0 139.6L32 168.4Z" fill="#50efd4" stroke="#000000"></path><path d="M68 0L37 58.7L124 52.9Z" fill="#87ceeb" stroke="#000000"></path><path d="M0 470.6L0 478.4L46 452.6Z" fill="#5cf3c8" stroke="#000000"></path><path d="M22 536.3L103 478.4L60 468.3Z" fill="#82f9a9" stroke="#000000"></path><path d="M0 493.3L22 536.3L60 468.3Z" fill="#5cf3c8" stroke="#000000"></path><path d="M68 0L33 57.9L37 58.7Z" fill="#82f9a9" stroke="#000000"></path><path d="M37 58.7L33 57.9L23 137.6Z" fill="#6ef7b9" stroke="#000000"></path><path d="M0 478.4L0 493.3L60 468.3Z" fill="#82f9a9" stroke="#000000"></path><path d="M0 600L58 600L43 573.1Z" fill="#78d4ee" stroke="#000000"></path><path d="M43 573.1L58 600L90 600Z" fill="#50efd4" stroke="#000000"></path><path d="M90 600L58 600L261 601.1Z" fill="#87ceeb" stroke="#000000"></path><path d="M98 0L68 0L124 52.9Z" fill="#87ceeb" stroke="#000000"></path><path d="M253 -4.1L68 0L98 0Z" fill="#50efd4" stroke="#000000"></path><path d="M900 89.6L900 46.9L872 45.7Z" fill="#69daee" stroke="#000000"></path><path d="M894 600L896 590.1L855 585.1Z" fill="#69daee" stroke="#000000"></path><path d="M855 585.1L900 588.1L854 513.4Z" fill="#5cf3c8" stroke="#000000"></path><path d="M896 590.1L900 588.1L855 585.1Z" fill="#50efd4" stroke="#000000"></path><path d="M836 600L894 600L855 585.1Z" fill="#82f9a9" stroke="#000000"></path><path d="M896 590.1L900 600L900 588.1Z" fill="#69daee" stroke="#000000"></path><path d="M630 602.1L894 600L836 600Z" fill="#5ae0ec" stroke="#000000"></path><path d="M630 602.1L900 600L894 600Z" fill="#50efd4" stroke="#000000"></path><path d="M894 600L900 600L896 590.1Z" fill="#4fe6e7" stroke="#000000"></path><path d="M900 46.9L900 0L872 45.7Z" fill="#6ef7b9" stroke="#000000"></path><path d="M0 15.9L0 54.7L33 57.9Z" fill="#5ae0ec" stroke="#000000"></path><path d="M33 57.9L0 54.7L23 137.6Z" fill="#5cf3c8" stroke="#000000"></path><path d="M0 493.3L0 577.1L22 536.3Z" fill="#69daee" stroke="#000000"></path><path d="M22 536.3L0 577.1L43 573.1Z" fill="#82f9a9" stroke="#000000"></path><path d="M68 0L0 15.9L33 57.9Z" fill="#50efd4" stroke="#000000"></path><path d="M0 577.1L0 600L43 573.1Z" fill="#4bebdf" stroke="#000000"></path><path d="M58 600L0 600L261 601.1Z" fill="#50efd4" stroke="#000000"></path><path d="M253 -4.1L0 0L68 0Z" fill="#5ae0ec" stroke="#000000"></path><path d="M68 0L0 0L0 15.9Z" fill="#4bebdf" stroke="#000000"></path></g></svg>