<svg id="visual" viewBox="0 0 900 600" width="900" height="600" xmlns="http://www.w3.org/2000/svg" xmlns:xlink="http://www.w3.org/1999/xlink" version="1.1"><g stroke-width="5" stroke-linejoin="bevel"><path d="M459 266L495 275L487 262.3Z" fill="#87ceeb" stroke="#000000"></path><path d="M495 275L504 276.1L487 262.3Z" fill="#cebff1" stroke="#000000"></path><path d="M459 266L498 331.9L495 275Z" fill="#e9b9e2" stroke="#000000"></path><path d="M495 275L498 331.9L504 276.1Z" fill="#cebff1" stroke="#000000"></path><path d="M564 257.3L523 246.1L566 268Z" fill="#e9b9e2" stroke="#000000"></path><path d="M504 276.1L523 246.1L487 262.3Z" fill="#aec6f7" stroke="#000000"></path><path d="M487 262.3L468 218.3L459 266Z" fill="#dcbcea" stroke="#000000"></path><path d="M523 246.1L468 218.3L487 262.3Z" fill="#87ceeb" stroke="#000000"></path><path d="M498 331.9L506 334L504 276.1Z" fill="#dcbcea" stroke="#000000"></path><path d="M468 218.3L450 215.4L459 266Z" fill="#9fc9f5" stroke="#000000"></path><path d="M468 218.3L466 210.1L450 215.4Z" fill="#aec6f7" stroke="#000000"></path><path d="M523 246.1L466 210.1L468 218.3Z" fill="#e9b9e2" stroke="#000000"></path><path d="M450 215.4L434 221.1L459 266Z" fill="#87ceeb" stroke="#000000"></path><path d="M450 370.7L496 346.9L498 331.9Z" fill="#87ceeb" stroke="#000000"></path><path d="M498 331.9L496 346.9L506 334Z" fill="#ffb6c1" stroke="#000000"></path><path d="M490 364.7L496 346.9L450 370.7Z" fill="#cebff1" stroke="#000000"></path><path d="M450 370.7L498 331.9L459 266Z" fill="#bec3f5" stroke="#000000"></path><path d="M496 346.9L583 352.7L506 334Z" fill="#ffb6c1" stroke="#000000"></path><path d="M566 268L504 276.1L506 334Z" fill="#bec3f5" stroke="#000000"></path><path d="M566 268L523 246.1L504 276.1Z" fill="#87ceeb" stroke="#000000"></path><path d="M523 246.1L497 158.4L466 210.1Z" fill="#ffb6c1" stroke="#000000"></path><path d="M583 352.7L566 268L506 334Z" fill="#fbb6cd" stroke="#000000"></path><path d="M388 349.9L450 370.7L459 266Z" fill="#91ccf1" stroke="#000000"></path><path d="M434 221.1L373 251.1L459 266Z" fill="#dcbcea" stroke="#000000"></path><path d="M373 251.1L365 298L459 266Z" fill="#f3b7d8" stroke="#000000"></path><path d="M365 298L388 349.9L459 266Z" fill="#dcbcea" stroke="#000000"></path><path d="M450 215.4L395 197.3L434 221.1Z" fill="#dcbcea" stroke="#000000"></path><path d="M434 221.1L384 207.4L373 251.1Z" fill="#cebff1" stroke="#000000"></path><path d="M426 131.7L395 197.3L450 215.4Z" fill="#bec3f5" stroke="#000000"></path><path d="M365 298L382 346.7L388 349.9Z" fill="#fbb6cd" stroke="#000000"></path><path d="M395 197.3L384 207.4L434 221.1Z" fill="#f3b7d8" stroke="#000000"></path><path d="M620 296.9L587 250.1L566 268Z" fill="#dcbcea" stroke="#000000"></path><path d="M566 268L587 250.1L564 257.3Z" fill="#aec6f7" stroke="#000000"></path><path d="M564 257.3L569 190.4L523 246.1Z" fill="#ffb6c1" stroke="#000000"></path><path d="M554 166.6L497 158.4L523 246.1Z" fill="#9fc9f5" stroke="#000000"></path><path d="M466 210.1L426 131.7L450 215.4Z" fill="#87ceeb" stroke="#000000"></path><path d="M376 362.9L411 390.6L388 349.9Z" fill="#fbb6cd" stroke="#000000"></path><path d="M388 349.9L411 390.6L450 370.7Z" fill="#e9b9e2" stroke="#000000"></path><path d="M450 370.7L485 425.6L490 364.7Z" fill="#e9b9e2" stroke="#000000"></path><path d="M587 250.1L569 190.4L564 257.3Z" fill="#9fc9f5" stroke="#000000"></path><path d="M382 346.7L376 362.9L388 349.9Z" fill="#bec3f5" stroke="#000000"></path><path d="M336 383.7L376 362.9L309 335.9Z" fill="#91ccf1" stroke="#000000"></path><path d="M588 359.9L583 352.7L565 428.7Z" fill="#f3b7d8" stroke="#000000"></path><path d="M490 364.7L583 352.7L496 346.9Z" fill="#91ccf1" stroke="#000000"></path><path d="M569 190.4L554 166.6L523 246.1Z" fill="#e9b9e2" stroke="#000000"></path><path d="M384 207.4L341 244.3L373 251.1Z" fill="#87ceeb" stroke="#000000"></path><path d="M373 251.1L323 269.1L365 298Z" fill="#dcbcea" stroke="#000000"></path><path d="M309 335.9L376 362.9L382 346.7Z" fill="#bec3f5" stroke="#000000"></path><path d="M329 172.4L341 244.3L384 207.4Z" fill="#f3b7d8" stroke="#000000"></path><path d="M565 428.7L583 352.7L490 364.7Z" fill="#cebff1" stroke="#000000"></path><path d="M583 352.7L620 296.9L566 268Z" fill="#fbb6cd" stroke="#000000"></path><path d="M602 195.4L576 175.3L569 190.4Z" fill="#cebff1" stroke="#000000"></path><path d="M569 190.4L576 175.3L554 166.6Z" fill="#e9b9e2" stroke="#000000"></path><path d="M605 346.9L620 296.9L583 352.7Z" fill="#fbb6cd" stroke="#000000"></path><path d="M587 250.1L602 195.4L569 190.4Z" fill="#cebff1" stroke="#000000"></path><path d="M588 359.9L605 346.9L583 352.7Z" fill="#ffb6c1" stroke="#000000"></path><path d="M411 390.6L485 425.6L450 370.7Z" fill="#cebff1" stroke="#000000"></path><path d="M628 212.3L602 195.4L587 250.1Z" fill="#bec3f5" stroke="#000000"></path><path d="M341 244.3L323 269.1L373 251.1Z" fill="#dcbcea" stroke="#000000"></path><path d="M498 91.6L426 131.7L497 158.4Z" fill="#dcbcea" stroke="#000000"></path><path d="M497 158.4L426 131.7L466 210.1Z" fill="#ffb6c1" stroke="#000000"></path><path d="M395 197.3L359 170.4L384 207.4Z" fill="#91ccf1" stroke="#000000"></path><path d="M426 131.7L359 170.4L395 197.3Z" fill="#dcbcea" stroke="#000000"></path><path d="M341 244.3L268 208.1L323 269.1Z" fill="#dcbcea" stroke="#000000"></path><path d="M260 255L316 278L323 269.1Z" fill="#dcbcea" stroke="#000000"></path><path d="M323 269.1L316 278L365 298Z" fill="#e9b9e2" stroke="#000000"></path><path d="M646 276L635 232.1L587 250.1Z" fill="#87ceeb" stroke="#000000"></path><path d="M635 232.1L628 212.3L587 250.1Z" fill="#fbb6cd" stroke="#000000"></path><path d="M543 110.6L554 166.6L576 175.3Z" fill="#dcbcea" stroke="#000000"></path><path d="M376 362.9L370 411.6L411 390.6Z" fill="#e9b9e2" stroke="#000000"></path><path d="M411 390.6L457 472.4L485 425.6Z" fill="#cebff1" stroke="#000000"></path><path d="M336 383.7L370 411.6L376 362.9Z" fill="#f3b7d8" stroke="#000000"></path><path d="M697 344.9L646 276L620 296.9Z" fill="#dcbcea" stroke="#000000"></path><path d="M620 296.9L646 276L587 250.1Z" fill="#bec3f5" stroke="#000000"></path><path d="M309 335.9L382 346.7L365 298Z" fill="#bec3f5" stroke="#000000"></path><path d="M543 110.6L535 114.7L554 166.6Z" fill="#91ccf1" stroke="#000000"></path><path d="M554 166.6L535 114.7L497 158.4Z" fill="#f3b7d8" stroke="#000000"></path><path d="M543 110.6L576 175.3L550 97.7Z" fill="#f3b7d8" stroke="#000000"></path><path d="M485 425.6L565 428.7L490 364.7Z" fill="#87ceeb" stroke="#000000"></path><path d="M588 359.9L615 385.6L605 346.9Z" fill="#fbb6cd" stroke="#000000"></path><path d="M605 346.9L662 367.7L620 296.9Z" fill="#aec6f7" stroke="#000000"></path><path d="M316 278L309 335.9L365 298Z" fill="#9fc9f5" stroke="#000000"></path><path d="M565 428.7L615 385.6L588 359.9Z" fill="#cebff1" stroke="#000000"></path><path d="M347 150.6L329 172.4L359 170.4Z" fill="#aec6f7" stroke="#000000"></path><path d="M359 170.4L329 172.4L384 207.4Z" fill="#e9b9e2" stroke="#000000"></path><path d="M426 131.7L347 150.6L359 170.4Z" fill="#f3b7d8" stroke="#000000"></path><path d="M635 186.4L576 175.3L602 195.4Z" fill="#fbb6cd" stroke="#000000"></path><path d="M535 114.7L498 91.6L497 158.4Z" fill="#f3b7d8" stroke="#000000"></path><path d="M457 472.4L500 460.6L485 425.6Z" fill="#f3b7d8" stroke="#000000"></path><path d="M485 425.6L500 460.6L565 428.7Z" fill="#e9b9e2" stroke="#000000"></path><path d="M664 226.3L635 186.4L628 212.3Z" fill="#f3b7d8" stroke="#000000"></path><path d="M628 212.3L635 186.4L602 195.4Z" fill="#cebff1" stroke="#000000"></path><path d="M664 226.3L628 212.3L635 232.1Z" fill="#f3b7d8" stroke="#000000"></path><path d="M266 312L301 342.9L309 335.9Z" fill="#bec3f5" stroke="#000000"></path><path d="M309 335.9L307 361.7L336 383.7Z" fill="#9fc9f5" stroke="#000000"></path><path d="M266 312L309 335.9L316 278Z" fill="#87ceeb" stroke="#000000"></path><path d="M298 188.3L316 182.3L281 101.6Z" fill="#ffb6c1" stroke="#000000"></path><path d="M329 172.4L316 182.3L341 244.3Z" fill="#cebff1" stroke="#000000"></path><path d="M301 342.9L307 361.7L309 335.9Z" fill="#fbb6cd" stroke="#000000"></path><path d="M336 383.7L346 416.7L370 411.6Z" fill="#ffb6c1" stroke="#000000"></path><path d="M550 97.7L498 91.6L535 114.7Z" fill="#aec6f7" stroke="#000000"></path><path d="M426 131.7L402 89.6L347 150.6Z" fill="#cebff1" stroke="#000000"></path><path d="M345 418.6L346 416.7L336 383.7Z" fill="#bec3f5" stroke="#000000"></path><path d="M398 457.4L457 472.4L411 390.6Z" fill="#e9b9e2" stroke="#000000"></path><path d="M273 418.6L345 418.6L336 383.7Z" fill="#87ceeb" stroke="#000000"></path><path d="M346 416.7L345 418.6L370 411.6Z" fill="#bec3f5" stroke="#000000"></path><path d="M498 91.6L437 91.6L426 131.7Z" fill="#9fc9f5" stroke="#000000"></path><path d="M398 457.4L411 390.6L370 411.6Z" fill="#bec3f5" stroke="#000000"></path><path d="M367 453.4L398 457.4L370 411.6Z" fill="#ffb6c1" stroke="#000000"></path><path d="M647 119.6L550 97.7L576 175.3Z" fill="#dcbcea" stroke="#000000"></path><path d="M543 110.6L550 97.7L535 114.7Z" fill="#f3b7d8" stroke="#000000"></path><path d="M685 253L664 226.3L646 276Z" fill="#9fc9f5" stroke="#000000"></path><path d="M646 276L664 226.3L635 232.1Z" fill="#ffb6c1" stroke="#000000"></path><path d="M565 428.7L630 402.7L615 385.6Z" fill="#87ceeb" stroke="#000000"></path><path d="M615 385.6L662 367.7L605 346.9Z" fill="#aec6f7" stroke="#000000"></path><path d="M629 445.4L630 402.7L565 428.7Z" fill="#ffb6c1" stroke="#000000"></path><path d="M281 101.6L316 182.3L329 172.4Z" fill="#aec6f7" stroke="#000000"></path><path d="M316 182.3L298 188.3L341 244.3Z" fill="#bec3f5" stroke="#000000"></path><path d="M384 84.6L402 89.6L401 50.9Z" fill="#dcbcea" stroke="#000000"></path><path d="M437 91.6L402 89.6L426 131.7Z" fill="#9fc9f5" stroke="#000000"></path><path d="M265 189.4L271 195.3L298 188.3Z" fill="#aec6f7" stroke="#000000"></path><path d="M565 477.3L563 462.6L500 460.6Z" fill="#bec3f5" stroke="#000000"></path><path d="M500 460.6L563 462.6L565 428.7Z" fill="#dcbcea" stroke="#000000"></path><path d="M385 505.3L367 453.4L308 483.4Z" fill="#cebff1" stroke="#000000"></path><path d="M345 418.6L367 453.4L370 411.6Z" fill="#cebff1" stroke="#000000"></path><path d="M425 526.3L478 491.4L457 472.4Z" fill="#bec3f5" stroke="#000000"></path><path d="M630 402.7L662 367.7L615 385.6Z" fill="#aec6f7" stroke="#000000"></path><path d="M260 255L266 312L316 278Z" fill="#bec3f5" stroke="#000000"></path><path d="M221 345.7L273 418.6L307 361.7Z" fill="#bec3f5" stroke="#000000"></path><path d="M307 361.7L273 418.6L336 383.7Z" fill="#9fc9f5" stroke="#000000"></path><path d="M698 275L685 253L646 276Z" fill="#aec6f7" stroke="#000000"></path><path d="M664 226.3L674 185.4L635 186.4Z" fill="#f3b7d8" stroke="#000000"></path><path d="M497 517.4L478 491.4L497 524.1Z" fill="#bec3f5" stroke="#000000"></path><path d="M457 472.4L478 491.4L500 460.6Z" fill="#e9b9e2" stroke="#000000"></path><path d="M478 491.4L484 492.3L500 460.6Z" fill="#87ceeb" stroke="#000000"></path><path d="M433 61.7L402 89.6L437 91.6Z" fill="#f3b7d8" stroke="#000000"></path><path d="M402 89.6L384 84.6L347 150.6Z" fill="#fbb6cd" stroke="#000000"></path><path d="M268 208.1L260 255L323 269.1Z" fill="#f3b7d8" stroke="#000000"></path><path d="M497 517.4L565 477.3L500 460.6Z" fill="#aec6f7" stroke="#000000"></path><path d="M563 462.6L629 445.4L565 428.7Z" fill="#fbb6cd" stroke="#000000"></path><path d="M630 402.7L655 423.6L662 367.7Z" fill="#ffb6c1" stroke="#000000"></path><path d="M384 84.6L375 84.7L347 150.6Z" fill="#87ceeb" stroke="#000000"></path><path d="M267 206.4L268 208.1L271 195.3Z" fill="#87ceeb" stroke="#000000"></path><path d="M298 188.3L268 208.1L341 244.3Z" fill="#cebff1" stroke="#000000"></path><path d="M685 211.1L674 185.4L664 226.3Z" fill="#fbb6cd" stroke="#000000"></path><path d="M635 186.4L647 119.6L576 175.3Z" fill="#aec6f7" stroke="#000000"></path><path d="M271 195.3L268 208.1L298 188.3Z" fill="#ffb6c1" stroke="#000000"></path><path d="M268 208.1L267 206.4L260 255Z" fill="#91ccf1" stroke="#000000"></path><path d="M265 189.4L298 188.3L240 126.7Z" fill="#91ccf1" stroke="#000000"></path><path d="M685 253L685 211.1L664 226.3Z" fill="#e9b9e2" stroke="#000000"></path><path d="M498 91.6L433 61.7L437 91.6Z" fill="#cebff1" stroke="#000000"></path><path d="M384 84.6L358 63.9L375 84.7Z" fill="#ffb6c1" stroke="#000000"></path><path d="M469 0L433 61.7L498 91.6Z" fill="#f3b7d8" stroke="#000000"></path><path d="M611 50.7L533 63.9L550 97.7Z" fill="#dcbcea" stroke="#000000"></path><path d="M550 97.7L533 63.9L498 91.6Z" fill="#fbb6cd" stroke="#000000"></path><path d="M697 344.9L698 275L646 276Z" fill="#ffb6c1" stroke="#000000"></path><path d="M685 253L749 205.3L685 211.1Z" fill="#f3b7d8" stroke="#000000"></path><path d="M698 275L699 267.1L685 253Z" fill="#ffb6c1" stroke="#000000"></path><path d="M565 477.3L629 445.4L563 462.6Z" fill="#fbb6cd" stroke="#000000"></path><path d="M281 101.6L329 172.4L347 150.6Z" fill="#cebff1" stroke="#000000"></path><path d="M271 195.3L265 189.4L267 206.4Z" fill="#91ccf1" stroke="#000000"></path><path d="M156 251.3L210 287.1L260 255Z" fill="#e9b9e2" stroke="#000000"></path><path d="M260 255L247 297L266 312Z" fill="#dcbcea" stroke="#000000"></path><path d="M221 345.7L307 361.7L301 342.9Z" fill="#e9b9e2" stroke="#000000"></path><path d="M210 287.1L247 297L260 255Z" fill="#91ccf1" stroke="#000000"></path><path d="M629 445.4L655 423.6L630 402.7Z" fill="#87ceeb" stroke="#000000"></path><path d="M662 367.7L697 344.9L620 296.9Z" fill="#dcbcea" stroke="#000000"></path><path d="M718 377.7L697 344.9L662 367.7Z" fill="#ffb6c1" stroke="#000000"></path><path d="M698 275L721 300.9L699 267.1Z" fill="#dcbcea" stroke="#000000"></path><path d="M685 211.1L689 187.3L674 185.4Z" fill="#ffb6c1" stroke="#000000"></path><path d="M674 185.4L647 119.6L635 186.4Z" fill="#ffb6c1" stroke="#000000"></path><path d="M749 205.3L689 187.3L685 211.1Z" fill="#e9b9e2" stroke="#000000"></path><path d="M717 141.4L647 119.6L674 185.4Z" fill="#9fc9f5" stroke="#000000"></path><path d="M402 44.9L401 50.9L433 61.7Z" fill="#f3b7d8" stroke="#000000"></path><path d="M433 61.7L401 50.9L402 89.6Z" fill="#f3b7d8" stroke="#000000"></path><path d="M316 57.9L281 101.6L347 150.6Z" fill="#ffb6c1" stroke="#000000"></path><path d="M478 491.4L497 517.4L484 492.3Z" fill="#9fc9f5" stroke="#000000"></path><path d="M484 492.3L497 517.4L500 460.6Z" fill="#bec3f5" stroke="#000000"></path><path d="M667 469.4L654 444.6L629 445.4Z" fill="#ffb6c1" stroke="#000000"></path><path d="M425 526.3L457 472.4L398 457.4Z" fill="#dcbcea" stroke="#000000"></path><path d="M308 483.4L367 453.4L345 418.6Z" fill="#91ccf1" stroke="#000000"></path><path d="M367 453.4L385 505.3L398 457.4Z" fill="#fbb6cd" stroke="#000000"></path><path d="M629 445.4L654 444.6L655 423.6Z" fill="#ffb6c1" stroke="#000000"></path><path d="M655 423.6L718 377.7L662 367.7Z" fill="#aec6f7" stroke="#000000"></path><path d="M607 513.3L629 445.4L565 477.3Z" fill="#87ceeb" stroke="#000000"></path><path d="M401 50.9L358 63.9L384 84.6Z" fill="#ffb6c1" stroke="#000000"></path><path d="M437 0L402 44.9L433 61.7Z" fill="#87ceeb" stroke="#000000"></path><path d="M401 50.9L402 44.9L358 63.9Z" fill="#dcbcea" stroke="#000000"></path><path d="M221 345.7L301 342.9L266 312Z" fill="#ffb6c1" stroke="#000000"></path><path d="M425 526.3L497 524.1L478 491.4Z" fill="#9fc9f5" stroke="#000000"></path><path d="M497 517.4L581 513.1L565 477.3Z" fill="#dcbcea" stroke="#000000"></path><path d="M738 342.9L721 300.9L697 344.9Z" fill="#87ceeb" stroke="#000000"></path><path d="M697 344.9L721 300.9L698 275Z" fill="#91ccf1" stroke="#000000"></path><path d="M749 205.3L717 141.4L689 187.3Z" fill="#cebff1" stroke="#000000"></path><path d="M651 91.7L641 95.6L647 119.6Z" fill="#f3b7d8" stroke="#000000"></path><path d="M647 119.6L627 81.9L550 97.7Z" fill="#bec3f5" stroke="#000000"></path><path d="M641 95.6L627 81.9L647 119.6Z" fill="#f3b7d8" stroke="#000000"></path><path d="M385 505.3L425 526.3L398 457.4Z" fill="#e9b9e2" stroke="#000000"></path><path d="M691 79.7L651 91.7L647 119.6Z" fill="#e9b9e2" stroke="#000000"></path><path d="M641 95.6L651 91.7L627 81.9Z" fill="#91ccf1" stroke="#000000"></path><path d="M497 524.1L581 513.1L497 517.4Z" fill="#bec3f5" stroke="#000000"></path><path d="M385 505.3L421 531.3L425 526.3Z" fill="#87ceeb" stroke="#000000"></path><path d="M425 526.3L495 543.1L497 524.1Z" fill="#aec6f7" stroke="#000000"></path><path d="M739 390.6L718 377.7L743 428.4Z" fill="#e9b9e2" stroke="#000000"></path><path d="M210 287.1L221 345.7L247 297Z" fill="#aec6f7" stroke="#000000"></path><path d="M247 297L221 345.7L266 312Z" fill="#87ceeb" stroke="#000000"></path><path d="M316 57.9L347 150.6L375 84.7Z" fill="#87ceeb" stroke="#000000"></path><path d="M156 251.3L260 255L267 206.4Z" fill="#9fc9f5" stroke="#000000"></path><path d="M289 472.6L345 418.6L273 418.6Z" fill="#9fc9f5" stroke="#000000"></path><path d="M289 472.6L308 483.4L345 418.6Z" fill="#aec6f7" stroke="#000000"></path><path d="M385 505.3L337 546.1L421 531.3Z" fill="#e9b9e2" stroke="#000000"></path><path d="M188 152.4L267 206.4L265 189.4Z" fill="#e9b9e2" stroke="#000000"></path><path d="M421 531.3L495 543.1L425 526.3Z" fill="#cebff1" stroke="#000000"></path><path d="M497 524.1L495 543.1L581 513.1Z" fill="#f3b7d8" stroke="#000000"></path><path d="M658 56.7L611 50.7L627 81.9Z" fill="#91ccf1" stroke="#000000"></path><path d="M627 81.9L611 50.7L550 97.7Z" fill="#dcbcea" stroke="#000000"></path><path d="M497 0L469 0L498 91.6Z" fill="#dcbcea" stroke="#000000"></path><path d="M226 489.4L289 472.6L273 418.6Z" fill="#aec6f7" stroke="#000000"></path><path d="M581 513.1L607 513.3L565 477.3Z" fill="#ffb6c1" stroke="#000000"></path><path d="M654 444.6L743 428.4L655 423.6Z" fill="#aec6f7" stroke="#000000"></path><path d="M597 539.1L607 513.3L581 513.1Z" fill="#fbb6cd" stroke="#000000"></path><path d="M607 513.3L667 469.4L629 445.4Z" fill="#87ceeb" stroke="#000000"></path><path d="M718 377.7L738 342.9L697 344.9Z" fill="#91ccf1" stroke="#000000"></path><path d="M749 205.3L685 253L699 267.1Z" fill="#f3b7d8" stroke="#000000"></path><path d="M741 365.7L738 342.9L718 377.7Z" fill="#9fc9f5" stroke="#000000"></path><path d="M358 63.9L316 57.9L375 84.7Z" fill="#dcbcea" stroke="#000000"></path><path d="M356 0L316 57.9L358 63.9Z" fill="#aec6f7" stroke="#000000"></path><path d="M749 205.3L699 267.1L774 236.3Z" fill="#e9b9e2" stroke="#000000"></path><path d="M689 187.3L717 141.4L674 185.4Z" fill="#e9b9e2" stroke="#000000"></path><path d="M651 91.7L658 56.7L627 81.9Z" fill="#aec6f7" stroke="#000000"></path><path d="M497 0L498 91.6L533 63.9Z" fill="#dcbcea" stroke="#000000"></path><path d="M402 44.9L356 0L358 63.9Z" fill="#e9b9e2" stroke="#000000"></path><path d="M549 0L497 0L533 63.9Z" fill="#aec6f7" stroke="#000000"></path><path d="M237 121.6L240 126.7L281 101.6Z" fill="#9fc9f5" stroke="#000000"></path><path d="M281 101.6L240 126.7L298 188.3Z" fill="#cebff1" stroke="#000000"></path><path d="M739 390.6L741 365.7L718 377.7Z" fill="#9fc9f5" stroke="#000000"></path><path d="M774 236.3L699 267.1L777 284Z" fill="#87ceeb" stroke="#000000"></path><path d="M469 0L447 0L433 61.7Z" fill="#91ccf1" stroke="#000000"></path><path d="M302 539.3L300 498.4L216 516.4Z" fill="#87ceeb" stroke="#000000"></path><path d="M289 472.6L300 498.4L308 483.4Z" fill="#cebff1" stroke="#000000"></path><path d="M308 483.4L310 513.1L385 505.3Z" fill="#dcbcea" stroke="#000000"></path><path d="M447 0L437 0L433 61.7Z" fill="#9fc9f5" stroke="#000000"></path><path d="M469 0L487 -4.1L447 0Z" fill="#dcbcea" stroke="#000000"></path><path d="M447 0L487 -4.1L437 0Z" fill="#bec3f5" stroke="#000000"></path><path d="M497 0L487 -4.1L469 0Z" fill="#f3b7d8" stroke="#000000"></path><path d="M699 267.1L721 300.9L777 284Z" fill="#dcbcea" stroke="#000000"></path><path d="M274 59.7L237 121.6L281 101.6Z" fill="#f3b7d8" stroke="#000000"></path><path d="M240 126.7L188 152.4L265 189.4Z" fill="#87ceeb" stroke="#000000"></path><path d="M210 287.1L191 307.9L221 345.7Z" fill="#fbb6cd" stroke="#000000"></path><path d="M221 345.7L198 393.7L273 418.6Z" fill="#e9b9e2" stroke="#000000"></path><path d="M156 291.1L191 307.9L210 287.1Z" fill="#f3b7d8" stroke="#000000"></path><path d="M300 498.4L310 513.1L308 483.4Z" fill="#cebff1" stroke="#000000"></path><path d="M743 428.4L718 377.7L655 423.6Z" fill="#cebff1" stroke="#000000"></path><path d="M495 543.1L597 539.1L581 513.1Z" fill="#f3b7d8" stroke="#000000"></path><path d="M607 513.3L677 503.3L667 469.4Z" fill="#e9b9e2" stroke="#000000"></path><path d="M691 79.7L658 56.7L651 91.7Z" fill="#ffb6c1" stroke="#000000"></path><path d="M611 50.7L549 0L533 63.9Z" fill="#9fc9f5" stroke="#000000"></path><path d="M497 0L549 0L487 -4.1Z" fill="#aec6f7" stroke="#000000"></path><path d="M626 0L549 0L611 50.7Z" fill="#aec6f7" stroke="#000000"></path><path d="M597 539.1L608 538.3L607 513.3Z" fill="#fbb6cd" stroke="#000000"></path><path d="M667 469.4L743 428.4L654 444.6Z" fill="#aec6f7" stroke="#000000"></path><path d="M717 141.4L691 79.7L647 119.6Z" fill="#cebff1" stroke="#000000"></path><path d="M708 85.6L691 79.7L717 141.4Z" fill="#ffb6c1" stroke="#000000"></path><path d="M191 307.9L187 343.9L221 345.7Z" fill="#aec6f7" stroke="#000000"></path><path d="M302 539.3L314 532.3L310 513.1Z" fill="#aec6f7" stroke="#000000"></path><path d="M273 15.9L274 59.7L316 57.9Z" fill="#f3b7d8" stroke="#000000"></path><path d="M316 57.9L274 59.7L281 101.6Z" fill="#f3b7d8" stroke="#000000"></path><path d="M197 392.6L198 393.7L221 345.7Z" fill="#bec3f5" stroke="#000000"></path><path d="M302 539.3L310 513.1L300 498.4Z" fill="#9fc9f5" stroke="#000000"></path><path d="M310 513.1L337 546.1L385 505.3Z" fill="#91ccf1" stroke="#000000"></path><path d="M421 531.3L426 594.1L495 543.1Z" fill="#aec6f7" stroke="#000000"></path><path d="M187 343.9L197 392.6L221 345.7Z" fill="#9fc9f5" stroke="#000000"></path><path d="M226 489.4L300 498.4L289 472.6Z" fill="#e9b9e2" stroke="#000000"></path><path d="M314 532.3L337 546.1L310 513.1Z" fill="#ffb6c1" stroke="#000000"></path><path d="M777 284L721 300.9L738 342.9Z" fill="#f3b7d8" stroke="#000000"></path><path d="M754 135.6L708 85.6L717 141.4Z" fill="#cebff1" stroke="#000000"></path><path d="M777 284L738 342.9L811 314Z" fill="#cebff1" stroke="#000000"></path><path d="M676 514.4L677 503.3L607 513.3Z" fill="#87ceeb" stroke="#000000"></path><path d="M796 273.1L811 314L810 272.1Z" fill="#cebff1" stroke="#000000"></path><path d="M754 135.6L717 141.4L771 154.4Z" fill="#87ceeb" stroke="#000000"></path><path d="M691 79.7L716 69.9L658 56.7Z" fill="#91ccf1" stroke="#000000"></path><path d="M313 -5.1L356 0L437 0Z" fill="#f3b7d8" stroke="#000000"></path><path d="M437 0L356 0L402 44.9Z" fill="#87ceeb" stroke="#000000"></path><path d="M191 307.9L175 327L187 343.9Z" fill="#9fc9f5" stroke="#000000"></path><path d="M187 343.9L154 392.7L197 392.6Z" fill="#ffb6c1" stroke="#000000"></path><path d="M156 291.1L175 327L191 307.9Z" fill="#e9b9e2" stroke="#000000"></path><path d="M677 503.3L743 428.4L667 469.4Z" fill="#cebff1" stroke="#000000"></path><path d="M805 350.7L738 342.9L741 365.7Z" fill="#f3b7d8" stroke="#000000"></path><path d="M674 537.1L676 514.4L607 513.3Z" fill="#f3b7d8" stroke="#000000"></path><path d="M677 503.3L754 516.4L743 428.4Z" fill="#aec6f7" stroke="#000000"></path><path d="M226 489.4L273 418.6L198 393.7Z" fill="#91ccf1" stroke="#000000"></path><path d="M314 532.3L302 539.3L337 546.1Z" fill="#cebff1" stroke="#000000"></path><path d="M201 70.7L188 152.4L237 121.6Z" fill="#bec3f5" stroke="#000000"></path><path d="M237 121.6L188 152.4L240 126.7Z" fill="#cebff1" stroke="#000000"></path><path d="M771 154.4L717 141.4L749 205.3Z" fill="#ffb6c1" stroke="#000000"></path><path d="M774 236.3L779 190.4L749 205.3Z" fill="#87ceeb" stroke="#000000"></path><path d="M807 173.6L779 190.4L835 189.4Z" fill="#e9b9e2" stroke="#000000"></path><path d="M654 -4.1L626 0L658 56.7Z" fill="#dcbcea" stroke="#000000"></path><path d="M658 56.7L626 0L611 50.7Z" fill="#87ceeb" stroke="#000000"></path><path d="M549 0L654 -4.1L487 -4.1Z" fill="#87ceeb" stroke="#000000"></path><path d="M754 135.6L716 69.9L708 85.6Z" fill="#dcbcea" stroke="#000000"></path><path d="M708 85.6L716 69.9L691 79.7Z" fill="#9fc9f5" stroke="#000000"></path><path d="M406 600L421 531.3L397 600Z" fill="#aec6f7" stroke="#000000"></path><path d="M406 600L426 594.1L421 531.3Z" fill="#91ccf1" stroke="#000000"></path><path d="M495 543.1L521 600L597 539.1Z" fill="#9fc9f5" stroke="#000000"></path><path d="M597 539.1L632 565.1L608 538.3Z" fill="#e9b9e2" stroke="#000000"></path><path d="M156 251.3L156 291.1L210 287.1Z" fill="#ffb6c1" stroke="#000000"></path><path d="M175 327L154 392.7L187 343.9Z" fill="#bec3f5" stroke="#000000"></path><path d="M150 239.1L156 251.3L267 206.4Z" fill="#dcbcea" stroke="#000000"></path><path d="M779 190.4L771 154.4L749 205.3Z" fill="#bec3f5" stroke="#000000"></path><path d="M723 17.9L709 12.9L716 69.9Z" fill="#ffb6c1" stroke="#000000"></path><path d="M773 403.6L741 365.7L739 390.6Z" fill="#f3b7d8" stroke="#000000"></path><path d="M777 284L796 273.1L774 236.3Z" fill="#fbb6cd" stroke="#000000"></path><path d="M426 594.1L474 600L495 543.1Z" fill="#fbb6cd" stroke="#000000"></path><path d="M608 538.3L674 537.1L607 513.3Z" fill="#9fc9f5" stroke="#000000"></path><path d="M795 406.6L773 403.6L743 428.4Z" fill="#e9b9e2" stroke="#000000"></path><path d="M743 428.4L773 403.6L739 390.6Z" fill="#fbb6cd" stroke="#000000"></path><path d="M474 600L521 600L495 543.1Z" fill="#e9b9e2" stroke="#000000"></path><path d="M162 429.6L226 489.4L198 393.7Z" fill="#9fc9f5" stroke="#000000"></path><path d="M162 429.6L198 393.7L197 392.6Z" fill="#91ccf1" stroke="#000000"></path><path d="M632 565.1L674 537.1L608 538.3Z" fill="#f3b7d8" stroke="#000000"></path><path d="M676 514.4L754 516.4L677 503.3Z" fill="#aec6f7" stroke="#000000"></path><path d="M600 600L632 565.1L597 539.1Z" fill="#e9b9e2" stroke="#000000"></path><path d="M356 0L313 -5.1L316 57.9Z" fill="#91ccf1" stroke="#000000"></path><path d="M274 59.7L201 70.7L237 121.6Z" fill="#bec3f5" stroke="#000000"></path><path d="M487 -4.1L313 -5.1L437 0Z" fill="#aec6f7" stroke="#000000"></path><path d="M188 152.4L150 239.1L267 206.4Z" fill="#f3b7d8" stroke="#000000"></path><path d="M156 251.3L143 261.3L156 291.1Z" fill="#dcbcea" stroke="#000000"></path><path d="M397 600L421 531.3L337 546.1Z" fill="#f3b7d8" stroke="#000000"></path><path d="M426 594.1L406 600L474 600Z" fill="#dcbcea" stroke="#000000"></path><path d="M313 -5.1L301 0L316 57.9Z" fill="#87ceeb" stroke="#000000"></path><path d="M91 306.9L147 318L156 291.1Z" fill="#dcbcea" stroke="#000000"></path><path d="M156 291.1L147 318L175 327Z" fill="#fbb6cd" stroke="#000000"></path><path d="M351 592.1L397 600L337 546.1Z" fill="#dcbcea" stroke="#000000"></path><path d="M301 0L273 15.9L316 57.9Z" fill="#fbb6cd" stroke="#000000"></path><path d="M150 239.1L143 261.3L156 251.3Z" fill="#91ccf1" stroke="#000000"></path><path d="M677 0L654 -4.1L658 56.7Z" fill="#91ccf1" stroke="#000000"></path><path d="M626 0L654 -4.1L549 0Z" fill="#cebff1" stroke="#000000"></path><path d="M487 -4.1L654 -4.1L313 -5.1Z" fill="#f3b7d8" stroke="#000000"></path><path d="M811 314L796 273.1L777 284Z" fill="#87ceeb" stroke="#000000"></path><path d="M796 273.1L810 272.1L774 236.3Z" fill="#ffb6c1" stroke="#000000"></path><path d="M779 190.4L807 173.6L771 154.4Z" fill="#9fc9f5" stroke="#000000"></path><path d="M346 600L351 592.1L329 600Z" fill="#aec6f7" stroke="#000000"></path><path d="M351 592.1L337 546.1L329 600Z" fill="#9fc9f5" stroke="#000000"></path><path d="M773 403.6L805 350.7L741 365.7Z" fill="#87ceeb" stroke="#000000"></path><path d="M805 350.7L811 314L738 342.9Z" fill="#e9b9e2" stroke="#000000"></path><path d="M150 129.7L150 178.4L188 152.4Z" fill="#87ceeb" stroke="#000000"></path><path d="M188 152.4L150 178.4L150 239.1Z" fill="#87ceeb" stroke="#000000"></path><path d="M150 239.1L109 252L143 261.3Z" fill="#fbb6cd" stroke="#000000"></path><path d="M147 318L154 392.7L175 327Z" fill="#fbb6cd" stroke="#000000"></path><path d="M198 65.7L201 70.7L274 59.7Z" fill="#87ceeb" stroke="#000000"></path><path d="M709 12.9L658 56.7L716 69.9Z" fill="#bec3f5" stroke="#000000"></path><path d="M709 12.9L677 0L658 56.7Z" fill="#cebff1" stroke="#000000"></path><path d="M831 464.4L795 406.6L743 428.4Z" fill="#cebff1" stroke="#000000"></path><path d="M773 403.6L795 406.6L805 350.7Z" fill="#fbb6cd" stroke="#000000"></path><path d="M521 600L600 600L597 539.1Z" fill="#87ceeb" stroke="#000000"></path><path d="M762 526.3L754 516.4L755 541.1Z" fill="#ffb6c1" stroke="#000000"></path><path d="M329 600L337 546.1L302 539.3Z" fill="#e9b9e2" stroke="#000000"></path><path d="M351 592.1L346 600L397 600Z" fill="#e9b9e2" stroke="#000000"></path><path d="M154 392.7L162 429.6L197 392.6Z" fill="#9fc9f5" stroke="#000000"></path><path d="M835 189.4L779 190.4L842 217.3Z" fill="#9fc9f5" stroke="#000000"></path><path d="M771 154.4L791 100.7L754 135.6Z" fill="#87ceeb" stroke="#000000"></path><path d="M240 0L198 65.7L274 59.7Z" fill="#9fc9f5" stroke="#000000"></path><path d="M201 70.7L150 129.7L188 152.4Z" fill="#9fc9f5" stroke="#000000"></path><path d="M196 522.3L216 516.4L226 489.4Z" fill="#87ceeb" stroke="#000000"></path><path d="M226 489.4L216 516.4L300 498.4Z" fill="#9fc9f5" stroke="#000000"></path><path d="M261 600L329 600L302 539.3Z" fill="#dcbcea" stroke="#000000"></path><path d="M723 17.9L716 69.9L769 57.7Z" fill="#e9b9e2" stroke="#000000"></path><path d="M143 84.6L150 129.7L201 70.7Z" fill="#ffb6c1" stroke="#000000"></path><path d="M97 210.1L109 252L150 239.1Z" fill="#fbb6cd" stroke="#000000"></path><path d="M769 57.7L716 69.9L754 135.6Z" fill="#aec6f7" stroke="#000000"></path><path d="M709 12.9L708 0L677 0Z" fill="#f3b7d8" stroke="#000000"></path><path d="M129 92.6L146 131.6L150 129.7Z" fill="#aec6f7" stroke="#000000"></path><path d="M150 129.7L146 131.6L150 178.4Z" fill="#ffb6c1" stroke="#000000"></path><path d="M807 173.6L791 100.7L771 154.4Z" fill="#f3b7d8" stroke="#000000"></path><path d="M723 17.9L708 0L709 12.9Z" fill="#fbb6cd" stroke="#000000"></path><path d="M677 0L708 0L654 -4.1Z" fill="#91ccf1" stroke="#000000"></path><path d="M301 0L240 0L273 15.9Z" fill="#ffb6c1" stroke="#000000"></path><path d="M273 15.9L240 0L274 59.7Z" fill="#dcbcea" stroke="#000000"></path><path d="M198 65.7L143 84.6L201 70.7Z" fill="#fbb6cd" stroke="#000000"></path><path d="M313 -5.1L240 0L301 0Z" fill="#ffb6c1" stroke="#000000"></path><path d="M666 600L674 537.1L632 565.1Z" fill="#91ccf1" stroke="#000000"></path><path d="M674 537.1L754 516.4L676 514.4Z" fill="#aec6f7" stroke="#000000"></path><path d="M97 210.1L150 239.1L150 178.4Z" fill="#f3b7d8" stroke="#000000"></path><path d="M143 261.3L91 306.9L156 291.1Z" fill="#cebff1" stroke="#000000"></path><path d="M147 318L104 368.9L154 392.7Z" fill="#aec6f7" stroke="#000000"></path><path d="M144 454.4L156 474.3L162 429.6Z" fill="#cebff1" stroke="#000000"></path><path d="M754 516.4L767 501.3L743 428.4Z" fill="#aec6f7" stroke="#000000"></path><path d="M196 522.3L211 534.1L216 516.4Z" fill="#cebff1" stroke="#000000"></path><path d="M216 516.4L211 534.1L302 539.3Z" fill="#f3b7d8" stroke="#000000"></path><path d="M791 100.7L769 57.7L754 135.6Z" fill="#f3b7d8" stroke="#000000"></path><path d="M723 17.9L786 0L708 0Z" fill="#87ceeb" stroke="#000000"></path><path d="M158 503.3L196 522.3L226 489.4Z" fill="#f3b7d8" stroke="#000000"></path><path d="M842 217.3L774 236.3L810 272.1Z" fill="#9fc9f5" stroke="#000000"></path><path d="M842 217.3L779 190.4L774 236.3Z" fill="#aec6f7" stroke="#000000"></path><path d="M807 173.6L884 105.6L791 100.7Z" fill="#dcbcea" stroke="#000000"></path><path d="M842 217.3L810 272.1L851 288Z" fill="#dcbcea" stroke="#000000"></path><path d="M810 272.1L811 314L851 288Z" fill="#aec6f7" stroke="#000000"></path><path d="M837 374.9L811 314L805 350.7Z" fill="#91ccf1" stroke="#000000"></path><path d="M600 600L666 600L632 565.1Z" fill="#91ccf1" stroke="#000000"></path><path d="M144 454.4L91 440.4L108 456.6Z" fill="#dcbcea" stroke="#000000"></path><path d="M162 429.6L156 474.3L226 489.4Z" fill="#91ccf1" stroke="#000000"></path><path d="M844 379.6L837 374.9L795 406.6Z" fill="#f3b7d8" stroke="#000000"></path><path d="M795 406.6L837 374.9L805 350.7Z" fill="#e9b9e2" stroke="#000000"></path><path d="M144 454.4L162 429.6L91 440.4Z" fill="#f3b7d8" stroke="#000000"></path><path d="M786 0L779 57.9L811 0Z" fill="#ffb6c1" stroke="#000000"></path><path d="M791 100.7L779 57.9L769 57.7Z" fill="#fbb6cd" stroke="#000000"></path><path d="M769 57.7L786 0L723 17.9Z" fill="#91ccf1" stroke="#000000"></path><path d="M891 348.9L851 288L811 314Z" fill="#f3b7d8" stroke="#000000"></path><path d="M755 541.1L754 516.4L674 537.1Z" fill="#fbb6cd" stroke="#000000"></path><path d="M754 516.4L762 526.3L767 501.3Z" fill="#aec6f7" stroke="#000000"></path><path d="M831 464.4L844 379.6L795 406.6Z" fill="#dcbcea" stroke="#000000"></path><path d="M91 306.9L104 368.9L147 318Z" fill="#bec3f5" stroke="#000000"></path><path d="M831 464.4L743 428.4L767 501.3Z" fill="#aec6f7" stroke="#000000"></path><path d="M837 374.9L891 348.9L811 314Z" fill="#fbb6cd" stroke="#000000"></path><path d="M721 600L755 541.1L674 537.1Z" fill="#e9b9e2" stroke="#000000"></path><path d="M810 508.1L831 464.4L767 501.3Z" fill="#87ceeb" stroke="#000000"></path><path d="M75 186.3L97 210.1L150 178.4Z" fill="#91ccf1" stroke="#000000"></path><path d="M109 252L91 306.9L143 261.3Z" fill="#dcbcea" stroke="#000000"></path><path d="M139 80.9L143 84.6L198 65.7Z" fill="#e9b9e2" stroke="#000000"></path><path d="M71 139.6L75 186.3L150 178.4Z" fill="#fbb6cd" stroke="#000000"></path><path d="M60 296.9L91 306.9L109 252Z" fill="#bec3f5" stroke="#000000"></path><path d="M666 600L688 600L674 537.1Z" fill="#f3b7d8" stroke="#000000"></path><path d="M245 594.1L302 539.3L211 534.1Z" fill="#91ccf1" stroke="#000000"></path><path d="M245 594.1L261 600L302 539.3Z" fill="#e9b9e2" stroke="#000000"></path><path d="M75 186.3L93 217.4L97 210.1Z" fill="#91ccf1" stroke="#000000"></path><path d="M97 210.1L93 217.4L109 252Z" fill="#cebff1" stroke="#000000"></path><path d="M158 517.1L158 503.3L130 539.3Z" fill="#f3b7d8" stroke="#000000"></path><path d="M108 456.6L158 503.3L156 474.3Z" fill="#ffb6c1" stroke="#000000"></path><path d="M156 474.3L158 503.3L226 489.4Z" fill="#bec3f5" stroke="#000000"></path><path d="M223 600L245 594.1L211 534.1Z" fill="#9fc9f5" stroke="#000000"></path><path d="M157 0L139 80.9L198 65.7Z" fill="#f3b7d8" stroke="#000000"></path><path d="M143 84.6L129 92.6L150 129.7Z" fill="#dcbcea" stroke="#000000"></path><path d="M136 554.1L211 534.1L196 522.3Z" fill="#e9b9e2" stroke="#000000"></path><path d="M139 80.9L129 92.6L143 84.6Z" fill="#cebff1" stroke="#000000"></path><path d="M842 217.3L865 219.1L835 189.4Z" fill="#91ccf1" stroke="#000000"></path><path d="M835 189.4L884 105.6L807 173.6Z" fill="#e9b9e2" stroke="#000000"></path><path d="M851 288L865 219.1L842 217.3Z" fill="#ffb6c1" stroke="#000000"></path><path d="M900 254.1L865 219.1L851 288Z" fill="#87ceeb" stroke="#000000"></path><path d="M108 456.6L156 474.3L144 454.4Z" fill="#cebff1" stroke="#000000"></path><path d="M158 503.3L158 517.1L196 522.3Z" fill="#87ceeb" stroke="#000000"></path><path d="M129 92.6L114 112.7L146 131.6Z" fill="#cebff1" stroke="#000000"></path><path d="M313 -5.1L190 0L240 0Z" fill="#9fc9f5" stroke="#000000"></path><path d="M240 0L190 0L198 65.7Z" fill="#ffb6c1" stroke="#000000"></path><path d="M139 80.9L89 30.9L129 92.6Z" fill="#91ccf1" stroke="#000000"></path><path d="M39 70.7L71 139.6L114 112.7Z" fill="#f3b7d8" stroke="#000000"></path><path d="M806 510.3L767 501.3L762 526.3Z" fill="#aec6f7" stroke="#000000"></path><path d="M789 586.1L806 510.3L762 526.3Z" fill="#fbb6cd" stroke="#000000"></path><path d="M789 586.1L762 526.3L755 541.1Z" fill="#cebff1" stroke="#000000"></path><path d="M688 600L721 600L674 537.1Z" fill="#bec3f5" stroke="#000000"></path><path d="M847 569.1L810 508.1L806 510.3Z" fill="#aec6f7" stroke="#000000"></path><path d="M806 510.3L810 508.1L767 501.3Z" fill="#bec3f5" stroke="#000000"></path><path d="M91 440.4L162 429.6L154 392.7Z" fill="#fbb6cd" stroke="#000000"></path><path d="M83 395.6L154 392.7L104 368.9Z" fill="#f3b7d8" stroke="#000000"></path><path d="M313 -5.1L177 0L190 0Z" fill="#87ceeb" stroke="#000000"></path><path d="M190 0L177 0L198 65.7Z" fill="#ffb6c1" stroke="#000000"></path><path d="M136 554.1L223 600L211 534.1Z" fill="#bec3f5" stroke="#000000"></path><path d="M245 594.1L223 600L261 600Z" fill="#aec6f7" stroke="#000000"></path><path d="M136 554.1L196 522.3L158 517.1Z" fill="#aec6f7" stroke="#000000"></path><path d="M50 393.7L83 395.6L104 368.9Z" fill="#9fc9f5" stroke="#000000"></path><path d="M18 327L104 368.9L91 306.9Z" fill="#ffb6c1" stroke="#000000"></path><path d="M71 139.6L150 178.4L146 131.6Z" fill="#cebff1" stroke="#000000"></path><path d="M93 217.4L60 296.9L109 252Z" fill="#ffb6c1" stroke="#000000"></path><path d="M20 213.4L60 296.9L93 217.4Z" fill="#fbb6cd" stroke="#000000"></path><path d="M61 428.7L91 440.4L83 395.6Z" fill="#f3b7d8" stroke="#000000"></path><path d="M83 395.6L91 440.4L154 392.7Z" fill="#e9b9e2" stroke="#000000"></path><path d="M82 510.4L130 539.3L158 503.3Z" fill="#aec6f7" stroke="#000000"></path><path d="M811 0L779 57.9L812 0Z" fill="#cebff1" stroke="#000000"></path><path d="M779 57.9L786 0L769 57.7Z" fill="#fbb6cd" stroke="#000000"></path><path d="M708 0L786 0L654 -4.1Z" fill="#f3b7d8" stroke="#000000"></path><path d="M721 600L742 600L755 541.1Z" fill="#fbb6cd" stroke="#000000"></path><path d="M888 384.7L891 348.9L844 379.6Z" fill="#fbb6cd" stroke="#000000"></path><path d="M844 379.6L891 348.9L837 374.9Z" fill="#bec3f5" stroke="#000000"></path><path d="M888 384.7L844 379.6L900 405.7Z" fill="#91ccf1" stroke="#000000"></path><path d="M313 -5.1L157 0L177 0Z" fill="#dcbcea" stroke="#000000"></path><path d="M177 0L157 0L198 65.7Z" fill="#aec6f7" stroke="#000000"></path><path d="M114 112.7L71 139.6L146 131.6Z" fill="#dcbcea" stroke="#000000"></path><path d="M891 348.9L900 265L851 288Z" fill="#ffb6c1" stroke="#000000"></path><path d="M865 219.1L900 208.4L835 189.4Z" fill="#91ccf1" stroke="#000000"></path><path d="M900 265L900 259.3L851 288Z" fill="#dcbcea" stroke="#000000"></path><path d="M900 259.3L900 254.1L851 288Z" fill="#f3b7d8" stroke="#000000"></path><path d="M900 405.7L844 379.6L831 464.4Z" fill="#f3b7d8" stroke="#000000"></path><path d="M891 348.9L900 353.9L900 265Z" fill="#aec6f7" stroke="#000000"></path><path d="M89 30.9L114 112.7L129 92.6Z" fill="#bec3f5" stroke="#000000"></path><path d="M75 186.3L20 213.4L93 217.4Z" fill="#87ceeb" stroke="#000000"></path><path d="M900 254.1L900 208.4L865 219.1Z" fill="#ffb6c1" stroke="#000000"></path><path d="M888 384.7L900 353.9L891 348.9Z" fill="#aec6f7" stroke="#000000"></path><path d="M82 510.4L158 503.3L108 456.6Z" fill="#fbb6cd" stroke="#000000"></path><path d="M812 0L779 57.9L858 51.9Z" fill="#ffb6c1" stroke="#000000"></path><path d="M786 0L811 0L654 -4.1Z" fill="#87ceeb" stroke="#000000"></path><path d="M130 539.3L136 554.1L158 517.1Z" fill="#cebff1" stroke="#000000"></path><path d="M858 51.9L779 57.9L791 100.7Z" fill="#fbb6cd" stroke="#000000"></path><path d="M811 0L812 0L654 -4.1Z" fill="#dcbcea" stroke="#000000"></path><path d="M742 600L789 586.1L755 541.1Z" fill="#87ceeb" stroke="#000000"></path><path d="M900 466.6L900 405.7L831 464.4Z" fill="#e9b9e2" stroke="#000000"></path><path d="M18 327L91 306.9L60 296.9Z" fill="#87ceeb" stroke="#000000"></path><path d="M18 327L50 393.7L104 368.9Z" fill="#bec3f5" stroke="#000000"></path><path d="M91 440.4L82 510.4L108 456.6Z" fill="#aec6f7" stroke="#000000"></path><path d="M110 600L112 600L136 554.1Z" fill="#aec6f7" stroke="#000000"></path><path d="M50 393.7L61 428.7L83 395.6Z" fill="#cebff1" stroke="#000000"></path><path d="M891 479.4L831 464.4L874 539.3Z" fill="#cebff1" stroke="#000000"></path><path d="M888 384.7L900 405.7L900 353.9Z" fill="#cebff1" stroke="#000000"></path><path d="M900 208.4L884 105.6L835 189.4Z" fill="#cebff1" stroke="#000000"></path><path d="M884 105.6L858 51.9L791 100.7Z" fill="#91ccf1" stroke="#000000"></path><path d="M157 0L115 10.9L139 80.9Z" fill="#cebff1" stroke="#000000"></path><path d="M0 180.3L36 182.3L0 156.4Z" fill="#f3b7d8" stroke="#000000"></path><path d="M71 139.6L36 182.3L75 186.3Z" fill="#f3b7d8" stroke="#000000"></path><path d="M742 600L791 600L789 586.1Z" fill="#ffb6c1" stroke="#000000"></path><path d="M900 489.4L891 479.4L900 509.3Z" fill="#ffb6c1" stroke="#000000"></path><path d="M80 513.3L82 510.4L0 472.4Z" fill="#cebff1" stroke="#000000"></path><path d="M61 428.7L82 510.4L91 440.4Z" fill="#f3b7d8" stroke="#000000"></path><path d="M115 10.9L89 30.9L139 80.9Z" fill="#bec3f5" stroke="#000000"></path><path d="M0 472.4L82 510.4L61 428.7Z" fill="#dcbcea" stroke="#000000"></path><path d="M82 510.4L80 513.3L130 539.3Z" fill="#aec6f7" stroke="#000000"></path><path d="M0 261L18 327L60 296.9Z" fill="#cebff1" stroke="#000000"></path><path d="M50 393.7L0 415.7L61 428.7Z" fill="#9fc9f5" stroke="#000000"></path><path d="M0 211.1L20 213.4L-3 208.1Z" fill="#9fc9f5" stroke="#000000"></path><path d="M36 182.3L20 213.4L75 186.3Z" fill="#91ccf1" stroke="#000000"></path><path d="M847 569.1L806 510.3L789 586.1Z" fill="#bec3f5" stroke="#000000"></path><path d="M891 479.4L900 466.6L831 464.4Z" fill="#87ceeb" stroke="#000000"></path><path d="M900 208.4L900 81.6L884 105.6Z" fill="#9fc9f5" stroke="#000000"></path><path d="M884 105.6L898 73.7L858 51.9Z" fill="#f3b7d8" stroke="#000000"></path><path d="M858 51.9L900 0L812 0Z" fill="#fbb6cd" stroke="#000000"></path><path d="M900 81.6L898 73.7L884 105.6Z" fill="#fbb6cd" stroke="#000000"></path><path d="M900 78.9L898 73.7L900 81.6Z" fill="#9fc9f5" stroke="#000000"></path><path d="M791 600L847 569.1L789 586.1Z" fill="#cebff1" stroke="#000000"></path><path d="M891 479.4L900 489.4L900 466.6Z" fill="#f3b7d8" stroke="#000000"></path><path d="M874 539.3L831 464.4L810 508.1Z" fill="#cebff1" stroke="#000000"></path><path d="M115 10.9L80 14.9L89 30.9Z" fill="#e9b9e2" stroke="#000000"></path><path d="M89 30.9L39 70.7L114 112.7Z" fill="#fbb6cd" stroke="#000000"></path><path d="M47 0L80 14.9L115 10.9Z" fill="#f3b7d8" stroke="#000000"></path><path d="M0 211.1L0 261L20 213.4Z" fill="#fbb6cd" stroke="#000000"></path><path d="M20 213.4L0 261L60 296.9Z" fill="#aec6f7" stroke="#000000"></path><path d="M847 569.1L874 539.3L810 508.1Z" fill="#e9b9e2" stroke="#000000"></path><path d="M-3 208.1L20 213.4L0 180.3Z" fill="#91ccf1" stroke="#000000"></path><path d="M900 78.9L900 53.7L898 73.7Z" fill="#dcbcea" stroke="#000000"></path><path d="M898 73.7L900 53.7L858 51.9Z" fill="#e9b9e2" stroke="#000000"></path><path d="M80 14.9L39 70.7L89 30.9Z" fill="#cebff1" stroke="#000000"></path><path d="M0 180.3L20 213.4L36 182.3Z" fill="#e9b9e2" stroke="#000000"></path><path d="M0 211.1L-3 208.1L0 261Z" fill="#f3b7d8" stroke="#000000"></path><path d="M874 539.3L900 509.3L891 479.4Z" fill="#dcbcea" stroke="#000000"></path><path d="M110 600L136 554.1L130 539.3Z" fill="#9fc9f5" stroke="#000000"></path><path d="M136 554.1L112 600L223 600Z" fill="#87ceeb" stroke="#000000"></path><path d="M0 261L0 376.9L18 327Z" fill="#9fc9f5" stroke="#000000"></path><path d="M18 327L0 376.9L50 393.7Z" fill="#e9b9e2" stroke="#000000"></path><path d="M80 513.3L110 600L130 539.3Z" fill="#cebff1" stroke="#000000"></path><path d="M-3 208.1L0 376.9L0 261Z" fill="#f3b7d8" stroke="#000000"></path><path d="M0 156.4L36 182.3L71 139.6Z" fill="#e9b9e2" stroke="#000000"></path><path d="M40 558.1L110 600L80 513.3Z" fill="#dcbcea" stroke="#000000"></path><path d="M0 123.6L0 156.4L71 139.6Z" fill="#87ceeb" stroke="#000000"></path><path d="M0 180.3L0 156.4L-3 208.1Z" fill="#9fc9f5" stroke="#000000"></path><path d="M-3 208.1L0 415.7L0 376.9Z" fill="#cebff1" stroke="#000000"></path><path d="M0 376.9L0 415.7L50 393.7Z" fill="#ffb6c1" stroke="#000000"></path><path d="M900 600L900 540.1L874 539.3Z" fill="#9fc9f5" stroke="#000000"></path><path d="M874 539.3L900 540.1L900 509.3Z" fill="#cebff1" stroke="#000000"></path><path d="M865 600L874 539.3L847 569.1Z" fill="#87ceeb" stroke="#000000"></path><path d="M0 75.7L0 123.6L39 70.7Z" fill="#91ccf1" stroke="#000000"></path><path d="M39 70.7L0 123.6L71 139.6Z" fill="#87ceeb" stroke="#000000"></path><path d="M0 156.4L0 123.6L-3 208.1Z" fill="#ffb6c1" stroke="#000000"></path><path d="M-3 208.1L0 446.6L0 415.7Z" fill="#cebff1" stroke="#000000"></path><path d="M0 415.7L0 446.6L61 428.7Z" fill="#9fc9f5" stroke="#000000"></path><path d="M791 600L865 600L847 569.1Z" fill="#f3b7d8" stroke="#000000"></path><path d="M900 53.7L900 0L858 51.9Z" fill="#91ccf1" stroke="#000000"></path><path d="M812 0L900 0L654 -4.1Z" fill="#cebff1" stroke="#000000"></path><path d="M157 0L47 0L115 10.9Z" fill="#fbb6cd" stroke="#000000"></path><path d="M80 14.9L47 0L39 70.7Z" fill="#9fc9f5" stroke="#000000"></path><path d="M313 -5.1L47 0L157 0Z" fill="#bec3f5" stroke="#000000"></path><path d="M-3 208.1L0 472.4L0 446.6Z" fill="#87ceeb" stroke="#000000"></path><path d="M0 446.6L0 472.4L61 428.7Z" fill="#aec6f7" stroke="#000000"></path><path d="M0 9.9L0 75.7L39 70.7Z" fill="#dcbcea" stroke="#000000"></path><path d="M0 123.6L0 75.7L-3 208.1Z" fill="#bec3f5" stroke="#000000"></path><path d="M0 520.3L40 558.1L80 513.3Z" fill="#aec6f7" stroke="#000000"></path><path d="M313 -5.1L39 0L47 0Z" fill="#f3b7d8" stroke="#000000"></path><path d="M47 0L39 0L39 70.7Z" fill="#9fc9f5" stroke="#000000"></path><path d="M40 558.1L63 600L110 600Z" fill="#aec6f7" stroke="#000000"></path><path d="M865 600L900 600L874 539.3Z" fill="#e9b9e2" stroke="#000000"></path><path d="M0 472.4L0 520.3L80 513.3Z" fill="#9fc9f5" stroke="#000000"></path><path d="M40 558.1L0 600L63 600Z" fill="#f3b7d8" stroke="#000000"></path><path d="M-3 208.1L0 520.3L0 472.4Z" fill="#dcbcea" stroke="#000000"></path><path d="M39 0L0 9.9L39 70.7Z" fill="#91ccf1" stroke="#000000"></path><path d="M0 75.7L0 9.9L-3 208.1Z" fill="#91ccf1" stroke="#000000"></path><path d="M-3 208.1L0 556.1L0 520.3Z" fill="#f3b7d8" stroke="#000000"></path><path d="M0 520.3L0 556.1L40 558.1Z" fill="#e9b9e2" stroke="#000000"></path><path d="M313 -5.1L0 0L39 0Z" fill="#e9b9e2" stroke="#000000"></path><path d="M39 0L0 0L0 9.9Z" fill="#fbb6cd" stroke="#000000"></path><path d="M0 9.9L0 0L-3 208.1Z" fill="#aec6f7" stroke="#000000"></path><path d="M-3 208.1L0 600L0 556.1Z" fill="#9fc9f5" stroke="#000000"></path><path d="M0 556.1L0 600L40 558.1Z" fill="#f3b7d8" stroke="#000000"></path></g></svg>